  0
SECTION
  2
HEADER
  9
$ACADVER
  1
AC1014
  9
$HANDSEED
  5
FFFF
  9
$MEASUREMENT
 70
     1
  0
ENDSEC
  0
SECTION
  2
TABLES
  0
TABLE
  2
VPORT
  5
8
330
0
100
AcDbSymbolTable
 70
     4
  0
VPORT
  5
2E
330
8
100
AcDbSymbolTableRecord
100
AcDbViewportTableRecord
  2
*ACTIVE
 70
     0
 10
0.0
 20
0.0
 11
1.0
 21
1.0
 12
210.0
 22
148.5
 13
0.0
 23
0.0
 14
10.0
 24
10.0
 15
10.0
 25
10.0
 16
0.0
 26
0.0
 36
1.0
 17
0.0
 27
0.0
 37
0.0
 40
341.0
 41
1.24
 42
50.0
 43
0.0
 44
0.0
 50
0.0
 51
0.0
 71
     0
 72
   100
 73
     1
 74
     3
 75
     0
 76
     0
 77
     0
 78
     0
  0
ENDTAB
  0
TABLE
  2
LTYPE
  5
5
330
0
100
AcDbSymbolTable
 70
     1
  0
LTYPE
  5
14
330
5
100
AcDbSymbolTableRecord
100
AcDbLinetypeTableRecord
  2
BYBLOCK
 70
     0
  3

 72
    65
 73
     0
 40
0.0
  0
LTYPE
  5
15
330
5
100
AcDbSymbolTableRecord
100
AcDbLinetypeTableRecord
  2
BYLAYER
 70
     0
  3

 72
    65
 73
     0
 40
0.0
  0
LTYPE
  5
16
330
5
100
AcDbSymbolTableRecord
100
AcDbLinetypeTableRecord
  2
CONTINUOUS
 70
     0
  3
Solid line
 72
    65
 73
     0
 40
0.0
  0
ENDTAB
  0
TABLE
  2
LAYER
  5
2
100
AcDbSymbolTable
 70
4
  0
LAYER
  5
50
100
AcDbSymbolTableRecord
100
AcDbLayerTableRecord
  2
0
 70
0
  6
CONTINUOUS
  0
LAYER
  5
51
100
AcDbSymbolTableRecord
100
AcDbLayerTableRecord
  2
Layer_1
 70
0
  6
CONTINUOUS
  0
LAYER
  5
52
100
AcDbSymbolTableRecord
100
AcDbLayerTableRecord
  2
Layer_2
 70
0
  6
CONTINUOUS
  0
LAYER
  5
53
100
AcDbSymbolTableRecord
100
AcDbLayerTableRecord
  2
Layer_3
 70
0
  6
CONTINUOUS
  0
ENDTAB
  0
TABLE
  2
STYLE
  5
3
330
0
100
AcDbSymbolTable
 70
     1
  0
STYLE
  5
11
330
3
100
AcDbSymbolTableRecord
100
AcDbTextStyleTableRecord
  2
STANDARD
 70
     0
 40
0.0
 41
1.0
 50
0.0
 71
     0
 42
2.5
  3
txt
  4

  0
ENDTAB
  0
TABLE
  2
VIEW
  5
6
330
0
100
AcDbSymbolTable
 70
     0
  0
ENDTAB
  0
TABLE
  2
UCS
  5
7
330
0
100
AcDbSymbolTable
 70
     0
  0
ENDTAB
  0
TABLE
  2
APPID
  5
9
330
0
100
AcDbSymbolTable
 70
     2
  0
APPID
  5
12
330
9
100
AcDbSymbolTableRecord
100
AcDbRegAppTableRecord
  2
ACAD
 70
     0
  0
ENDTAB
  0
TABLE
  2
DIMSTYLE
  5
A
330
0
100
AcDbSymbolTable
 70
     1
  0
DIMSTYLE
105
27
330
A
100
AcDbSymbolTableRecord
100
AcDbDimStyleTableRecord
  2
ISO-25
 70
     0
  3

  4

  5

  6

  7

 40
1.0
 41
2.5
 42
0.625
 43
3.75
 44
1.25
 45
0.0
 46
0.0
 47
0.0
 48
0.0
140
2.5
141
2.5
142
0.0
143
0.03937007874016
144
1.0
145
0.0
146
1.0
147
0.625
 71
     0
 72
     0
 73
     0
 74
     0
 75
     0
 76
     0
 77
     1
 78
     8
170
     0
171
     3
172
     1
173
     0
174
     0
175
     0
176
     0
177
     0
178
     0
270
     2
271
     2
272
     2
273
     2
274
     3
340
11
275
     0
280
     0
281
     0
282
     0
283
     0
284
     8
285
     0
286
     0
287
     3
288
     0
  0
ENDTAB
  0
TABLE
  2
BLOCK_RECORD
  5
1
330
0
100
AcDbSymbolTable
 70
     1
  0
BLOCK_RECORD
  5
1F
330
1
100
AcDbSymbolTableRecord
100
AcDbBlockTableRecord
  2
*MODEL_SPACE
  0
BLOCK_RECORD
  5
1B
330
1
100
AcDbSymbolTableRecord
100
AcDbBlockTableRecord
  2
*PAPER_SPACE
  0
ENDTAB
  0
ENDSEC
  0
SECTION
  2
BLOCKS
  0
BLOCK
  5
20
330
1F
100
AcDbEntity
  8
0
100
AcDbBlockBegin
  2
*MODEL_SPACE
 70
     0
 10
0.0
 20
0.0
 30
0.0
  3
*MODEL_SPACE
  1

  0
ENDBLK
  5
21
330
1F
100
AcDbEntity
  8
0
100
AcDbBlockEnd
  0
BLOCK
  5
1C
330
1B
100
AcDbEntity
 67
     1
  8
0
100
AcDbBlockBegin
  2
*PAPER_SPACE
  1

  0
ENDBLK
  5
1D
330
1B
100
AcDbEntity
 67
     1
  8
0
100
AcDbBlockEnd
  0
ENDSEC
  0
SECTION
  2
ENTITIES
  0
LWPOLYLINE
  5
100
100
AcDbEntity
  8
Layer_1
 62
7
100
AcDbPolyline
 90
2
 70
0
 10
101.250649
 20
0.049565
 30
0.0
 10
0.050705
 20
0.049565
 30
0.0
  0
LWPOLYLINE
  5
101
100
AcDbEntity
  8
Layer_1
 62
7
100
AcDbPolyline
 90
2
 70
0
 10
101.250649
 20
128.449841
 30
0.0
 10
101.250649
 20
0.049565
 30
0.0
  0
SPLINE
  5
102
100
AcDbEntity
  8
Layer_1
 62
7
100
AcDbSpline
 70
8
 71
3
 72
8
 73
4
 74
0
 40
0
 40
0
 40
0
 40
0
 40
1
 40
1
 40
1
 40
1
 10
93.758055
 20
4.645996
 30
0.0
 10
94.329116
 20
4.645996
 30
0.0
 10
94.856798
 20
4.341275
 30
0.0
 10
95.142328
 20
3.846617
 30
0.0
  0
SPLINE
  5
103
100
AcDbEntity
  8
Layer_1
 62
7
100
AcDbSpline
 70
8
 71
3
 72
8
 73
4
 74
0
 40
0
 40
0
 40
0
 40
0
 40
1
 40
1
 40
1
 40
1
 10
95.142328
 20
3.846617
 30
0.0
 10
95.427858
 20
3.351959
 30
0.0
 10
95.427858
 20
2.742516
 30
0.0
 10
95.142328
 20
2.247859
 30
0.0
  0
SPLINE
  5
104
100
AcDbEntity
  8
Layer_1
 62
7
100
AcDbSpline
 70
8
 71
3
 72
8
 73
4
 74
0
 40
0
 40
0
 40
0
 40
0
 40
1
 40
1
 40
1
 40
1
 10
95.142328
 20
2.247859
 30
0.0
 10
94.856798
 20
1.753201
 30
0.0
 10
94.329116
 20
1.448479
 30
0.0
 10
93.758055
 20
1.448479
 30
0.0
  0
LWPOLYLINE
  5
105
100
AcDbEntity
  8
Layer_1
 62
7
100
AcDbPolyline
 90
3
 70
0
 10
0.050705
 20
0.049565
 30
0.0
 10
0.050705
 20
128.449841
 30
0.0
 10
101.250649
 20
128.449841
 30
0.0
  0
LWPOLYLINE
  5
106
100
AcDbEntity
  8
Layer_1
 62
7
100
AcDbPolyline
 90
2
 70
0
 10
93.758055
 20
4.645996
 30
0.0
 10
90.761019
 20
4.645996
 30
0.0
  0
SPLINE
  5
107
100
AcDbEntity
  8
Layer_1
 62
7
100
AcDbSpline
 70
8
 71
3
 72
8
 73
4
 74
0
 40
0
 40
0
 40
0
 40
0
 40
1
 40
1
 40
1
 40
1
 10
90.761019
 20
1.448479
 30
0.0
 10
90.189959
 20
1.448479
 30
0.0
 10
89.662277
 20
1.753201
 30
0.0
 10
89.376747
 20
2.247859
 30
0.0
  0
SPLINE
  5
108
100
AcDbEntity
  8
Layer_1
 62
7
100
AcDbSpline
 70
8
 71
3
 72
8
 73
4
 74
0
 40
0
 40
0
 40
0
 40
0
 40
1
 40
1
 40
1
 40
1
 10
89.376747
 20
2.247859
 30
0.0
 10
89.091217
 20
2.742516
 30
0.0
 10
89.091217
 20
3.351959
 30
0.0
 10
89.376747
 20
3.846617
 30
0.0
  0
SPLINE
  5
109
100
AcDbEntity
  8
Layer_1
 62
7
100
AcDbSpline
 70
8
 71
3
 72
8
 73
4
 74
0
 40
0
 40
0
 40
0
 40
0
 40
1
 40
1
 40
1
 40
1
 10
89.376747
 20
3.846617
 30
0.0
 10
89.662277
 20
4.341275
 30
0.0
 10
90.189959
 20
4.645996
 30
0.0
 10
90.761019
 20
4.645996
 30
0.0
  0
SPLINE
  5
10a
100
AcDbEntity
  8
Layer_1
 62
7
100
AcDbSpline
 70
8
 71
3
 72
8
 73
4
 74
0
 40
0
 40
0
 40
0
 40
0
 40
1
 40
1
 40
1
 40
1
 10
86.864871
 20
20.783463
 30
0.0
 10
86.864871
 20
21.943675
 30
0.0
 10
87.483705
 20
23.015755
 30
0.0
 10
88.488266
 20
23.595861
 30
0.0
  0
SPLINE
  5
10b
100
AcDbEntity
  8
Layer_1
 62
7
100
AcDbSpline
 70
8
 71
3
 72
8
 73
4
 74
0
 40
0
 40
0
 40
0
 40
0
 40
1
 40
1
 40
1
 40
1
 10
88.488266
 20
23.595861
 30
0.0
 10
89.492826
 20
24.175967
 30
0.0
 10
90.730496
 20
24.175967
 30
0.0
 10
91.735056
 20
23.595861
 30
0.0
  0
SPLINE
  5
10c
100
AcDbEntity
  8
Layer_1
 62
7
100
AcDbSpline
 70
8
 71
3
 72
8
 73
4
 74
0
 40
0
 40
0
 40
0
 40
0
 40
1
 40
1
 40
1
 40
1
 10
91.735056
 20
23.595861
 30
0.0
 10
92.739616
 20
23.015755
 30
0.0
 10
93.358451
 20
21.943675
 30
0.0
 10
93.358451
 20
20.783463
 30
0.0
  0
SPLINE
  5
10d
100
AcDbEntity
  8
Layer_1
 62
7
100
AcDbSpline
 70
8
 71
3
 72
8
 73
4
 74
0
 40
0
 40
0
 40
0
 40
0
 40
1
 40
1
 40
1
 40
1
 10
93.358451
 20
20.783463
 30
0.0
 10
93.358451
 20
19.623251
 30
0.0
 10
92.739616
 20
18.551171
 30
0.0
 10
91.735056
 20
17.971065
 30
0.0
  0
SPLINE
  5
10e
100
AcDbEntity
  8
Layer_1
 62
7
100
AcDbSpline
 70
8
 71
3
 72
8
 73
4
 74
0
 40
0
 40
0
 40
0
 40
0
 40
1
 40
1
 40
1
 40
1
 10
91.735056
 20
17.971065
 30
0.0
 10
90.730496
 20
17.390958
 30
0.0
 10
89.492826
 20
17.390958
 30
0.0
 10
88.488266
 20
17.971065
 30
0.0
  0
SPLINE
  5
10f
100
AcDbEntity
  8
Layer_1
 62
7
100
AcDbSpline
 70
8
 71
3
 72
8
 73
4
 74
0
 40
0
 40
0
 40
0
 40
0
 40
1
 40
1
 40
1
 40
1
 10
88.488266
 20
17.971065
 30
0.0
 10
87.483705
 20
18.551171
 30
0.0
 10
86.864871
 20
19.623251
 30
0.0
 10
86.864871
 20
20.783463
 30
0.0
  0
LWPOLYLINE
  5
110
100
AcDbEntity
  8
Layer_1
 62
7
100
AcDbPolyline
 90
2
 70
0
 10
93.758055
 20
1.448479
 30
0.0
 10
90.761019
 20
1.448479
 30
0.0
  0
SPLINE
  5
111
100
AcDbEntity
  8
Layer_1
 62
7
100
AcDbSpline
 70
8
 71
3
 72
8
 73
4
 74
0
 40
0
 40
0
 40
0
 40
0
 40
1
 40
1
 40
1
 40
1
 10
86.864871
 20
31.774925
 30
0.0
 10
86.864871
 20
32.935137
 30
0.0
 10
87.483705
 20
34.007218
 30
0.0
 10
88.488266
 20
34.587324
 30
0.0
  0
SPLINE
  5
112
100
AcDbEntity
  8
Layer_1
 62
7
100
AcDbSpline
 70
8
 71
3
 72
8
 73
4
 74
0
 40
0
 40
0
 40
0
 40
0
 40
1
 40
1
 40
1
 40
1
 10
88.488266
 20
34.587324
 30
0.0
 10
89.492826
 20
35.167430
 30
0.0
 10
90.730496
 20
35.167430
 30
0.0
 10
91.735056
 20
34.587324
 30
0.0
  0
SPLINE
  5
113
100
AcDbEntity
  8
Layer_1
 62
7
100
AcDbSpline
 70
8
 71
3
 72
8
 73
4
 74
0
 40
0
 40
0
 40
0
 40
0
 40
1
 40
1
 40
1
 40
1
 10
91.735056
 20
34.587324
 30
0.0
 10
92.739616
 20
34.007218
 30
0.0
 10
93.358451
 20
32.935137
 30
0.0
 10
93.358451
 20
31.774925
 30
0.0
  0
SPLINE
  5
114
100
AcDbEntity
  8
Layer_1
 62
7
100
AcDbSpline
 70
8
 71
3
 72
8
 73
4
 74
0
 40
0
 40
0
 40
0
 40
0
 40
1
 40
1
 40
1
 40
1
 10
93.358451
 20
31.774925
 30
0.0
 10
93.358451
 20
30.614713
 30
0.0
 10
92.739616
 20
29.542633
 30
0.0
 10
91.735056
 20
28.962527
 30
0.0
  0
SPLINE
  5
115
100
AcDbEntity
  8
Layer_1
 62
7
100
AcDbSpline
 70
8
 71
3
 72
8
 73
4
 74
0
 40
0
 40
0
 40
0
 40
0
 40
1
 40
1
 40
1
 40
1
 10
91.735056
 20
28.962527
 30
0.0
 10
90.730496
 20
28.382421
 30
0.0
 10
89.492826
 20
28.382421
 30
0.0
 10
88.488266
 20
28.962527
 30
0.0
  0
SPLINE
  5
116
100
AcDbEntity
  8
Layer_1
 62
7
100
AcDbSpline
 70
8
 71
3
 72
8
 73
4
 74
0
 40
0
 40
0
 40
0
 40
0
 40
1
 40
1
 40
1
 40
1
 10
88.488266
 20
28.962527
 30
0.0
 10
87.483705
 20
29.542633
 30
0.0
 10
86.864871
 20
30.614713
 30
0.0
 10
86.864871
 20
31.774925
 30
0.0
  0
LWPOLYLINE
  5
117
100
AcDbEntity
  8
Layer_1
 62
7
100
AcDbPolyline
 90
1
 70
1
 10
86.864871
 20
20.783463
 30
0.0
  0
SPLINE
  5
118
100
AcDbEntity
  8
Layer_1
 62
7
100
AcDbSpline
 70
8
 71
3
 72
8
 73
4
 74
0
 40
0
 40
0
 40
0
 40
0
 40
1
 40
1
 40
1
 40
1
 10
81.470204
 20
20.783463
 30
0.0
 10
81.470204
 20
21.336795
 30
0.0
 10
81.765341
 20
21.848095
 30
0.0
 10
82.244439
 20
22.124761
 30
0.0
  0
SPLINE
  5
119
100
AcDbEntity
  8
Layer_1
 62
7
100
AcDbSpline
 70
8
 71
3
 72
8
 73
4
 74
0
 40
0
 40
0
 40
0
 40
0
 40
1
 40
1
 40
1
 40
1
 10
82.244439
 20
22.124761
 30
0.0
 10
82.723537
 20
22.401427
 30
0.0
 10
83.313810
 20
22.401427
 30
0.0
 10
83.792909
 20
22.124761
 30
0.0
  0
SPLINE
  5
11a
100
AcDbEntity
  8
Layer_1
 62
7
100
AcDbSpline
 70
8
 71
3
 72
8
 73
4
 74
0
 40
0
 40
0
 40
0
 40
0
 40
1
 40
1
 40
1
 40
1
 10
83.792909
 20
22.124761
 30
0.0
 10
84.272007
 20
21.848095
 30
0.0
 10
84.567143
 20
21.336795
 30
0.0
 10
84.567143
 20
20.783463
 30
0.0
  0
SPLINE
  5
11b
100
AcDbEntity
  8
Layer_1
 62
7
100
AcDbSpline
 70
8
 71
3
 72
8
 73
4
 74
0
 40
0
 40
0
 40
0
 40
0
 40
1
 40
1
 40
1
 40
1
 10
84.567143
 20
20.783463
 30
0.0
 10
84.567143
 20
20.230131
 30
0.0
 10
84.272007
 20
19.718831
 30
0.0
 10
83.792909
 20
19.442165
 30
0.0
  0
SPLINE
  5
11c
100
AcDbEntity
  8
Layer_1
 62
7
100
AcDbSpline
 70
8
 71
3
 72
8
 73
4
 74
0
 40
0
 40
0
 40
0
 40
0
 40
1
 40
1
 40
1
 40
1
 10
83.792909
 20
19.442165
 30
0.0
 10
83.313810
 20
19.165499
 30
0.0
 10
82.723537
 20
19.165499
 30
0.0
 10
82.244439
 20
19.442165
 30
0.0
  0
SPLINE
  5
11d
100
AcDbEntity
  8
Layer_1
 62
7
100
AcDbSpline
 70
8
 71
3
 72
8
 73
4
 74
0
 40
0
 40
0
 40
0
 40
0
 40
1
 40
1
 40
1
 40
1
 10
82.244439
 20
19.442165
 30
0.0
 10
81.765341
 20
19.718831
 30
0.0
 10
81.470204
 20
20.230131
 30
0.0
 10
81.470204
 20
20.783463
 30
0.0
  0
LWPOLYLINE
  5
11e
100
AcDbEntity
  8
Layer_1
 62
7
100
AcDbPolyline
 90
1
 70
1
 10
86.864871
 20
31.774925
 30
0.0
  0
SPLINE
  5
11f
100
AcDbEntity
  8
Layer_1
 62
7
100
AcDbSpline
 70
8
 71
3
 72
8
 73
4
 74
0
 40
0
 40
0
 40
0
 40
0
 40
1
 40
1
 40
1
 40
1
 10
81.470204
 20
31.774925
 30
0.0
 10
81.470204
 20
32.328257
 30
0.0
 10
81.765341
 20
32.839557
 30
0.0
 10
82.244439
 20
33.116224
 30
0.0
  0
SPLINE
  5
120
100
AcDbEntity
  8
Layer_1
 62
7
100
AcDbSpline
 70
8
 71
3
 72
8
 73
4
 74
0
 40
0
 40
0
 40
0
 40
0
 40
1
 40
1
 40
1
 40
1
 10
82.244439
 20
33.116224
 30
0.0
 10
82.723537
 20
33.392890
 30
0.0
 10
83.313810
 20
33.392890
 30
0.0
 10
83.792909
 20
33.116224
 30
0.0
  0
SPLINE
  5
121
100
AcDbEntity
  8
Layer_1
 62
7
100
AcDbSpline
 70
8
 71
3
 72
8
 73
4
 74
0
 40
0
 40
0
 40
0
 40
0
 40
1
 40
1
 40
1
 40
1
 10
83.792909
 20
33.116224
 30
0.0
 10
84.272007
 20
32.839557
 30
0.0
 10
84.567143
 20
32.328257
 30
0.0
 10
84.567143
 20
31.774925
 30
0.0
  0
SPLINE
  5
122
100
AcDbEntity
  8
Layer_1
 62
7
100
AcDbSpline
 70
8
 71
3
 72
8
 73
4
 74
0
 40
0
 40
0
 40
0
 40
0
 40
1
 40
1
 40
1
 40
1
 10
84.567143
 20
31.774925
 30
0.0
 10
84.567143
 20
31.221593
 30
0.0
 10
84.272007
 20
30.710293
 30
0.0
 10
83.792909
 20
30.433627
 30
0.0
  0
SPLINE
  5
123
100
AcDbEntity
  8
Layer_1
 62
7
100
AcDbSpline
 70
8
 71
3
 72
8
 73
4
 74
0
 40
0
 40
0
 40
0
 40
0
 40
1
 40
1
 40
1
 40
1
 10
83.792909
 20
30.433627
 30
0.0
 10
83.313810
 20
30.156961
 30
0.0
 10
82.723537
 20
30.156961
 30
0.0
 10
82.244439
 20
30.433627
 30
0.0
  0
SPLINE
  5
124
100
AcDbEntity
  8
Layer_1
 62
7
100
AcDbSpline
 70
8
 71
3
 72
8
 73
4
 74
0
 40
0
 40
0
 40
0
 40
0
 40
1
 40
1
 40
1
 40
1
 10
82.244439
 20
30.433627
 30
0.0
 10
81.765341
 20
30.710293
 30
0.0
 10
81.470204
 20
31.221593
 30
0.0
 10
81.470204
 20
31.774925
 30
0.0
  0
LWPOLYLINE
  5
125
100
AcDbEntity
  8
Layer_1
 62
7
100
AcDbPolyline
 90
1
 70
1
 10
81.470204
 20
20.783463
 30
0.0
  0
SPLINE
  5
126
100
AcDbEntity
  8
Layer_1
 62
7
100
AcDbSpline
 70
8
 71
3
 72
8
 73
4
 74
0
 40
0
 40
0
 40
0
 40
0
 40
1
 40
1
 40
1
 40
1
 10
86.864871
 20
42.766390
 30
0.0
 10
86.864871
 20
43.926603
 30
0.0
 10
87.483705
 20
44.998683
 30
0.0
 10
88.488266
 20
45.578789
 30
0.0
  0
SPLINE
  5
127
100
AcDbEntity
  8
Layer_1
 62
7
100
AcDbSpline
 70
8
 71
3
 72
8
 73
4
 74
0
 40
0
 40
0
 40
0
 40
0
 40
1
 40
1
 40
1
 40
1
 10
88.488266
 20
45.578789
 30
0.0
 10
89.492826
 20
46.158895
 30
0.0
 10
90.730496
 20
46.158895
 30
0.0
 10
91.735056
 20
45.578789
 30
0.0
  0
SPLINE
  5
128
100
AcDbEntity
  8
Layer_1
 62
7
100
AcDbSpline
 70
8
 71
3
 72
8
 73
4
 74
0
 40
0
 40
0
 40
0
 40
0
 40
1
 40
1
 40
1
 40
1
 10
91.735056
 20
45.578789
 30
0.0
 10
92.739616
 20
44.998683
 30
0.0
 10
93.358451
 20
43.926603
 30
0.0
 10
93.358451
 20
42.766390
 30
0.0
  0
SPLINE
  5
129
100
AcDbEntity
  8
Layer_1
 62
7
100
AcDbSpline
 70
8
 71
3
 72
8
 73
4
 74
0
 40
0
 40
0
 40
0
 40
0
 40
1
 40
1
 40
1
 40
1
 10
93.358451
 20
42.766390
 30
0.0
 10
93.358451
 20
41.606178
 30
0.0
 10
92.739616
 20
40.534098
 30
0.0
 10
91.735056
 20
39.953992
 30
0.0
  0
SPLINE
  5
12a
100
AcDbEntity
  8
Layer_1
 62
7
100
AcDbSpline
 70
8
 71
3
 72
8
 73
4
 74
0
 40
0
 40
0
 40
0
 40
0
 40
1
 40
1
 40
1
 40
1
 10
91.735056
 20
39.953992
 30
0.0
 10
90.730496
 20
39.373886
 30
0.0
 10
89.492826
 20
39.373886
 30
0.0
 10
88.488266
 20
39.953992
 30
0.0
  0
SPLINE
  5
12b
100
AcDbEntity
  8
Layer_1
 62
7
100
AcDbSpline
 70
8
 71
3
 72
8
 73
4
 74
0
 40
0
 40
0
 40
0
 40
0
 40
1
 40
1
 40
1
 40
1
 10
88.488266
 20
39.953992
 30
0.0
 10
87.483705
 20
40.534098
 30
0.0
 10
86.864871
 20
41.606178
 30
0.0
 10
86.864871
 20
42.766390
 30
0.0
  0
LWPOLYLINE
  5
12c
100
AcDbEntity
  8
Layer_1
 62
7
100
AcDbPolyline
 90
1
 70
1
 10
81.470204
 20
31.774925
 30
0.0
  0
SPLINE
  5
12d
100
AcDbEntity
  8
Layer_1
 62
7
100
AcDbSpline
 70
8
 71
3
 72
8
 73
4
 74
0
 40
0
 40
0
 40
0
 40
0
 40
1
 40
1
 40
1
 40
1
 10
81.470204
 20
42.766390
 30
0.0
 10
81.470204
 20
43.319723
 30
0.0
 10
81.765341
 20
43.831023
 30
0.0
 10
82.244439
 20
44.107689
 30
0.0
  0
SPLINE
  5
12e
100
AcDbEntity
  8
Layer_1
 62
7
100
AcDbSpline
 70
8
 71
3
 72
8
 73
4
 74
0
 40
0
 40
0
 40
0
 40
0
 40
1
 40
1
 40
1
 40
1
 10
82.244439
 20
44.107689
 30
0.0
 10
82.723537
 20
44.384355
 30
0.0
 10
83.313810
 20
44.384355
 30
0.0
 10
83.792909
 20
44.107689
 30
0.0
  0
SPLINE
  5
12f
100
AcDbEntity
  8
Layer_1
 62
7
100
AcDbSpline
 70
8
 71
3
 72
8
 73
4
 74
0
 40
0
 40
0
 40
0
 40
0
 40
1
 40
1
 40
1
 40
1
 10
83.792909
 20
44.107689
 30
0.0
 10
84.272007
 20
43.831023
 30
0.0
 10
84.567143
 20
43.319723
 30
0.0
 10
84.567143
 20
42.766390
 30
0.0
  0
SPLINE
  5
130
100
AcDbEntity
  8
Layer_1
 62
7
100
AcDbSpline
 70
8
 71
3
 72
8
 73
4
 74
0
 40
0
 40
0
 40
0
 40
0
 40
1
 40
1
 40
1
 40
1
 10
84.567143
 20
42.766390
 30
0.0
 10
84.567143
 20
42.213058
 30
0.0
 10
84.272007
 20
41.701758
 30
0.0
 10
83.792909
 20
41.425092
 30
0.0
  0
SPLINE
  5
131
100
AcDbEntity
  8
Layer_1
 62
7
100
AcDbSpline
 70
8
 71
3
 72
8
 73
4
 74
0
 40
0
 40
0
 40
0
 40
0
 40
1
 40
1
 40
1
 40
1
 10
83.792909
 20
41.425092
 30
0.0
 10
83.313810
 20
41.148426
 30
0.0
 10
82.723537
 20
41.148426
 30
0.0
 10
82.244439
 20
41.425092
 30
0.0
  0
SPLINE
  5
132
100
AcDbEntity
  8
Layer_1
 62
7
100
AcDbSpline
 70
8
 71
3
 72
8
 73
4
 74
0
 40
0
 40
0
 40
0
 40
0
 40
1
 40
1
 40
1
 40
1
 10
82.244439
 20
41.425092
 30
0.0
 10
81.765341
 20
41.701758
 30
0.0
 10
81.470204
 20
42.213058
 30
0.0
 10
81.470204
 20
42.766390
 30
0.0
  0
LWPOLYLINE
  5
133
100
AcDbEntity
  8
Layer_1
 62
7
100
AcDbPolyline
 90
1
 70
1
 10
86.864871
 20
42.766390
 30
0.0
  0
SPLINE
  5
134
100
AcDbEntity
  8
Layer_1
 62
7
100
AcDbSpline
 70
8
 71
3
 72
8
 73
4
 74
0
 40
0
 40
0
 40
0
 40
0
 40
1
 40
1
 40
1
 40
1
 10
86.864871
 20
53.757853
 30
0.0
 10
86.864871
 20
54.918065
 30
0.0
 10
87.483705
 20
55.990145
 30
0.0
 10
88.488266
 20
56.570251
 30
0.0
  0
SPLINE
  5
135
100
AcDbEntity
  8
Layer_1
 62
7
100
AcDbSpline
 70
8
 71
3
 72
8
 73
4
 74
0
 40
0
 40
0
 40
0
 40
0
 40
1
 40
1
 40
1
 40
1
 10
88.488266
 20
56.570251
 30
0.0
 10
89.492826
 20
57.150357
 30
0.0
 10
90.730496
 20
57.150357
 30
0.0
 10
91.735056
 20
56.570251
 30
0.0
  0
SPLINE
  5
136
100
AcDbEntity
  8
Layer_1
 62
7
100
AcDbSpline
 70
8
 71
3
 72
8
 73
4
 74
0
 40
0
 40
0
 40
0
 40
0
 40
1
 40
1
 40
1
 40
1
 10
91.735056
 20
56.570251
 30
0.0
 10
92.739616
 20
55.990145
 30
0.0
 10
93.358451
 20
54.918065
 30
0.0
 10
93.358451
 20
53.757853
 30
0.0
  0
SPLINE
  5
137
100
AcDbEntity
  8
Layer_1
 62
7
100
AcDbSpline
 70
8
 71
3
 72
8
 73
4
 74
0
 40
0
 40
0
 40
0
 40
0
 40
1
 40
1
 40
1
 40
1
 10
93.358451
 20
53.757853
 30
0.0
 10
93.358451
 20
52.597641
 30
0.0
 10
92.739616
 20
51.525561
 30
0.0
 10
91.735056
 20
50.945455
 30
0.0
  0
SPLINE
  5
138
100
AcDbEntity
  8
Layer_1
 62
7
100
AcDbSpline
 70
8
 71
3
 72
8
 73
4
 74
0
 40
0
 40
0
 40
0
 40
0
 40
1
 40
1
 40
1
 40
1
 10
91.735056
 20
50.945455
 30
0.0
 10
90.730496
 20
50.365349
 30
0.0
 10
89.492826
 20
50.365349
 30
0.0
 10
88.488266
 20
50.945455
 30
0.0
  0
SPLINE
  5
139
100
AcDbEntity
  8
Layer_1
 62
7
100
AcDbSpline
 70
8
 71
3
 72
8
 73
4
 74
0
 40
0
 40
0
 40
0
 40
0
 40
1
 40
1
 40
1
 40
1
 10
88.488266
 20
50.945455
 30
0.0
 10
87.483705
 20
51.525561
 30
0.0
 10
86.864871
 20
52.597641
 30
0.0
 10
86.864871
 20
53.757853
 30
0.0
  0
LWPOLYLINE
  5
13a
100
AcDbEntity
  8
Layer_1
 62
7
100
AcDbPolyline
 90
1
 70
1
 10
81.470204
 20
42.766390
 30
0.0
  0
SPLINE
  5
13b
100
AcDbEntity
  8
Layer_1
 62
7
100
AcDbSpline
 70
8
 71
3
 72
8
 73
4
 74
0
 40
0
 40
0
 40
0
 40
0
 40
1
 40
1
 40
1
 40
1
 10
81.470204
 20
53.757853
 30
0.0
 10
81.470204
 20
54.311185
 30
0.0
 10
81.765341
 20
54.822485
 30
0.0
 10
82.244439
 20
55.099151
 30
0.0
  0
SPLINE
  5
13c
100
AcDbEntity
  8
Layer_1
 62
7
100
AcDbSpline
 70
8
 71
3
 72
8
 73
4
 74
0
 40
0
 40
0
 40
0
 40
0
 40
1
 40
1
 40
1
 40
1
 10
82.244439
 20
55.099151
 30
0.0
 10
82.723537
 20
55.375817
 30
0.0
 10
83.313810
 20
55.375817
 30
0.0
 10
83.792909
 20
55.099151
 30
0.0
  0
SPLINE
  5
13d
100
AcDbEntity
  8
Layer_1
 62
7
100
AcDbSpline
 70
8
 71
3
 72
8
 73
4
 74
0
 40
0
 40
0
 40
0
 40
0
 40
1
 40
1
 40
1
 40
1
 10
83.792909
 20
55.099151
 30
0.0
 10
84.272007
 20
54.822485
 30
0.0
 10
84.567143
 20
54.311185
 30
0.0
 10
84.567143
 20
53.757853
 30
0.0
  0
SPLINE
  5
13e
100
AcDbEntity
  8
Layer_1
 62
7
100
AcDbSpline
 70
8
 71
3
 72
8
 73
4
 74
0
 40
0
 40
0
 40
0
 40
0
 40
1
 40
1
 40
1
 40
1
 10
84.567143
 20
53.757853
 30
0.0
 10
84.567143
 20
53.204521
 30
0.0
 10
84.272007
 20
52.693221
 30
0.0
 10
83.792909
 20
52.416555
 30
0.0
  0
SPLINE
  5
13f
100
AcDbEntity
  8
Layer_1
 62
7
100
AcDbSpline
 70
8
 71
3
 72
8
 73
4
 74
0
 40
0
 40
0
 40
0
 40
0
 40
1
 40
1
 40
1
 40
1
 10
83.792909
 20
52.416555
 30
0.0
 10
83.313810
 20
52.139889
 30
0.0
 10
82.723537
 20
52.139889
 30
0.0
 10
82.244439
 20
52.416555
 30
0.0
  0
SPLINE
  5
140
100
AcDbEntity
  8
Layer_1
 62
7
100
AcDbSpline
 70
8
 71
3
 72
8
 73
4
 74
0
 40
0
 40
0
 40
0
 40
0
 40
1
 40
1
 40
1
 40
1
 10
82.244439
 20
52.416555
 30
0.0
 10
81.765341
 20
52.693221
 30
0.0
 10
81.470204
 20
53.204521
 30
0.0
 10
81.470204
 20
53.757853
 30
0.0
  0
LWPOLYLINE
  5
141
100
AcDbEntity
  8
Layer_1
 62
7
100
AcDbPolyline
 90
1
 70
1
 10
86.864871
 20
53.757853
 30
0.0
  0
SPLINE
  5
142
100
AcDbEntity
  8
Layer_1
 62
7
100
AcDbSpline
 70
8
 71
3
 72
8
 73
4
 74
0
 40
0
 40
0
 40
0
 40
0
 40
1
 40
1
 40
1
 40
1
 10
10.540334
 20
4.645996
 30
0.0
 10
11.111394
 20
4.645996
 30
0.0
 10
11.639076
 20
4.341275
 30
0.0
 10
11.924606
 20
3.846617
 30
0.0
  0
SPLINE
  5
143
100
AcDbEntity
  8
Layer_1
 62
7
100
AcDbSpline
 70
8
 71
3
 72
8
 73
4
 74
0
 40
0
 40
0
 40
0
 40
0
 40
1
 40
1
 40
1
 40
1
 10
11.924606
 20
3.846617
 30
0.0
 10
12.210136
 20
3.351959
 30
0.0
 10
12.210136
 20
2.742516
 30
0.0
 10
11.924606
 20
2.247859
 30
0.0
  0
SPLINE
  5
144
100
AcDbEntity
  8
Layer_1
 62
7
100
AcDbSpline
 70
8
 71
3
 72
8
 73
4
 74
0
 40
0
 40
0
 40
0
 40
0
 40
1
 40
1
 40
1
 40
1
 10
11.924606
 20
2.247859
 30
0.0
 10
11.639076
 20
1.753201
 30
0.0
 10
11.111394
 20
1.448479
 30
0.0
 10
10.540334
 20
1.448479
 30
0.0
  0
LWPOLYLINE
  5
145
100
AcDbEntity
  8
Layer_1
 62
7
100
AcDbPolyline
 90
1
 70
1
 10
81.470204
 20
53.757853
 30
0.0
  0
LWPOLYLINE
  5
146
100
AcDbEntity
  8
Layer_1
 62
7
100
AcDbPolyline
 90
2
 70
0
 10
10.540334
 20
4.645996
 30
0.0
 10
7.543295
 20
4.645996
 30
0.0
  0
SPLINE
  5
147
100
AcDbEntity
  8
Layer_1
 62
7
100
AcDbSpline
 70
8
 71
3
 72
8
 73
4
 74
0
 40
0
 40
0
 40
0
 40
0
 40
1
 40
1
 40
1
 40
1
 10
7.543295
 20
1.448479
 30
0.0
 10
6.972235
 20
1.448479
 30
0.0
 10
6.444553
 20
1.753201
 30
0.0
 10
6.159023
 20
2.247859
 30
0.0
  0
SPLINE
  5
148
100
AcDbEntity
  8
Layer_1
 62
7
100
AcDbSpline
 70
8
 71
3
 72
8
 73
4
 74
0
 40
0
 40
0
 40
0
 40
0
 40
1
 40
1
 40
1
 40
1
 10
6.159023
 20
2.247859
 30
0.0
 10
5.873493
 20
2.742516
 30
0.0
 10
5.873493
 20
3.351959
 30
0.0
 10
6.159023
 20
3.846617
 30
0.0
  0
SPLINE
  5
149
100
AcDbEntity
  8
Layer_1
 62
7
100
AcDbSpline
 70
8
 71
3
 72
8
 73
4
 74
0
 40
0
 40
0
 40
0
 40
0
 40
1
 40
1
 40
1
 40
1
 10
6.159023
 20
3.846617
 30
0.0
 10
6.444553
 20
4.341275
 30
0.0
 10
6.972235
 20
4.645996
 30
0.0
 10
7.543295
 20
4.645996
 30
0.0
  0
SPLINE
  5
14a
100
AcDbEntity
  8
Layer_1
 62
7
100
AcDbSpline
 70
8
 71
3
 72
8
 73
4
 74
0
 40
0
 40
0
 40
0
 40
0
 40
1
 40
1
 40
1
 40
1
 10
7.443394
 20
20.783463
 30
0.0
 10
7.443394
 20
21.943675
 30
0.0
 10
8.062229
 20
23.015755
 30
0.0
 10
9.066789
 20
23.595861
 30
0.0
  0
SPLINE
  5
14b
100
AcDbEntity
  8
Layer_1
 62
7
100
AcDbSpline
 70
8
 71
3
 72
8
 73
4
 74
0
 40
0
 40
0
 40
0
 40
0
 40
1
 40
1
 40
1
 40
1
 10
9.066789
 20
23.595861
 30
0.0
 10
10.071350
 20
24.175968
 30
0.0
 10
11.309019
 20
24.175968
 30
0.0
 10
12.313580
 20
23.595861
 30
0.0
  0
SPLINE
  5
14c
100
AcDbEntity
  8
Layer_1
 62
7
100
AcDbSpline
 70
8
 71
3
 72
8
 73
4
 74
0
 40
0
 40
0
 40
0
 40
0
 40
1
 40
1
 40
1
 40
1
 10
12.313580
 20
23.595861
 30
0.0
 10
13.318140
 20
23.015755
 30
0.0
 10
13.936975
 20
21.943675
 30
0.0
 10
13.936975
 20
20.783463
 30
0.0
  0
SPLINE
  5
14d
100
AcDbEntity
  8
Layer_1
 62
7
100
AcDbSpline
 70
8
 71
3
 72
8
 73
4
 74
0
 40
0
 40
0
 40
0
 40
0
 40
1
 40
1
 40
1
 40
1
 10
13.936975
 20
20.783463
 30
0.0
 10
13.936975
 20
19.623251
 30
0.0
 10
13.318140
 20
18.551170
 30
0.0
 10
12.313580
 20
17.971064
 30
0.0
  0
SPLINE
  5
14e
100
AcDbEntity
  8
Layer_1
 62
7
100
AcDbSpline
 70
8
 71
3
 72
8
 73
4
 74
0
 40
0
 40
0
 40
0
 40
0
 40
1
 40
1
 40
1
 40
1
 10
12.313580
 20
17.971064
 30
0.0
 10
11.309019
 20
17.390958
 30
0.0
 10
10.071350
 20
17.390958
 30
0.0
 10
9.066789
 20
17.971064
 30
0.0
  0
SPLINE
  5
14f
100
AcDbEntity
  8
Layer_1
 62
7
100
AcDbSpline
 70
8
 71
3
 72
8
 73
4
 74
0
 40
0
 40
0
 40
0
 40
0
 40
1
 40
1
 40
1
 40
1
 10
9.066789
 20
17.971064
 30
0.0
 10
8.062229
 20
18.551170
 30
0.0
 10
7.443394
 20
19.623251
 30
0.0
 10
7.443394
 20
20.783463
 30
0.0
  0
LWPOLYLINE
  5
150
100
AcDbEntity
  8
Layer_1
 62
7
100
AcDbPolyline
 90
2
 70
0
 10
10.540334
 20
1.448479
 30
0.0
 10
7.543295
 20
1.448479
 30
0.0
  0
SPLINE
  5
151
100
AcDbEntity
  8
Layer_1
 62
7
100
AcDbSpline
 70
8
 71
3
 72
8
 73
4
 74
0
 40
0
 40
0
 40
0
 40
0
 40
1
 40
1
 40
1
 40
1
 10
7.443394
 20
31.774925
 30
0.0
 10
7.443394
 20
32.935138
 30
0.0
 10
8.062229
 20
34.007218
 30
0.0
 10
9.066789
 20
34.587324
 30
0.0
  0
SPLINE
  5
152
100
AcDbEntity
  8
Layer_1
 62
7
100
AcDbSpline
 70
8
 71
3
 72
8
 73
4
 74
0
 40
0
 40
0
 40
0
 40
0
 40
1
 40
1
 40
1
 40
1
 10
9.066789
 20
34.587324
 30
0.0
 10
10.071350
 20
35.167430
 30
0.0
 10
11.309019
 20
35.167430
 30
0.0
 10
12.313580
 20
34.587324
 30
0.0
  0
SPLINE
  5
153
100
AcDbEntity
  8
Layer_1
 62
7
100
AcDbSpline
 70
8
 71
3
 72
8
 73
4
 74
0
 40
0
 40
0
 40
0
 40
0
 40
1
 40
1
 40
1
 40
1
 10
12.313580
 20
34.587324
 30
0.0
 10
13.318140
 20
34.007218
 30
0.0
 10
13.936975
 20
32.935138
 30
0.0
 10
13.936975
 20
31.774925
 30
0.0
  0
SPLINE
  5
154
100
AcDbEntity
  8
Layer_1
 62
7
100
AcDbSpline
 70
8
 71
3
 72
8
 73
4
 74
0
 40
0
 40
0
 40
0
 40
0
 40
1
 40
1
 40
1
 40
1
 10
13.936975
 20
31.774925
 30
0.0
 10
13.936975
 20
30.614713
 30
0.0
 10
13.318140
 20
29.542633
 30
0.0
 10
12.313580
 20
28.962527
 30
0.0
  0
SPLINE
  5
155
100
AcDbEntity
  8
Layer_1
 62
7
100
AcDbSpline
 70
8
 71
3
 72
8
 73
4
 74
0
 40
0
 40
0
 40
0
 40
0
 40
1
 40
1
 40
1
 40
1
 10
12.313580
 20
28.962527
 30
0.0
 10
11.309019
 20
28.382421
 30
0.0
 10
10.071350
 20
28.382421
 30
0.0
 10
9.066789
 20
28.962527
 30
0.0
  0
SPLINE
  5
156
100
AcDbEntity
  8
Layer_1
 62
7
100
AcDbSpline
 70
8
 71
3
 72
8
 73
4
 74
0
 40
0
 40
0
 40
0
 40
0
 40
1
 40
1
 40
1
 40
1
 10
9.066789
 20
28.962527
 30
0.0
 10
8.062229
 20
29.542633
 30
0.0
 10
7.443394
 20
30.614713
 30
0.0
 10
7.443394
 20
31.774925
 30
0.0
  0
LWPOLYLINE
  5
157
100
AcDbEntity
  8
Layer_1
 62
7
100
AcDbPolyline
 90
1
 70
1
 10
7.443394
 20
20.783463
 30
0.0
  0
SPLINE
  5
158
100
AcDbEntity
  8
Layer_1
 62
7
100
AcDbSpline
 70
8
 71
3
 72
8
 73
4
 74
0
 40
0
 40
0
 40
0
 40
0
 40
1
 40
1
 40
1
 40
1
 10
7.443394
 20
42.766390
 30
0.0
 10
7.443394
 20
43.926603
 30
0.0
 10
8.062229
 20
44.998683
 30
0.0
 10
9.066789
 20
45.578789
 30
0.0
  0
SPLINE
  5
159
100
AcDbEntity
  8
Layer_1
 62
7
100
AcDbSpline
 70
8
 71
3
 72
8
 73
4
 74
0
 40
0
 40
0
 40
0
 40
0
 40
1
 40
1
 40
1
 40
1
 10
9.066789
 20
45.578789
 30
0.0
 10
10.071350
 20
46.158895
 30
0.0
 10
11.309019
 20
46.158895
 30
0.0
 10
12.313580
 20
45.578789
 30
0.0
  0
SPLINE
  5
15a
100
AcDbEntity
  8
Layer_1
 62
7
100
AcDbSpline
 70
8
 71
3
 72
8
 73
4
 74
0
 40
0
 40
0
 40
0
 40
0
 40
1
 40
1
 40
1
 40
1
 10
12.313580
 20
45.578789
 30
0.0
 10
13.318140
 20
44.998683
 30
0.0
 10
13.936975
 20
43.926603
 30
0.0
 10
13.936975
 20
42.766390
 30
0.0
  0
SPLINE
  5
15b
100
AcDbEntity
  8
Layer_1
 62
7
100
AcDbSpline
 70
8
 71
3
 72
8
 73
4
 74
0
 40
0
 40
0
 40
0
 40
0
 40
1
 40
1
 40
1
 40
1
 10
13.936975
 20
42.766390
 30
0.0
 10
13.936975
 20
41.606178
 30
0.0
 10
13.318140
 20
40.534098
 30
0.0
 10
12.313580
 20
39.953992
 30
0.0
  0
SPLINE
  5
15c
100
AcDbEntity
  8
Layer_1
 62
7
100
AcDbSpline
 70
8
 71
3
 72
8
 73
4
 74
0
 40
0
 40
0
 40
0
 40
0
 40
1
 40
1
 40
1
 40
1
 10
12.313580
 20
39.953992
 30
0.0
 10
11.309019
 20
39.373886
 30
0.0
 10
10.071350
 20
39.373886
 30
0.0
 10
9.066789
 20
39.953992
 30
0.0
  0
SPLINE
  5
15d
100
AcDbEntity
  8
Layer_1
 62
7
100
AcDbSpline
 70
8
 71
3
 72
8
 73
4
 74
0
 40
0
 40
0
 40
0
 40
0
 40
1
 40
1
 40
1
 40
1
 10
9.066789
 20
39.953992
 30
0.0
 10
8.062229
 20
40.534098
 30
0.0
 10
7.443394
 20
41.606178
 30
0.0
 10
7.443394
 20
42.766390
 30
0.0
  0
LWPOLYLINE
  5
15e
100
AcDbEntity
  8
Layer_1
 62
7
100
AcDbPolyline
 90
1
 70
1
 10
7.443394
 20
31.774925
 30
0.0
  0
SPLINE
  5
15f
100
AcDbEntity
  8
Layer_1
 62
7
100
AcDbSpline
 70
8
 71
3
 72
8
 73
4
 74
0
 40
0
 40
0
 40
0
 40
0
 40
1
 40
1
 40
1
 40
1
 10
7.443394
 20
53.757853
 30
0.0
 10
7.443394
 20
54.918065
 30
0.0
 10
8.062229
 20
55.990145
 30
0.0
 10
9.066789
 20
56.570252
 30
0.0
  0
SPLINE
  5
160
100
AcDbEntity
  8
Layer_1
 62
7
100
AcDbSpline
 70
8
 71
3
 72
8
 73
4
 74
0
 40
0
 40
0
 40
0
 40
0
 40
1
 40
1
 40
1
 40
1
 10
9.066789
 20
56.570252
 30
0.0
 10
10.071350
 20
57.150358
 30
0.0
 10
11.309019
 20
57.150358
 30
0.0
 10
12.313580
 20
56.570252
 30
0.0
  0
SPLINE
  5
161
100
AcDbEntity
  8
Layer_1
 62
7
100
AcDbSpline
 70
8
 71
3
 72
8
 73
4
 74
0
 40
0
 40
0
 40
0
 40
0
 40
1
 40
1
 40
1
 40
1
 10
12.313580
 20
56.570252
 30
0.0
 10
13.318140
 20
55.990145
 30
0.0
 10
13.936975
 20
54.918065
 30
0.0
 10
13.936975
 20
53.757853
 30
0.0
  0
SPLINE
  5
162
100
AcDbEntity
  8
Layer_1
 62
7
100
AcDbSpline
 70
8
 71
3
 72
8
 73
4
 74
0
 40
0
 40
0
 40
0
 40
0
 40
1
 40
1
 40
1
 40
1
 10
13.936975
 20
53.757853
 30
0.0
 10
13.936975
 20
52.597641
 30
0.0
 10
13.318140
 20
51.525560
 30
0.0
 10
12.313580
 20
50.945454
 30
0.0
  0
SPLINE
  5
163
100
AcDbEntity
  8
Layer_1
 62
7
100
AcDbSpline
 70
8
 71
3
 72
8
 73
4
 74
0
 40
0
 40
0
 40
0
 40
0
 40
1
 40
1
 40
1
 40
1
 10
12.313580
 20
50.945454
 30
0.0
 10
11.309019
 20
50.365348
 30
0.0
 10
10.071350
 20
50.365348
 30
0.0
 10
9.066789
 20
50.945454
 30
0.0
  0
SPLINE
  5
164
100
AcDbEntity
  8
Layer_1
 62
7
100
AcDbSpline
 70
8
 71
3
 72
8
 73
4
 74
0
 40
0
 40
0
 40
0
 40
0
 40
1
 40
1
 40
1
 40
1
 10
9.066789
 20
50.945454
 30
0.0
 10
8.062229
 20
51.525560
 30
0.0
 10
7.443394
 20
52.597641
 30
0.0
 10
7.443394
 20
53.757853
 30
0.0
  0
LWPOLYLINE
  5
165
100
AcDbEntity
  8
Layer_1
 62
7
100
AcDbPolyline
 90
1
 70
1
 10
7.443394
 20
42.766390
 30
0.0
  0
SPLINE
  5
166
100
AcDbEntity
  8
Layer_1
 62
7
100
AcDbSpline
 70
8
 71
3
 72
8
 73
4
 74
0
 40
0
 40
0
 40
0
 40
0
 40
1
 40
1
 40
1
 40
1
 10
8.392456
 20
63.650169
 30
0.0
 10
8.392456
 20
64.899629
 30
0.0
 10
9.058893
 20
66.054177
 30
0.0
 10
10.140728
 20
66.678907
 30
0.0
  0
SPLINE
  5
167
100
AcDbEntity
  8
Layer_1
 62
7
100
AcDbSpline
 70
8
 71
3
 72
8
 73
4
 74
0
 40
0
 40
0
 40
0
 40
0
 40
1
 40
1
 40
1
 40
1
 10
10.140728
 20
66.678907
 30
0.0
 10
11.222562
 20
67.303636
 30
0.0
 10
12.555437
 20
67.303636
 30
0.0
 10
13.637272
 20
66.678907
 30
0.0
  0
SPLINE
  5
168
100
AcDbEntity
  8
Layer_1
 62
7
100
AcDbSpline
 70
8
 71
3
 72
8
 73
4
 74
0
 40
0
 40
0
 40
0
 40
0
 40
1
 40
1
 40
1
 40
1
 10
13.637272
 20
66.678907
 30
0.0
 10
14.719106
 20
66.054177
 30
0.0
 10
15.385544
 20
64.899629
 30
0.0
 10
15.385544
 20
63.650169
 30
0.0
  0
SPLINE
  5
169
100
AcDbEntity
  8
Layer_1
 62
7
100
AcDbSpline
 70
8
 71
3
 72
8
 73
4
 74
0
 40
0
 40
0
 40
0
 40
0
 40
1
 40
1
 40
1
 40
1
 10
15.385544
 20
63.650169
 30
0.0
 10
15.385544
 20
62.400710
 30
0.0
 10
14.719106
 20
61.246162
 30
0.0
 10
13.637272
 20
60.621432
 30
0.0
  0
SPLINE
  5
16a
100
AcDbEntity
  8
Layer_1
 62
7
100
AcDbSpline
 70
8
 71
3
 72
8
 73
4
 74
0
 40
0
 40
0
 40
0
 40
0
 40
1
 40
1
 40
1
 40
1
 10
13.637272
 20
60.621432
 30
0.0
 10
12.555437
 20
59.996702
 30
0.0
 10
11.222562
 20
59.996702
 30
0.0
 10
10.140728
 20
60.621432
 30
0.0
  0
SPLINE
  5
16b
100
AcDbEntity
  8
Layer_1
 62
7
100
AcDbSpline
 70
8
 71
3
 72
8
 73
4
 74
0
 40
0
 40
0
 40
0
 40
0
 40
1
 40
1
 40
1
 40
1
 10
10.140728
 20
60.621432
 30
0.0
 10
9.058893
 20
61.246162
 30
0.0
 10
8.392456
 20
62.400710
 30
0.0
 10
8.392456
 20
63.650169
 30
0.0
  0
LWPOLYLINE
  5
16c
100
AcDbEntity
  8
Layer_1
 62
7
100
AcDbPolyline
 90
1
 70
1
 10
7.443394
 20
53.757853
 30
0.0
  0
SPLINE
  5
16d
100
AcDbEntity
  8
Layer_1
 62
7
100
AcDbSpline
 70
8
 71
3
 72
8
 73
4
 74
0
 40
0
 40
0
 40
0
 40
0
 40
1
 40
1
 40
1
 40
1
 10
76.974650
 20
94.226423
 30
0.0
 10
76.974154
 20
95.529762
 30
0.0
 10
77.669044
 20
96.734308
 30
0.0
 10
78.797446
 20
97.386120
 30
0.0
  0
SPLINE
  5
16e
100
AcDbEntity
  8
Layer_1
 62
7
100
AcDbSpline
 70
8
 71
3
 72
8
 73
4
 74
0
 40
0
 40
0
 40
0
 40
0
 40
1
 40
1
 40
1
 40
1
 10
78.797446
 20
97.386120
 30
0.0
 10
79.925849
 20
98.037933
 30
0.0
 10
81.316241
 20
98.037933
 30
0.0
 10
82.444643
 20
97.386120
 30
0.0
  0
SPLINE
  5
16f
100
AcDbEntity
  8
Layer_1
 62
7
100
AcDbSpline
 70
8
 71
3
 72
8
 73
4
 74
0
 40
0
 40
0
 40
0
 40
0
 40
1
 40
1
 40
1
 40
1
 10
82.444643
 20
97.386120
 30
0.0
 10
83.573045
 20
96.734308
 30
0.0
 10
84.267935
 20
95.529762
 30
0.0
 10
84.267439
 20
94.226423
 30
0.0
  0
SPLINE
  5
170
100
AcDbEntity
  8
Layer_1
 62
7
100
AcDbSpline
 70
8
 71
3
 72
8
 73
4
 74
0
 40
0
 40
0
 40
0
 40
0
 40
1
 40
1
 40
1
 40
1
 10
84.267439
 20
94.226423
 30
0.0
 10
84.267935
 20
92.923085
 30
0.0
 10
83.573045
 20
91.718539
 30
0.0
 10
82.444643
 20
91.066727
 30
0.0
  0
SPLINE
  5
171
100
AcDbEntity
  8
Layer_1
 62
7
100
AcDbSpline
 70
8
 71
3
 72
8
 73
4
 74
0
 40
0
 40
0
 40
0
 40
0
 40
1
 40
1
 40
1
 40
1
 10
82.444643
 20
91.066727
 30
0.0
 10
81.316241
 20
90.414914
 30
0.0
 10
79.925849
 20
90.414914
 30
0.0
 10
78.797446
 20
91.066727
 30
0.0
  0
SPLINE
  5
172
100
AcDbEntity
  8
Layer_1
 62
7
100
AcDbSpline
 70
8
 71
3
 72
8
 73
4
 74
0
 40
0
 40
0
 40
0
 40
0
 40
1
 40
1
 40
1
 40
1
 10
78.797446
 20
91.066727
 30
0.0
 10
77.669044
 20
91.718539
 30
0.0
 10
76.974154
 20
92.923085
 30
0.0
 10
76.974650
 20
94.226423
 30
0.0
  0
LWPOLYLINE
  5
173
100
AcDbEntity
  8
Layer_1
 62
7
100
AcDbPolyline
 90
1
 70
1
 10
8.392456
 20
63.650169
 30
0.0
  0
SPLINE
  5
174
100
AcDbEntity
  8
Layer_1
 62
7
100
AcDbSpline
 70
8
 71
3
 72
8
 73
4
 74
0
 40
0
 40
0
 40
0
 40
0
 40
1
 40
1
 40
1
 40
1
 10
56.994405
 20
94.226423
 30
0.0
 10
56.993908
 20
95.529762
 30
0.0
 10
57.688799
 20
96.734308
 30
0.0
 10
58.817201
 20
97.386120
 30
0.0
  0
SPLINE
  5
175
100
AcDbEntity
  8
Layer_1
 62
7
100
AcDbSpline
 70
8
 71
3
 72
8
 73
4
 74
0
 40
0
 40
0
 40
0
 40
0
 40
1
 40
1
 40
1
 40
1
 10
58.817201
 20
97.386120
 30
0.0
 10
59.945603
 20
98.037933
 30
0.0
 10
61.335995
 20
98.037933
 30
0.0
 10
62.464398
 20
97.386120
 30
0.0
  0
SPLINE
  5
176
100
AcDbEntity
  8
Layer_1
 62
7
100
AcDbSpline
 70
8
 71
3
 72
8
 73
4
 74
0
 40
0
 40
0
 40
0
 40
0
 40
1
 40
1
 40
1
 40
1
 10
62.464398
 20
97.386120
 30
0.0
 10
63.592800
 20
96.734308
 30
0.0
 10
64.287690
 20
95.529762
 30
0.0
 10
64.287194
 20
94.226423
 30
0.0
  0
SPLINE
  5
177
100
AcDbEntity
  8
Layer_1
 62
7
100
AcDbSpline
 70
8
 71
3
 72
8
 73
4
 74
0
 40
0
 40
0
 40
0
 40
0
 40
1
 40
1
 40
1
 40
1
 10
64.287194
 20
94.226423
 30
0.0
 10
64.287690
 20
92.923085
 30
0.0
 10
63.592800
 20
91.718539
 30
0.0
 10
62.464398
 20
91.066727
 30
0.0
  0
SPLINE
  5
178
100
AcDbEntity
  8
Layer_1
 62
7
100
AcDbSpline
 70
8
 71
3
 72
8
 73
4
 74
0
 40
0
 40
0
 40
0
 40
0
 40
1
 40
1
 40
1
 40
1
 10
62.464398
 20
91.066727
 30
0.0
 10
61.335995
 20
90.414914
 30
0.0
 10
59.945603
 20
90.414914
 30
0.0
 10
58.817201
 20
91.066727
 30
0.0
  0
SPLINE
  5
179
100
AcDbEntity
  8
Layer_1
 62
7
100
AcDbSpline
 70
8
 71
3
 72
8
 73
4
 74
0
 40
0
 40
0
 40
0
 40
0
 40
1
 40
1
 40
1
 40
1
 10
58.817201
 20
91.066727
 30
0.0
 10
57.688799
 20
91.718539
 30
0.0
 10
56.993908
 20
92.923085
 30
0.0
 10
56.994405
 20
94.226423
 30
0.0
  0
LWPOLYLINE
  5
17a
100
AcDbEntity
  8
Layer_1
 62
7
100
AcDbPolyline
 90
1
 70
1
 10
76.974650
 20
94.226423
 30
0.0
  0
SPLINE
  5
17b
100
AcDbEntity
  8
Layer_1
 62
7
100
AcDbSpline
 70
8
 71
3
 72
8
 73
4
 74
0
 40
0
 40
0
 40
0
 40
0
 40
1
 40
1
 40
1
 40
1
 10
77.374255
 20
109.214782
 30
0.0
 10
77.374255
 20
110.374994
 30
0.0
 10
77.993089
 20
111.447074
 30
0.0
 10
78.997650
 20
112.027180
 30
0.0
  0
SPLINE
  5
17c
100
AcDbEntity
  8
Layer_1
 62
7
100
AcDbSpline
 70
8
 71
3
 72
8
 73
4
 74
0
 40
0
 40
0
 40
0
 40
0
 40
1
 40
1
 40
1
 40
1
 10
78.997650
 20
112.027180
 30
0.0
 10
80.002210
 20
112.607286
 30
0.0
 10
81.239879
 20
112.607286
 30
0.0
 10
82.244440
 20
112.027180
 30
0.0
  0
SPLINE
  5
17d
100
AcDbEntity
  8
Layer_1
 62
7
100
AcDbSpline
 70
8
 71
3
 72
8
 73
4
 74
0
 40
0
 40
0
 40
0
 40
0
 40
1
 40
1
 40
1
 40
1
 10
82.244440
 20
112.027180
 30
0.0
 10
83.249000
 20
111.447074
 30
0.0
 10
83.867835
 20
110.374994
 30
0.0
 10
83.867835
 20
109.214782
 30
0.0
  0
SPLINE
  5
17e
100
AcDbEntity
  8
Layer_1
 62
7
100
AcDbSpline
 70
8
 71
3
 72
8
 73
4
 74
0
 40
0
 40
0
 40
0
 40
0
 40
1
 40
1
 40
1
 40
1
 10
83.867835
 20
109.214782
 30
0.0
 10
83.867835
 20
108.054569
 30
0.0
 10
83.249000
 20
106.982489
 30
0.0
 10
82.244440
 20
106.402383
 30
0.0
  0
SPLINE
  5
17f
100
AcDbEntity
  8
Layer_1
 62
7
100
AcDbSpline
 70
8
 71
3
 72
8
 73
4
 74
0
 40
0
 40
0
 40
0
 40
0
 40
1
 40
1
 40
1
 40
1
 10
82.244440
 20
106.402383
 30
0.0
 10
81.239879
 20
105.822277
 30
0.0
 10
80.002210
 20
105.822277
 30
0.0
 10
78.997650
 20
106.402383
 30
0.0
  0
SPLINE
  5
180
100
AcDbEntity
  8
Layer_1
 62
7
100
AcDbSpline
 70
8
 71
3
 72
8
 73
4
 74
0
 40
0
 40
0
 40
0
 40
0
 40
1
 40
1
 40
1
 40
1
 10
78.997650
 20
106.402383
 30
0.0
 10
77.993089
 20
106.982489
 30
0.0
 10
77.374255
 20
108.054569
 30
0.0
 10
77.374255
 20
109.214782
 30
0.0
  0
LWPOLYLINE
  5
181
100
AcDbEntity
  8
Layer_1
 62
7
100
AcDbPolyline
 90
1
 70
1
 10
56.994405
 20
94.226423
 30
0.0
  0
SPLINE
  5
182
100
AcDbEntity
  8
Layer_1
 62
7
100
AcDbSpline
 70
8
 71
3
 72
8
 73
4
 74
0
 40
0
 40
0
 40
0
 40
0
 40
1
 40
1
 40
1
 40
1
 10
93.758055
 20
127.050930
 30
0.0
 10
94.329116
 20
127.050930
 30
0.0
 10
94.856798
 20
126.746208
 30
0.0
 10
95.142328
 20
126.251550
 30
0.0
  0
SPLINE
  5
183
100
AcDbEntity
  8
Layer_1
 62
7
100
AcDbSpline
 70
8
 71
3
 72
8
 73
4
 74
0
 40
0
 40
0
 40
0
 40
0
 40
1
 40
1
 40
1
 40
1
 10
95.142328
 20
126.251550
 30
0.0
 10
95.427858
 20
125.756893
 30
0.0
 10
95.427858
 20
125.147449
 30
0.0
 10
95.142328
 20
124.652792
 30
0.0
  0
SPLINE
  5
184
100
AcDbEntity
  8
Layer_1
 62
7
100
AcDbSpline
 70
8
 71
3
 72
8
 73
4
 74
0
 40
0
 40
0
 40
0
 40
0
 40
1
 40
1
 40
1
 40
1
 10
95.142328
 20
124.652792
 30
0.0
 10
94.856798
 20
124.158134
 30
0.0
 10
94.329116
 20
123.853413
 30
0.0
 10
93.758055
 20
123.853413
 30
0.0
  0
LWPOLYLINE
  5
185
100
AcDbEntity
  8
Layer_1
 62
7
100
AcDbPolyline
 90
1
 70
1
 10
77.374255
 20
109.214782
 30
0.0
  0
LWPOLYLINE
  5
186
100
AcDbEntity
  8
Layer_1
 62
7
100
AcDbPolyline
 90
2
 70
0
 10
93.758055
 20
127.050930
 30
0.0
 10
90.761019
 20
127.050930
 30
0.0
  0
SPLINE
  5
187
100
AcDbEntity
  8
Layer_1
 62
7
100
AcDbSpline
 70
8
 71
3
 72
8
 73
4
 74
0
 40
0
 40
0
 40
0
 40
0
 40
1
 40
1
 40
1
 40
1
 10
90.761019
 20
123.853413
 30
0.0
 10
90.189959
 20
123.853413
 30
0.0
 10
89.662277
 20
124.158134
 30
0.0
 10
89.376747
 20
124.652792
 30
0.0
  0
SPLINE
  5
188
100
AcDbEntity
  8
Layer_1
 62
7
100
AcDbSpline
 70
8
 71
3
 72
8
 73
4
 74
0
 40
0
 40
0
 40
0
 40
0
 40
1
 40
1
 40
1
 40
1
 10
89.376747
 20
124.652792
 30
0.0
 10
89.091217
 20
125.147449
 30
0.0
 10
89.091217
 20
125.756893
 30
0.0
 10
89.376747
 20
126.251550
 30
0.0
  0
SPLINE
  5
189
100
AcDbEntity
  8
Layer_1
 62
7
100
AcDbSpline
 70
8
 71
3
 72
8
 73
4
 74
0
 40
0
 40
0
 40
0
 40
0
 40
1
 40
1
 40
1
 40
1
 10
89.376747
 20
126.251550
 30
0.0
 10
89.662277
 20
126.746208
 30
0.0
 10
90.189959
 20
127.050930
 30
0.0
 10
90.761019
 20
127.050930
 30
0.0
  0
SPLINE
  5
18a
100
AcDbEntity
  8
Layer_1
 62
7
100
AcDbSpline
 70
8
 71
3
 72
8
 73
4
 74
0
 40
0
 40
0
 40
0
 40
0
 40
1
 40
1
 40
1
 40
1
 10
57.394009
 20
109.214782
 30
0.0
 10
57.394009
 20
110.374994
 30
0.0
 10
58.012844
 20
111.447074
 30
0.0
 10
59.017404
 20
112.027180
 30
0.0
  0
SPLINE
  5
18b
100
AcDbEntity
  8
Layer_1
 62
7
100
AcDbSpline
 70
8
 71
3
 72
8
 73
4
 74
0
 40
0
 40
0
 40
0
 40
0
 40
1
 40
1
 40
1
 40
1
 10
59.017404
 20
112.027180
 30
0.0
 10
60.021965
 20
112.607286
 30
0.0
 10
61.259634
 20
112.607286
 30
0.0
 10
62.264194
 20
112.027180
 30
0.0
  0
SPLINE
  5
18c
100
AcDbEntity
  8
Layer_1
 62
7
100
AcDbSpline
 70
8
 71
3
 72
8
 73
4
 74
0
 40
0
 40
0
 40
0
 40
0
 40
1
 40
1
 40
1
 40
1
 10
62.264194
 20
112.027180
 30
0.0
 10
63.268755
 20
111.447074
 30
0.0
 10
63.887589
 20
110.374994
 30
0.0
 10
63.887589
 20
109.214782
 30
0.0
  0
SPLINE
  5
18d
100
AcDbEntity
  8
Layer_1
 62
7
100
AcDbSpline
 70
8
 71
3
 72
8
 73
4
 74
0
 40
0
 40
0
 40
0
 40
0
 40
1
 40
1
 40
1
 40
1
 10
63.887589
 20
109.214782
 30
0.0
 10
63.887589
 20
108.054569
 30
0.0
 10
63.268755
 20
106.982489
 30
0.0
 10
62.264194
 20
106.402383
 30
0.0
  0
SPLINE
  5
18e
100
AcDbEntity
  8
Layer_1
 62
7
100
AcDbSpline
 70
8
 71
3
 72
8
 73
4
 74
0
 40
0
 40
0
 40
0
 40
0
 40
1
 40
1
 40
1
 40
1
 10
62.264194
 20
106.402383
 30
0.0
 10
61.259634
 20
105.822277
 30
0.0
 10
60.021965
 20
105.822277
 30
0.0
 10
59.017404
 20
106.402383
 30
0.0
  0
SPLINE
  5
18f
100
AcDbEntity
  8
Layer_1
 62
7
100
AcDbSpline
 70
8
 71
3
 72
8
 73
4
 74
0
 40
0
 40
0
 40
0
 40
0
 40
1
 40
1
 40
1
 40
1
 10
59.017404
 20
106.402383
 30
0.0
 10
58.012844
 20
106.982489
 30
0.0
 10
57.394009
 20
108.054569
 30
0.0
 10
57.394009
 20
109.214782
 30
0.0
  0
LWPOLYLINE
  5
190
100
AcDbEntity
  8
Layer_1
 62
7
100
AcDbPolyline
 90
2
 70
0
 10
93.758055
 20
123.853413
 30
0.0
 10
90.761019
 20
123.853413
 30
0.0
  0
SPLINE
  5
191
100
AcDbEntity
  8
Layer_1
 62
7
100
AcDbSpline
 70
8
 71
3
 72
8
 73
4
 74
0
 40
0
 40
0
 40
0
 40
0
 40
1
 40
1
 40
1
 40
1
 10
37.014159
 20
94.226423
 30
0.0
 10
37.013663
 20
95.529762
 30
0.0
 10
37.708553
 20
96.734308
 30
0.0
 10
38.836956
 20
97.386120
 30
0.0
  0
SPLINE
  5
192
100
AcDbEntity
  8
Layer_1
 62
7
100
AcDbSpline
 70
8
 71
3
 72
8
 73
4
 74
0
 40
0
 40
0
 40
0
 40
0
 40
1
 40
1
 40
1
 40
1
 10
38.836956
 20
97.386120
 30
0.0
 10
39.965358
 20
98.037933
 30
0.0
 10
41.355750
 20
98.037933
 30
0.0
 10
42.484152
 20
97.386120
 30
0.0
  0
SPLINE
  5
193
100
AcDbEntity
  8
Layer_1
 62
7
100
AcDbSpline
 70
8
 71
3
 72
8
 73
4
 74
0
 40
0
 40
0
 40
0
 40
0
 40
1
 40
1
 40
1
 40
1
 10
42.484152
 20
97.386120
 30
0.0
 10
43.612554
 20
96.734308
 30
0.0
 10
44.307445
 20
95.529762
 30
0.0
 10
44.306949
 20
94.226423
 30
0.0
  0
SPLINE
  5
194
100
AcDbEntity
  8
Layer_1
 62
7
100
AcDbSpline
 70
8
 71
3
 72
8
 73
4
 74
0
 40
0
 40
0
 40
0
 40
0
 40
1
 40
1
 40
1
 40
1
 10
44.306949
 20
94.226423
 30
0.0
 10
44.307445
 20
92.923085
 30
0.0
 10
43.612554
 20
91.718539
 30
0.0
 10
42.484152
 20
91.066727
 30
0.0
  0
SPLINE
  5
195
100
AcDbEntity
  8
Layer_1
 62
7
100
AcDbSpline
 70
8
 71
3
 72
8
 73
4
 74
0
 40
0
 40
0
 40
0
 40
0
 40
1
 40
1
 40
1
 40
1
 10
42.484152
 20
91.066727
 30
0.0
 10
41.355750
 20
90.414914
 30
0.0
 10
39.965358
 20
90.414914
 30
0.0
 10
38.836956
 20
91.066727
 30
0.0
  0
SPLINE
  5
196
100
AcDbEntity
  8
Layer_1
 62
7
100
AcDbSpline
 70
8
 71
3
 72
8
 73
4
 74
0
 40
0
 40
0
 40
0
 40
0
 40
1
 40
1
 40
1
 40
1
 10
38.836956
 20
91.066727
 30
0.0
 10
37.708553
 20
91.718539
 30
0.0
 10
37.013663
 20
92.923085
 30
0.0
 10
37.014159
 20
94.226423
 30
0.0
  0
LWPOLYLINE
  5
197
100
AcDbEntity
  8
Layer_1
 62
7
100
AcDbPolyline
 90
1
 70
1
 10
57.394009
 20
109.214782
 30
0.0
  0
SPLINE
  5
198
100
AcDbEntity
  8
Layer_1
 62
7
100
AcDbSpline
 70
8
 71
3
 72
8
 73
4
 74
0
 40
0
 40
0
 40
0
 40
0
 40
1
 40
1
 40
1
 40
1
 10
17.033911
 20
94.226423
 30
0.0
 10
17.033911
 20
95.529431
 30
0.0
 10
17.728910
 20
96.733460
 30
0.0
 10
18.857109
 20
97.384964
 30
0.0
  0
SPLINE
  5
199
100
AcDbEntity
  8
Layer_1
 62
7
100
AcDbSpline
 70
8
 71
3
 72
8
 73
4
 74
0
 40
0
 40
0
 40
0
 40
0
 40
1
 40
1
 40
1
 40
1
 10
18.857109
 20
97.384964
 30
0.0
 10
19.985308
 20
98.036468
 30
0.0
 10
21.375306
 20
98.036468
 30
0.0
 10
22.503505
 20
97.384964
 30
0.0
  0
SPLINE
  5
19a
100
AcDbEntity
  8
Layer_1
 62
7
100
AcDbSpline
 70
8
 71
3
 72
8
 73
4
 74
0
 40
0
 40
0
 40
0
 40
0
 40
1
 40
1
 40
1
 40
1
 10
22.503505
 20
97.384964
 30
0.0
 10
23.631704
 20
96.733460
 30
0.0
 10
24.326703
 20
95.529431
 30
0.0
 10
24.326703
 20
94.226423
 30
0.0
  0
SPLINE
  5
19b
100
AcDbEntity
  8
Layer_1
 62
7
100
AcDbSpline
 70
8
 71
3
 72
8
 73
4
 74
0
 40
0
 40
0
 40
0
 40
0
 40
1
 40
1
 40
1
 40
1
 10
24.326703
 20
94.226423
 30
0.0
 10
24.326703
 20
92.923416
 30
0.0
 10
23.631704
 20
91.719387
 30
0.0
 10
22.503505
 20
91.067883
 30
0.0
  0
SPLINE
  5
19c
100
AcDbEntity
  8
Layer_1
 62
7
100
AcDbSpline
 70
8
 71
3
 72
8
 73
4
 74
0
 40
0
 40
0
 40
0
 40
0
 40
1
 40
1
 40
1
 40
1
 10
22.503505
 20
91.067883
 30
0.0
 10
21.375306
 20
90.416379
 30
0.0
 10
19.985308
 20
90.416379
 30
0.0
 10
18.857109
 20
91.067883
 30
0.0
  0
SPLINE
  5
19d
100
AcDbEntity
  8
Layer_1
 62
7
100
AcDbSpline
 70
8
 71
3
 72
8
 73
4
 74
0
 40
0
 40
0
 40
0
 40
0
 40
1
 40
1
 40
1
 40
1
 10
18.857109
 20
91.067883
 30
0.0
 10
17.728910
 20
91.719387
 30
0.0
 10
17.033911
 20
92.923416
 30
0.0
 10
17.033911
 20
94.226423
 30
0.0
  0
LWPOLYLINE
  5
19e
100
AcDbEntity
  8
Layer_1
 62
7
100
AcDbPolyline
 90
1
 70
1
 10
37.014159
 20
94.226423
 30
0.0
  0
SPLINE
  5
19f
100
AcDbEntity
  8
Layer_1
 62
7
100
AcDbSpline
 70
8
 71
3
 72
8
 73
4
 74
0
 40
0
 40
0
 40
0
 40
0
 40
1
 40
1
 40
1
 40
1
 10
37.413764
 20
109.214782
 30
0.0
 10
37.413764
 20
110.374994
 30
0.0
 10
38.032599
 20
111.447074
 30
0.0
 10
39.037159
 20
112.027180
 30
0.0
  0
SPLINE
  5
1a0
100
AcDbEntity
  8
Layer_1
 62
7
100
AcDbSpline
 70
8
 71
3
 72
8
 73
4
 74
0
 40
0
 40
0
 40
0
 40
0
 40
1
 40
1
 40
1
 40
1
 10
39.037159
 20
112.027180
 30
0.0
 10
40.041719
 20
112.607286
 30
0.0
 10
41.279389
 20
112.607286
 30
0.0
 10
42.283949
 20
112.027180
 30
0.0
  0
SPLINE
  5
1a1
100
AcDbEntity
  8
Layer_1
 62
7
100
AcDbSpline
 70
8
 71
3
 72
8
 73
4
 74
0
 40
0
 40
0
 40
0
 40
0
 40
1
 40
1
 40
1
 40
1
 10
42.283949
 20
112.027180
 30
0.0
 10
43.288509
 20
111.447074
 30
0.0
 10
43.907344
 20
110.374994
 30
0.0
 10
43.907344
 20
109.214782
 30
0.0
  0
SPLINE
  5
1a2
100
AcDbEntity
  8
Layer_1
 62
7
100
AcDbSpline
 70
8
 71
3
 72
8
 73
4
 74
0
 40
0
 40
0
 40
0
 40
0
 40
1
 40
1
 40
1
 40
1
 10
43.907344
 20
109.214782
 30
0.0
 10
43.907344
 20
108.054569
 30
0.0
 10
43.288509
 20
106.982489
 30
0.0
 10
42.283949
 20
106.402383
 30
0.0
  0
SPLINE
  5
1a3
100
AcDbEntity
  8
Layer_1
 62
7
100
AcDbSpline
 70
8
 71
3
 72
8
 73
4
 74
0
 40
0
 40
0
 40
0
 40
0
 40
1
 40
1
 40
1
 40
1
 10
42.283949
 20
106.402383
 30
0.0
 10
41.279389
 20
105.822277
 30
0.0
 10
40.041719
 20
105.822277
 30
0.0
 10
39.037159
 20
106.402383
 30
0.0
  0
SPLINE
  5
1a4
100
AcDbEntity
  8
Layer_1
 62
7
100
AcDbSpline
 70
8
 71
3
 72
8
 73
4
 74
0
 40
0
 40
0
 40
0
 40
0
 40
1
 40
1
 40
1
 40
1
 10
39.037159
 20
106.402383
 30
0.0
 10
38.032599
 20
106.982489
 30
0.0
 10
37.413764
 20
108.054569
 30
0.0
 10
37.413764
 20
109.214782
 30
0.0
  0
LWPOLYLINE
  5
1a5
100
AcDbEntity
  8
Layer_1
 62
7
100
AcDbPolyline
 90
1
 70
1
 10
17.033911
 20
94.226423
 30
0.0
  0
SPLINE
  5
1a6
100
AcDbEntity
  8
Layer_1
 62
7
100
AcDbSpline
 70
8
 71
3
 72
8
 73
4
 74
0
 40
0
 40
0
 40
0
 40
0
 40
1
 40
1
 40
1
 40
1
 10
17.433519
 20
109.214782
 30
0.0
 10
17.432471
 20
110.375691
 30
0.0
 10
18.051077
 20
111.448864
 30
0.0
 10
19.056067
 20
112.029622
 30
0.0
  0
SPLINE
  5
1a7
100
AcDbEntity
  8
Layer_1
 62
7
100
AcDbSpline
 70
8
 71
3
 72
8
 73
4
 74
0
 40
0
 40
0
 40
0
 40
0
 40
1
 40
1
 40
1
 40
1
 10
19.056067
 20
112.029622
 30
0.0
 10
20.061057
 20
112.610379
 30
0.0
 10
21.299558
 20
112.610379
 30
0.0
 10
22.304548
 20
112.029622
 30
0.0
  0
SPLINE
  5
1a8
100
AcDbEntity
  8
Layer_1
 62
7
100
AcDbSpline
 70
8
 71
3
 72
8
 73
4
 74
0
 40
0
 40
0
 40
0
 40
0
 40
1
 40
1
 40
1
 40
1
 10
22.304548
 20
112.029622
 30
0.0
 10
23.309538
 20
111.448864
 30
0.0
 10
23.928143
 20
110.375691
 30
0.0
 10
23.927096
 20
109.214782
 30
0.0
  0
SPLINE
  5
1a9
100
AcDbEntity
  8
Layer_1
 62
7
100
AcDbSpline
 70
8
 71
3
 72
8
 73
4
 74
0
 40
0
 40
0
 40
0
 40
0
 40
1
 40
1
 40
1
 40
1
 10
23.927096
 20
109.214782
 30
0.0
 10
23.928143
 20
108.053872
 30
0.0
 10
23.309538
 20
106.980699
 30
0.0
 10
22.304548
 20
106.399942
 30
0.0
  0
SPLINE
  5
1aa
100
AcDbEntity
  8
Layer_1
 62
7
100
AcDbSpline
 70
8
 71
3
 72
8
 73
4
 74
0
 40
0
 40
0
 40
0
 40
0
 40
1
 40
1
 40
1
 40
1
 10
22.304548
 20
106.399942
 30
0.0
 10
21.299558
 20
105.819184
 30
0.0
 10
20.061057
 20
105.819184
 30
0.0
 10
19.056067
 20
106.399942
 30
0.0
  0
SPLINE
  5
1ab
100
AcDbEntity
  8
Layer_1
 62
7
100
AcDbSpline
 70
8
 71
3
 72
8
 73
4
 74
0
 40
0
 40
0
 40
0
 40
0
 40
1
 40
1
 40
1
 40
1
 10
19.056067
 20
106.399942
 30
0.0
 10
18.051077
 20
106.980699
 30
0.0
 10
17.432471
 20
108.053872
 30
0.0
 10
17.433519
 20
109.214782
 30
0.0
  0
LWPOLYLINE
  5
1ac
100
AcDbEntity
  8
Layer_1
 62
7
100
AcDbPolyline
 90
1
 70
1
 10
37.413764
 20
109.214782
 30
0.0
  0
SPLINE
  5
1ad
100
AcDbEntity
  8
Layer_1
 62
7
100
AcDbSpline
 70
8
 71
3
 72
8
 73
4
 74
0
 40
0
 40
0
 40
0
 40
0
 40
1
 40
1
 40
1
 40
1
 10
10.540334
 20
127.050930
 30
0.0
 10
11.111394
 20
127.050930
 30
0.0
 10
11.639076
 20
126.746208
 30
0.0
 10
11.924606
 20
126.251550
 30
0.0
  0
SPLINE
  5
1ae
100
AcDbEntity
  8
Layer_1
 62
7
100
AcDbSpline
 70
8
 71
3
 72
8
 73
4
 74
0
 40
0
 40
0
 40
0
 40
0
 40
1
 40
1
 40
1
 40
1
 10
11.924606
 20
126.251550
 30
0.0
 10
12.210136
 20
125.756893
 30
0.0
 10
12.210136
 20
125.147449
 30
0.0
 10
11.924606
 20
124.652792
 30
0.0
  0
SPLINE
  5
1af
100
AcDbEntity
  8
Layer_1
 62
7
100
AcDbSpline
 70
8
 71
3
 72
8
 73
4
 74
0
 40
0
 40
0
 40
0
 40
0
 40
1
 40
1
 40
1
 40
1
 10
11.924606
 20
124.652792
 30
0.0
 10
11.639076
 20
124.158134
 30
0.0
 10
11.111394
 20
123.853413
 30
0.0
 10
10.540334
 20
123.853413
 30
0.0
  0
LWPOLYLINE
  5
1b0
100
AcDbEntity
  8
Layer_1
 62
7
100
AcDbPolyline
 90
1
 70
1
 10
17.433519
 20
109.214782
 30
0.0
  0
LWPOLYLINE
  5
1b1
100
AcDbEntity
  8
Layer_1
 62
7
100
AcDbPolyline
 90
2
 70
0
 10
10.540334
 20
127.050930
 30
0.0
 10
7.543295
 20
127.050930
 30
0.0
  0
SPLINE
  5
1b2
100
AcDbEntity
  8
Layer_1
 62
7
100
AcDbSpline
 70
8
 71
3
 72
8
 73
4
 74
0
 40
0
 40
0
 40
0
 40
0
 40
1
 40
1
 40
1
 40
1
 10
7.543295
 20
123.853413
 30
0.0
 10
6.972235
 20
123.853413
 30
0.0
 10
6.444553
 20
124.158134
 30
0.0
 10
6.159023
 20
124.652792
 30
0.0
  0
SPLINE
  5
1b3
100
AcDbEntity
  8
Layer_1
 62
7
100
AcDbSpline
 70
8
 71
3
 72
8
 73
4
 74
0
 40
0
 40
0
 40
0
 40
0
 40
1
 40
1
 40
1
 40
1
 10
6.159023
 20
124.652792
 30
0.0
 10
5.873493
 20
125.147449
 30
0.0
 10
5.873493
 20
125.756893
 30
0.0
 10
6.159023
 20
126.251550
 30
0.0
  0
SPLINE
  5
1b4
100
AcDbEntity
  8
Layer_1
 62
7
100
AcDbSpline
 70
8
 71
3
 72
8
 73
4
 74
0
 40
0
 40
0
 40
0
 40
0
 40
1
 40
1
 40
1
 40
1
 10
6.159023
 20
126.251550
 30
0.0
 10
6.444553
 20
126.746208
 30
0.0
 10
6.972235
 20
127.050930
 30
0.0
 10
7.543295
 20
127.050930
 30
0.0
  0
LWPOLYLINE
  5
1b5
100
AcDbEntity
  8
Layer_1
 62
7
100
AcDbPolyline
 90
2
 70
0
 10
10.540334
 20
123.853413
 30
0.0
 10
7.543295
 20
123.853413
 30
0.0
  0
LWPOLYLINE
  5
1b6
100
AcDbEntity
  8
Layer_1
 62
7
100
AcDbPolyline
 90
19
 70
0
 10
8.205595
 20
14.685672
 30
0.0
 10
8.115284
 20
14.863472
 30
0.0
 10
7.937483
 20
15.041273
 30
0.0
 10
7.759683
 20
15.131584
 30
0.0
 10
7.404082
 20
15.131584
 30
0.0
 10
7.226281
 20
15.041273
 30
0.0
 10
7.048481
 20
14.863472
 30
0.0
 10
6.958170
 20
14.685672
 30
0.0
 10
6.870680
 20
14.420382
 30
0.0
 10
6.870680
 20
13.974470
 30
0.0
 10
6.958170
 20
13.709180
 30
0.0
 10
7.048481
 20
13.529969
 30
0.0
 10
7.226281
 20
13.352168
 30
0.0
 10
7.404082
 20
13.263268
 30
0.0
 10
7.759683
 20
13.263268
 30
0.0
 10
7.937483
 20
13.352168
 30
0.0
 10
8.115284
 20
13.529969
 30
0.0
 10
8.205595
 20
13.709180
 30
0.0
 10
8.205595
 20
13.974470
 30
0.0
  0
LWPOLYLINE
  5
1b7
100
AcDbEntity
  8
Layer_1
 62
7
100
AcDbPolyline
 90
2
 70
0
 10
7.759683
 20
13.974470
 30
0.0
 10
8.205595
 20
13.974470
 30
0.0
  0
LWPOLYLINE
  5
1b8
100
AcDbEntity
  8
Layer_1
 62
7
100
AcDbPolyline
 90
2
 70
0
 10
9.272402
 20
15.131584
 30
0.0
 10
8.561200
 20
13.263268
 30
0.0
  0
LWPOLYLINE
  5
1b9
100
AcDbEntity
  8
Layer_1
 62
7
100
AcDbPolyline
 90
2
 70
0
 10
9.272402
 20
15.131584
 30
0.0
 10
9.983604
 20
13.263268
 30
0.0
  0
LWPOLYLINE
  5
1ba
100
AcDbEntity
  8
Layer_1
 62
7
100
AcDbPolyline
 90
2
 70
0
 10
8.826490
 20
13.884159
 30
0.0
 10
9.718314
 20
13.884159
 30
0.0
  0
LWPOLYLINE
  5
1bb
100
AcDbEntity
  8
Layer_1
 62
7
100
AcDbPolyline
 90
2
 70
0
 10
10.782291
 20
15.131584
 30
0.0
 10
10.782291
 20
13.263268
 30
0.0
  0
LWPOLYLINE
  5
1bc
100
AcDbEntity
  8
Layer_1
 62
7
100
AcDbPolyline
 90
2
 70
0
 10
10.161400
 20
15.131584
 30
0.0
 10
11.406003
 20
15.131584
 30
0.0
  0
LWPOLYLINE
  5
1bd
100
AcDbEntity
  8
Layer_1
 62
7
100
AcDbPolyline
 90
2
 70
0
 10
11.849090
 20
15.131584
 30
0.0
 10
11.849090
 20
13.263268
 30
0.0
  0
LWPOLYLINE
  5
1be
100
AcDbEntity
  8
Layer_1
 62
7
100
AcDbPolyline
 90
2
 70
0
 10
11.849090
 20
15.131584
 30
0.0
 10
13.006204
 20
15.131584
 30
0.0
  0
LWPOLYLINE
  5
1bf
100
AcDbEntity
  8
Layer_1
 62
7
100
AcDbPolyline
 90
2
 70
0
 10
11.849090
 20
14.239760
 30
0.0
 10
12.560292
 20
14.239760
 30
0.0
  0
LWPOLYLINE
  5
1c0
100
AcDbEntity
  8
Layer_1
 62
7
100
AcDbPolyline
 90
2
 70
0
 10
11.849090
 20
13.263268
 30
0.0
 10
13.006204
 20
13.263268
 30
0.0
  0
LWPOLYLINE
  5
1c1
100
AcDbEntity
  8
Layer_1
 62
7
100
AcDbPolyline
 90
20
 70
0
 10
14.693904
 20
14.863472
 30
0.0
 10
14.516103
 20
15.041273
 30
0.0
 10
14.247992
 20
15.131584
 30
0.0
 10
13.892391
 20
15.131584
 30
0.0
 10
13.627101
 20
15.041273
 30
0.0
 10
13.449300
 20
14.863472
 30
0.0
 10
13.449300
 20
14.685672
 30
0.0
 10
13.536790
 20
14.507871
 30
0.0
 10
13.627101
 20
14.420382
 30
0.0
 10
13.804901
 20
14.330071
 30
0.0
 10
14.338303
 20
14.152270
 30
0.0
 10
14.516103
 20
14.064781
 30
0.0
 10
14.603593
 20
13.974470
 30
0.0
 10
14.693904
 20
13.796669
 30
0.0
 10
14.693904
 20
13.529969
 30
0.0
 10
14.516103
 20
13.352168
 30
0.0
 10
14.247992
 20
13.263268
 30
0.0
 10
13.892391
 20
13.263268
 30
0.0
 10
13.627101
 20
13.352168
 30
0.0
 10
13.449300
 20
13.529969
 30
0.0
  0
LWPOLYLINE
  5
1c2
100
AcDbEntity
  8
Layer_1
 62
7
100
AcDbPolyline
 90
16
 70
1
 10
86.370679
 20
14.854546
 30
0.0
 10
86.105389
 20
14.764235
 30
0.0
 10
85.924767
 20
14.498945
 30
0.0
 10
85.837277
 20
14.053033
 30
0.0
 10
85.837277
 20
13.787743
 30
0.0
 10
85.924767
 20
13.341831
 30
0.0
 10
86.105389
 20
13.075130
 30
0.0
 10
86.370679
 20
12.986230
 30
0.0
 10
86.548479
 20
12.986230
 30
0.0
 10
86.816591
 20
13.075130
 30
0.0
 10
86.991570
 20
13.341831
 30
0.0
 10
87.081881
 20
13.787743
 30
0.0
 10
87.081881
 20
14.053033
 30
0.0
 10
86.991570
 20
14.498945
 30
0.0
 10
86.816591
 20
14.764235
 30
0.0
 10
86.548479
 20
14.854546
 30
0.0
  0
LWPOLYLINE
  5
1c3
100
AcDbEntity
  8
Layer_1
 62
7
100
AcDbPolyline
 90
2
 70
0
 10
87.702767
 20
13.787743
 30
0.0
 10
89.305793
 20
13.787743
 30
0.0
  0
LWPOLYLINE
  5
1c4
100
AcDbEntity
  8
Layer_1
 62
7
100
AcDbPolyline
 90
4
 70
0
 10
90.194799
 20
14.498945
 30
0.0
 10
90.369778
 20
14.586434
 30
0.0
 10
90.637889
 20
14.854546
 30
0.0
 10
90.637889
 20
12.986230
 30
0.0
  0
LWPOLYLINE
  5
1c5
100
AcDbEntity
  8
Layer_1
 62
7
100
AcDbPolyline
 90
16
 70
1
 10
92.238099
 20
14.854546
 30
0.0
 10
91.972809
 20
14.764235
 30
0.0
 10
91.792187
 20
14.498945
 30
0.0
 10
91.704697
 20
14.053033
 30
0.0
 10
91.704697
 20
13.787743
 30
0.0
 10
91.792187
 20
13.341831
 30
0.0
 10
91.972809
 20
13.075130
 30
0.0
 10
92.238099
 20
12.986230
 30
0.0
 10
92.415899
 20
12.986230
 30
0.0
 10
92.684011
 20
13.075130
 30
0.0
 10
92.858990
 20
13.341831
 30
0.0
 10
92.949301
 20
13.787743
 30
0.0
 10
92.949301
 20
14.053033
 30
0.0
 10
92.858990
 20
14.498945
 30
0.0
 10
92.684011
 20
14.764235
 30
0.0
 10
92.415899
 20
14.854546
 30
0.0
  0
LWPOLYLINE
  5
1c6
100
AcDbEntity
  8
Layer_1
 62
7
100
AcDbPolyline
 90
2
 70
0
 10
93.304897
 20
14.854546
 30
0.0
 10
94.016099
 20
12.986230
 30
0.0
  0
LWPOLYLINE
  5
1c7
100
AcDbEntity
  8
Layer_1
 62
7
100
AcDbPolyline
 90
2
 70
0
 10
94.727301
 20
14.854546
 30
0.0
 10
94.016099
 20
12.986230
 30
0.0
  0
LWPOLYLINE
  5
1c8
100
AcDbEntity
  8
Layer_1
 62
7
100
AcDbPolyline
 90
2
 70
0
 10
34.777793
 20
121.966316
 30
0.0
 10
34.777793
 20
120.098000
 30
0.0
  0
LWPOLYLINE
  5
1c9
100
AcDbEntity
  8
Layer_1
 62
7
100
AcDbPolyline
 90
10
 70
0
 10
34.777793
 20
121.966316
 30
0.0
 10
35.579306
 20
121.966316
 30
0.0
 10
35.844596
 20
121.876005
 30
0.0
 10
35.934907
 20
121.785694
 30
0.0
 10
36.025218
 20
121.610715
 30
0.0
 10
36.025218
 20
121.342603
 30
0.0
 10
35.934907
 20
121.164803
 30
0.0
 10
35.844596
 20
121.074492
 30
0.0
 10
35.579306
 20
120.987002
 30
0.0
 10
34.777793
 20
120.987002
 30
0.0
  0
LWPOLYLINE
  5
1ca
100
AcDbEntity
  8
Layer_1
 62
7
100
AcDbPolyline
 90
20
 70
1
 10
37.092025
 20
121.966316
 30
0.0
 10
36.914224
 20
121.876005
 30
0.0
 10
36.736424
 20
121.698204
 30
0.0
 10
36.646113
 20
121.520404
 30
0.0
 10
36.558623
 20
121.255114
 30
0.0
 10
36.558623
 20
120.809202
 30
0.0
 10
36.646113
 20
120.543912
 30
0.0
 10
36.736424
 20
120.364701
 30
0.0
 10
36.914224
 20
120.186900
 30
0.0
 10
37.092025
 20
120.098000
 30
0.0
 10
37.447626
 20
120.098000
 30
0.0
 10
37.625426
 20
120.186900
 30
0.0
 10
37.803227
 20
120.364701
 30
0.0
 10
37.893538
 20
120.543912
 30
0.0
 10
37.981027
 20
120.809202
 30
0.0
 10
37.981027
 20
121.255114
 30
0.0
 10
37.893538
 20
121.520404
 30
0.0
 10
37.803227
 20
121.698204
 30
0.0
 10
37.625426
 20
121.876005
 30
0.0
 10
37.447626
 20
121.966316
 30
0.0
  0
LWPOLYLINE
  5
1cb
100
AcDbEntity
  8
Layer_1
 62
7
100
AcDbPolyline
 90
3
 70
0
 10
38.601913
 20
121.966316
 30
0.0
 10
38.601913
 20
120.098000
 30
0.0
 10
39.668716
 20
120.098000
 30
0.0
  0
LWPOLYLINE
  5
1cc
100
AcDbEntity
  8
Layer_1
 62
7
100
AcDbPolyline
 90
3
 70
0
 10
39.849343
 20
121.966316
 30
0.0
 10
40.560545
 20
121.074492
 30
0.0
 10
40.560545
 20
120.098000
 30
0.0
  0
LWPOLYLINE
  5
1cd
100
AcDbEntity
  8
Layer_1
 62
7
100
AcDbPolyline
 90
2
 70
0
 10
41.271747
 20
121.966316
 30
0.0
 10
40.560545
 20
121.074492
 30
0.0
  0
LWPOLYLINE
  5
1ce
100
AcDbEntity
  8
Layer_1
 62
7
100
AcDbPolyline
 90
2
 70
0
 10
41.714833
 20
121.966316
 30
0.0
 10
41.714833
 20
120.098000
 30
0.0
  0
LWPOLYLINE
  5
1cf
100
AcDbEntity
  8
Layer_1
 62
7
100
AcDbPolyline
 90
10
 70
0
 10
41.714833
 20
121.966316
 30
0.0
 10
42.516346
 20
121.966316
 30
0.0
 10
42.781636
 20
121.876005
 30
0.0
 10
42.871947
 20
121.785694
 30
0.0
 10
42.962258
 20
121.610715
 30
0.0
 10
42.962258
 20
121.342603
 30
0.0
 10
42.871947
 20
121.164803
 30
0.0
 10
42.781636
 20
121.074492
 30
0.0
 10
42.516346
 20
120.987002
 30
0.0
 10
41.714833
 20
120.987002
 30
0.0
  0
LWPOLYLINE
  5
1d0
100
AcDbEntity
  8
Layer_1
 62
7
100
AcDbPolyline
 90
2
 70
0
 10
43.583153
 20
121.966316
 30
0.0
 10
43.583153
 20
120.098000
 30
0.0
  0
LWPOLYLINE
  5
1d1
100
AcDbEntity
  8
Layer_1
 62
7
100
AcDbPolyline
 90
2
 70
0
 10
44.830578
 20
121.966316
 30
0.0
 10
44.830578
 20
120.098000
 30
0.0
  0
LWPOLYLINE
  5
1d2
100
AcDbEntity
  8
Layer_1
 62
7
100
AcDbPolyline
 90
2
 70
0
 10
43.583153
 20
121.074492
 30
0.0
 10
44.830578
 20
121.074492
 30
0.0
  0
LWPOLYLINE
  5
1d3
100
AcDbEntity
  8
Layer_1
 62
7
100
AcDbPolyline
 90
20
 70
1
 10
45.984905
 20
121.966316
 30
0.0
 10
45.807104
 20
121.876005
 30
0.0
 10
45.629304
 20
121.698204
 30
0.0
 10
45.538993
 20
121.520404
 30
0.0
 10
45.451503
 20
121.255114
 30
0.0
 10
45.451503
 20
120.809202
 30
0.0
 10
45.538993
 20
120.543912
 30
0.0
 10
45.629304
 20
120.364701
 30
0.0
 10
45.807104
 20
120.186900
 30
0.0
 10
45.984905
 20
120.098000
 30
0.0
 10
46.340506
 20
120.098000
 30
0.0
 10
46.518306
 20
120.186900
 30
0.0
 10
46.696107
 20
120.364701
 30
0.0
 10
46.786418
 20
120.543912
 30
0.0
 10
46.873907
 20
120.809202
 30
0.0
 10
46.873907
 20
121.255114
 30
0.0
 10
46.786418
 20
121.520404
 30
0.0
 10
46.696107
 20
121.698204
 30
0.0
 10
46.518306
 20
121.876005
 30
0.0
 10
46.340506
 20
121.966316
 30
0.0
  0
LWPOLYLINE
  5
1d4
100
AcDbEntity
  8
Layer_1
 62
7
100
AcDbPolyline
 90
2
 70
0
 10
47.494793
 20
121.966316
 30
0.0
 10
47.494793
 20
120.098000
 30
0.0
  0
LWPOLYLINE
  5
1d5
100
AcDbEntity
  8
Layer_1
 62
7
100
AcDbPolyline
 90
2
 70
0
 10
47.494793
 20
121.966316
 30
0.0
 10
48.742218
 20
120.098000
 30
0.0
  0
LWPOLYLINE
  5
1d6
100
AcDbEntity
  8
Layer_1
 62
7
100
AcDbPolyline
 90
2
 70
0
 10
48.742218
 20
121.966316
 30
0.0
 10
48.742218
 20
120.098000
 30
0.0
  0
LWPOLYLINE
  5
1d7
100
AcDbEntity
  8
Layer_1
 62
7
100
AcDbPolyline
 90
2
 70
0
 10
49.450593
 20
121.966316
 30
0.0
 10
49.450593
 20
120.098000
 30
0.0
  0
LWPOLYLINE
  5
1d8
100
AcDbEntity
  8
Layer_1
 62
7
100
AcDbPolyline
 90
18
 70
0
 10
51.409218
 20
121.520404
 30
0.0
 10
51.318907
 20
121.698204
 30
0.0
 10
51.141106
 20
121.876005
 30
0.0
 10
50.963306
 20
121.966316
 30
0.0
 10
50.607705
 20
121.966316
 30
0.0
 10
50.429904
 20
121.876005
 30
0.0
 10
50.252104
 20
121.698204
 30
0.0
 10
50.161793
 20
121.520404
 30
0.0
 10
50.074303
 20
121.255114
 30
0.0
 10
50.074303
 20
120.809202
 30
0.0
 10
50.161793
 20
120.543912
 30
0.0
 10
50.252104
 20
120.364701
 30
0.0
 10
50.429904
 20
120.186900
 30
0.0
 10
50.607705
 20
120.098000
 30
0.0
 10
50.963306
 20
120.098000
 30
0.0
 10
51.141106
 20
120.186900
 30
0.0
 10
51.318907
 20
120.364701
 30
0.0
 10
51.409218
 20
120.543912
 30
0.0
  0
LWPOLYLINE
  5
1d9
100
AcDbEntity
  8
Layer_1
 62
7
100
AcDbPolyline
 90
2
 70
0
 10
53.096893
 20
121.966316
 30
0.0
 10
53.096893
 20
120.098000
 30
0.0
  0
LWPOLYLINE
  5
1da
100
AcDbEntity
  8
Layer_1
 62
7
100
AcDbPolyline
 90
2
 70
0
 10
53.096893
 20
121.966316
 30
0.0
 10
54.254007
 20
121.966316
 30
0.0
  0
LWPOLYLINE
  5
1db
100
AcDbEntity
  8
Layer_1
 62
7
100
AcDbPolyline
 90
2
 70
0
 10
53.096893
 20
121.074492
 30
0.0
 10
53.808095
 20
121.074492
 30
0.0
  0
LWPOLYLINE
  5
1dc
100
AcDbEntity
  8
Layer_1
 62
7
100
AcDbPolyline
 90
2
 70
0
 10
53.096893
 20
120.098000
 30
0.0
 10
54.254007
 20
120.098000
 30
0.0
  0
LWPOLYLINE
  5
1dd
100
AcDbEntity
  8
Layer_1
 62
7
100
AcDbPolyline
 90
2
 70
0
 10
54.784593
 20
121.966316
 30
0.0
 10
54.784593
 20
120.098000
 30
0.0
  0
LWPOLYLINE
  5
1de
100
AcDbEntity
  8
Layer_1
 62
7
100
AcDbPolyline
 90
2
 70
0
 10
54.784593
 20
121.966316
 30
0.0
 10
56.032018
 20
120.098000
 30
0.0
  0
LWPOLYLINE
  5
1df
100
AcDbEntity
  8
Layer_1
 62
7
100
AcDbPolyline
 90
2
 70
0
 10
56.032018
 20
121.966316
 30
0.0
 10
56.032018
 20
120.098000
 30
0.0
  0
LWPOLYLINE
  5
1e0
100
AcDbEntity
  8
Layer_1
 62
7
100
AcDbPolyline
 90
2
 70
0
 10
56.475103
 20
121.966316
 30
0.0
 10
57.186305
 20
120.098000
 30
0.0
  0
LWPOLYLINE
  5
1e1
100
AcDbEntity
  8
Layer_1
 62
7
100
AcDbPolyline
 90
2
 70
0
 10
57.897507
 20
121.966316
 30
0.0
 10
57.186305
 20
120.098000
 30
0.0
  0
LWPOLYLINE
  5
1e2
100
AcDbEntity
  8
Layer_1
 62
7
100
AcDbPolyline
 90
2
 70
0
 10
58.340593
 20
121.966316
 30
0.0
 10
58.340593
 20
120.098000
 30
0.0
  0
LWPOLYLINE
  5
1e3
100
AcDbEntity
  8
Layer_1
 62
7
100
AcDbPolyline
 90
2
 70
0
 10
58.340593
 20
121.966316
 30
0.0
 10
59.497707
 20
121.966316
 30
0.0
  0
LWPOLYLINE
  5
1e4
100
AcDbEntity
  8
Layer_1
 62
7
100
AcDbPolyline
 90
2
 70
0
 10
58.340593
 20
121.074492
 30
0.0
 10
59.051795
 20
121.074492
 30
0.0
  0
LWPOLYLINE
  5
1e5
100
AcDbEntity
  8
Layer_1
 62
7
100
AcDbPolyline
 90
2
 70
0
 10
58.340593
 20
120.098000
 30
0.0
 10
59.497707
 20
120.098000
 30
0.0
  0
LWPOLYLINE
  5
1e6
100
AcDbEntity
  8
Layer_1
 62
7
100
AcDbPolyline
 90
3
 70
0
 10
60.028293
 20
121.966316
 30
0.0
 10
60.028293
 20
120.098000
 30
0.0
 10
61.095096
 20
120.098000
 30
0.0
  0
LWPOLYLINE
  5
1e7
100
AcDbEntity
  8
Layer_1
 62
7
100
AcDbPolyline
 90
20
 70
1
 10
61.986905
 20
121.966316
 30
0.0
 10
61.809104
 20
121.876005
 30
0.0
 10
61.631304
 20
121.698204
 30
0.0
 10
61.540993
 20
121.520404
 30
0.0
 10
61.453503
 20
121.255114
 30
0.0
 10
61.453503
 20
120.809202
 30
0.0
 10
61.540993
 20
120.543912
 30
0.0
 10
61.631304
 20
120.364701
 30
0.0
 10
61.809104
 20
120.186900
 30
0.0
 10
61.986905
 20
120.098000
 30
0.0
 10
62.342506
 20
120.098000
 30
0.0
 10
62.520306
 20
120.186900
 30
0.0
 10
62.698107
 20
120.364701
 30
0.0
 10
62.788418
 20
120.543912
 30
0.0
 10
62.875907
 20
120.809202
 30
0.0
 10
62.875907
 20
121.255114
 30
0.0
 10
62.788418
 20
121.520404
 30
0.0
 10
62.698107
 20
121.698204
 30
0.0
 10
62.520306
 20
121.876005
 30
0.0
 10
62.342506
 20
121.966316
 30
0.0
  0
LWPOLYLINE
  5
1e8
100
AcDbEntity
  8
Layer_1
 62
7
100
AcDbPolyline
 90
2
 70
0
 10
63.496793
 20
121.966316
 30
0.0
 10
63.496793
 20
120.098000
 30
0.0
  0
LWPOLYLINE
  5
1e9
100
AcDbEntity
  8
Layer_1
 62
7
100
AcDbPolyline
 90
10
 70
0
 10
63.496793
 20
121.966316
 30
0.0
 10
64.298306
 20
121.966316
 30
0.0
 10
64.563596
 20
121.876005
 30
0.0
 10
64.653907
 20
121.785694
 30
0.0
 10
64.744218
 20
121.610715
 30
0.0
 10
64.744218
 20
121.342603
 30
0.0
 10
64.653907
 20
121.164803
 30
0.0
 10
64.563596
 20
121.074492
 30
0.0
 10
64.298306
 20
120.987002
 30
0.0
 10
63.496793
 20
120.987002
 30
0.0
  0
LWPOLYLINE
  5
1ea
100
AcDbEntity
  8
Layer_1
 62
7
100
AcDbPolyline
 90
2
 70
0
 10
65.365093
 20
121.966316
 30
0.0
 10
65.365093
 20
120.098000
 30
0.0
  0
LWPOLYLINE
  5
1eb
100
AcDbEntity
  8
Layer_1
 62
7
100
AcDbPolyline
 90
2
 70
0
 10
65.365093
 20
121.966316
 30
0.0
 10
66.522207
 20
121.966316
 30
0.0
  0
LWPOLYLINE
  5
1ec
100
AcDbEntity
  8
Layer_1
 62
7
100
AcDbPolyline
 90
2
 70
0
 10
65.365093
 20
121.074492
 30
0.0
 10
66.076295
 20
121.074492
 30
0.0
  0
LWPOLYLINE
  5
1ed
100
AcDbEntity
  8
Layer_1
 62
7
100
AcDbPolyline
 90
2
 70
0
 10
65.365093
 20
120.098000
 30
0.0
 10
66.522207
 20
120.098000
 30
0.0
  0
LWPOLYLINE
  5
1ee
100
AcDbEntity
  8
Layer_1
 62
7
100
AcDbPolyline
 90
2
 70
0
 10
82.725782
 20
61.871616
 30
0.0
 10
82.725782
 20
60.003300
 30
0.0
  0
LWPOLYLINE
  5
1ef
100
AcDbEntity
  8
Layer_1
 62
7
100
AcDbPolyline
 90
2
 70
0
 10
82.725782
 20
61.871616
 30
0.0
 10
83.882896
 20
61.871616
 30
0.0
  0
LWPOLYLINE
  5
1f0
100
AcDbEntity
  8
Layer_1
 62
7
100
AcDbPolyline
 90
2
 70
0
 10
82.725782
 20
60.979792
 30
0.0
 10
83.436984
 20
60.979792
 30
0.0
  0
LWPOLYLINE
  5
1f1
100
AcDbEntity
  8
Layer_1
 62
7
100
AcDbPolyline
 90
2
 70
0
 10
82.725782
 20
60.003300
 30
0.0
 10
83.882896
 20
60.003300
 30
0.0
  0
LWPOLYLINE
  5
1f2
100
AcDbEntity
  8
Layer_1
 62
7
100
AcDbPolyline
 90
2
 70
0
 10
84.413472
 20
61.871616
 30
0.0
 10
84.413472
 20
60.003300
 30
0.0
  0
LWPOLYLINE
  5
1f3
100
AcDbEntity
  8
Layer_1
 62
7
100
AcDbPolyline
 90
2
 70
0
 10
84.413472
 20
61.871616
 30
0.0
 10
85.660897
 20
60.003300
 30
0.0
  0
LWPOLYLINE
  5
1f4
100
AcDbEntity
  8
Layer_1
 62
7
100
AcDbPolyline
 90
2
 70
0
 10
85.660897
 20
61.871616
 30
0.0
 10
85.660897
 20
60.003300
 30
0.0
  0
LWPOLYLINE
  5
1f5
100
AcDbEntity
  8
Layer_1
 62
7
100
AcDbPolyline
 90
2
 70
0
 10
86.103992
 20
61.871616
 30
0.0
 10
86.815194
 20
60.003300
 30
0.0
  0
LWPOLYLINE
  5
1f6
100
AcDbEntity
  8
Layer_1
 62
7
100
AcDbPolyline
 90
2
 70
0
 10
87.526396
 20
61.871616
 30
0.0
 10
86.815194
 20
60.003300
 30
0.0
  0
LWPOLYLINE
  5
1f7
100
AcDbEntity
  8
Layer_1
 62
7
100
AcDbPolyline
 90
2
 70
0
 10
87.969482
 20
61.871616
 30
0.0
 10
87.969482
 20
60.003300
 30
0.0
  0
LWPOLYLINE
  5
1f8
100
AcDbEntity
  8
Layer_1
 62
7
100
AcDbPolyline
 90
2
 70
0
 10
87.969482
 20
61.871616
 30
0.0
 10
89.126596
 20
61.871616
 30
0.0
  0
LWPOLYLINE
  5
1f9
100
AcDbEntity
  8
Layer_1
 62
7
100
AcDbPolyline
 90
2
 70
0
 10
87.969482
 20
60.979792
 30
0.0
 10
88.680684
 20
60.979792
 30
0.0
  0
LWPOLYLINE
  5
1fa
100
AcDbEntity
  8
Layer_1
 62
7
100
AcDbPolyline
 90
2
 70
0
 10
87.969482
 20
60.003300
 30
0.0
 10
89.126596
 20
60.003300
 30
0.0
  0
LWPOLYLINE
  5
1fb
100
AcDbEntity
  8
Layer_1
 62
7
100
AcDbPolyline
 90
3
 70
0
 10
89.657182
 20
61.871616
 30
0.0
 10
89.657182
 20
60.003300
 30
0.0
 10
90.723985
 20
60.003300
 30
0.0
  0
LWPOLYLINE
  5
1fc
100
AcDbEntity
  8
Layer_1
 62
7
100
AcDbPolyline
 90
20
 70
1
 10
91.615804
 20
61.871616
 30
0.0
 10
91.438003
 20
61.781305
 30
0.0
 10
91.260203
 20
61.603504
 30
0.0
 10
91.169892
 20
61.425704
 30
0.0
 10
91.082402
 20
61.160414
 30
0.0
 10
91.082402
 20
60.714502
 30
0.0
 10
91.169892
 20
60.449212
 30
0.0
 10
91.260203
 20
60.270001
 30
0.0
 10
91.438003
 20
60.092200
 30
0.0
 10
91.615804
 20
60.003300
 30
0.0
 10
91.971405
 20
60.003300
 30
0.0
 10
92.149205
 20
60.092200
 30
0.0
 10
92.327006
 20
60.270001
 30
0.0
 10
92.417317
 20
60.449212
 30
0.0
 10
92.504806
 20
60.714502
 30
0.0
 10
92.504806
 20
61.160414
 30
0.0
 10
92.417317
 20
61.425704
 30
0.0
 10
92.327006
 20
61.603504
 30
0.0
 10
92.149205
 20
61.781305
 30
0.0
 10
91.971405
 20
61.871616
 30
0.0
  0
LWPOLYLINE
  5
1fd
100
AcDbEntity
  8
Layer_1
 62
7
100
AcDbPolyline
 90
2
 70
0
 10
93.125682
 20
61.871616
 30
0.0
 10
93.125682
 20
60.003300
 30
0.0
  0
LWPOLYLINE
  5
1fe
100
AcDbEntity
  8
Layer_1
 62
7
100
AcDbPolyline
 90
10
 70
0
 10
93.125682
 20
61.871616
 30
0.0
 10
93.927195
 20
61.871616
 30
0.0
 10
94.192485
 20
61.781305
 30
0.0
 10
94.282796
 20
61.690994
 30
0.0
 10
94.373107
 20
61.516015
 30
0.0
 10
94.373107
 20
61.247903
 30
0.0
 10
94.282796
 20
61.070103
 30
0.0
 10
94.192485
 20
60.979792
 30
0.0
 10
93.927195
 20
60.892302
 30
0.0
 10
93.125682
 20
60.892302
 30
0.0
  0
LWPOLYLINE
  5
1ff
100
AcDbEntity
  8
Layer_1
 62
7
100
AcDbPolyline
 90
2
 70
0
 10
94.993982
 20
61.871616
 30
0.0
 10
94.993982
 20
60.003300
 30
0.0
  0
LWPOLYLINE
  5
200
100
AcDbEntity
  8
Layer_1
 62
7
100
AcDbPolyline
 90
2
 70
0
 10
94.993982
 20
61.871616
 30
0.0
 10
96.151096
 20
61.871616
 30
0.0
  0
LWPOLYLINE
  5
201
100
AcDbEntity
  8
Layer_1
 62
7
100
AcDbPolyline
 90
2
 70
0
 10
94.993982
 20
60.979792
 30
0.0
 10
95.705184
 20
60.979792
 30
0.0
  0
LWPOLYLINE
  5
202
100
AcDbEntity
  8
Layer_1
 62
7
100
AcDbPolyline
 90
2
 70
0
 10
94.993982
 20
60.003300
 30
0.0
 10
96.151096
 20
60.003300
 30
0.0
  0
LWPOLYLINE
  5
203
100
AcDbEntity
  8
Layer_1
 62
7
100
AcDbPolyline
 90
20
 70
0
 10
97.838796
 20
61.603504
 30
0.0
 10
97.660995
 20
61.781305
 30
0.0
 10
97.392884
 20
61.871616
 30
0.0
 10
97.037283
 20
61.871616
 30
0.0
 10
96.771993
 20
61.781305
 30
0.0
 10
96.594192
 20
61.603504
 30
0.0
 10
96.594192
 20
61.425704
 30
0.0
 10
96.681682
 20
61.247903
 30
0.0
 10
96.771993
 20
61.160414
 30
0.0
 10
96.949793
 20
61.070103
 30
0.0
 10
97.483195
 20
60.892302
 30
0.0
 10
97.660995
 20
60.804813
 30
0.0
 10
97.748485
 20
60.714502
 30
0.0
 10
97.838796
 20
60.536701
 30
0.0
 10
97.838796
 20
60.270001
 30
0.0
 10
97.660995
 20
60.092200
 30
0.0
 10
97.392884
 20
60.003300
 30
0.0
 10
97.037283
 20
60.003300
 30
0.0
 10
96.771993
 20
60.092200
 30
0.0
 10
96.594192
 20
60.270001
 30
0.0
  0
LWPOLYLINE
  5
204
100
AcDbEntity
  8
Layer_1
 62
7
100
AcDbPolyline
 90
2
 70
0
 10
7.088549
 20
71.436439
 30
0.0
 10
7.088549
 20
69.568123
 30
0.0
  0
LWPOLYLINE
  5
205
100
AcDbEntity
  8
Layer_1
 62
7
100
AcDbPolyline
 90
2
 70
0
 10
6.467658
 20
71.436439
 30
0.0
 10
7.712261
 20
71.436439
 30
0.0
  0
LWPOLYLINE
  5
206
100
AcDbEntity
  8
Layer_1
 62
7
100
AcDbPolyline
 90
2
 70
0
 10
8.155348
 20
71.436439
 30
0.0
 10
8.155348
 20
69.568123
 30
0.0
  0
LWPOLYLINE
  5
207
100
AcDbEntity
  8
Layer_1
 62
7
100
AcDbPolyline
 90
10
 70
0
 10
8.155348
 20
71.436439
 30
0.0
 10
8.956861
 20
71.436439
 30
0.0
 10
9.222151
 20
71.346128
 30
0.0
 10
9.312462
 20
71.255817
 30
0.0
 10
9.402773
 20
71.080838
 30
0.0
 10
9.402773
 20
70.900216
 30
0.0
 10
9.312462
 20
70.725237
 30
0.0
 10
9.222151
 20
70.634926
 30
0.0
 10
8.956861
 20
70.544615
 30
0.0
 10
8.155348
 20
70.544615
 30
0.0
  0
LWPOLYLINE
  5
208
100
AcDbEntity
  8
Layer_1
 62
7
100
AcDbPolyline
 90
2
 70
0
 10
8.779060
 20
70.544615
 30
0.0
 10
9.402773
 20
69.568123
 30
0.0
  0
LWPOLYLINE
  5
209
100
AcDbEntity
  8
Layer_1
 62
7
100
AcDbPolyline
 90
2
 70
0
 10
10.023668
 20
71.436439
 30
0.0
 10
10.023668
 20
69.568123
 30
0.0
  0
LWPOLYLINE
  5
20a
100
AcDbEntity
  8
Layer_1
 62
7
100
AcDbPolyline
 90
19
 70
0
 10
11.982293
 20
70.990527
 30
0.0
 10
11.891982
 20
71.168327
 30
0.0
 10
11.714181
 20
71.346128
 30
0.0
 10
11.536381
 20
71.436439
 30
0.0
 10
11.180780
 20
71.436439
 30
0.0
 10
11.002979
 20
71.346128
 30
0.0
 10
10.825179
 20
71.168327
 30
0.0
 10
10.734868
 20
70.990527
 30
0.0
 10
10.647378
 20
70.725237
 30
0.0
 10
10.647378
 20
70.279325
 30
0.0
 10
10.734868
 20
70.014035
 30
0.0
 10
10.825179
 20
69.834824
 30
0.0
 10
11.002979
 20
69.657023
 30
0.0
 10
11.180780
 20
69.568123
 30
0.0
 10
11.536381
 20
69.568123
 30
0.0
 10
11.714181
 20
69.657023
 30
0.0
 10
11.891982
 20
69.834824
 30
0.0
 10
11.982293
 20
70.014035
 30
0.0
 10
11.982293
 20
70.279325
 30
0.0
  0
LWPOLYLINE
  5
20b
100
AcDbEntity
  8
Layer_1
 62
7
100
AcDbPolyline
 90
2
 70
0
 10
11.536381
 20
70.279325
 30
0.0
 10
11.982293
 20
70.279325
 30
0.0
  0
LWPOLYLINE
  5
20c
100
AcDbEntity
  8
Layer_1
 62
7
100
AcDbPolyline
 90
19
 70
0
 10
13.850613
 20
70.990527
 30
0.0
 10
13.760302
 20
71.168327
 30
0.0
 10
13.582501
 20
71.346128
 30
0.0
 10
13.404701
 20
71.436439
 30
0.0
 10
13.049100
 20
71.436439
 30
0.0
 10
12.871299
 20
71.346128
 30
0.0
 10
12.693499
 20
71.168327
 30
0.0
 10
12.603188
 20
70.990527
 30
0.0
 10
12.515698
 20
70.725237
 30
0.0
 10
12.515698
 20
70.279325
 30
0.0
 10
12.603188
 20
70.014035
 30
0.0
 10
12.693499
 20
69.834824
 30
0.0
 10
12.871299
 20
69.657023
 30
0.0
 10
13.049100
 20
69.568123
 30
0.0
 10
13.404701
 20
69.568123
 30
0.0
 10
13.582501
 20
69.657023
 30
0.0
 10
13.760302
 20
69.834824
 30
0.0
 10
13.850613
 20
70.014035
 30
0.0
 10
13.850613
 20
70.279325
 30
0.0
  0
LWPOLYLINE
  5
20d
100
AcDbEntity
  8
Layer_1
 62
7
100
AcDbPolyline
 90
2
 70
0
 10
13.404701
 20
70.279325
 30
0.0
 10
13.850613
 20
70.279325
 30
0.0
  0
LWPOLYLINE
  5
20e
100
AcDbEntity
  8
Layer_1
 62
7
100
AcDbPolyline
 90
2
 70
0
 10
14.471498
 20
71.436439
 30
0.0
 10
14.471498
 20
69.568123
 30
0.0
  0
LWPOLYLINE
  5
20f
100
AcDbEntity
  8
Layer_1
 62
7
100
AcDbPolyline
 90
2
 70
0
 10
14.471498
 20
71.436439
 30
0.0
 10
15.628612
 20
71.436439
 30
0.0
  0
LWPOLYLINE
  5
210
100
AcDbEntity
  8
Layer_1
 62
7
100
AcDbPolyline
 90
2
 70
0
 10
14.471498
 20
70.544615
 30
0.0
 10
15.182700
 20
70.544615
 30
0.0
  0
LWPOLYLINE
  5
211
100
AcDbEntity
  8
Layer_1
 62
7
100
AcDbPolyline
 90
2
 70
0
 10
14.471498
 20
69.568123
 30
0.0
 10
15.628612
 20
69.568123
 30
0.0
  0
LWPOLYLINE
  5
212
100
AcDbEntity
  8
Layer_1
 62
7
100
AcDbPolyline
 90
2
 70
0
 10
16.159198
 20
71.436439
 30
0.0
 10
16.159198
 20
69.568123
 30
0.0
  0
LWPOLYLINE
  5
213
100
AcDbEntity
  8
Layer_1
 62
7
100
AcDbPolyline
 90
10
 70
0
 10
16.159198
 20
71.436439
 30
0.0
 10
16.960711
 20
71.436439
 30
0.0
 10
17.226001
 20
71.346128
 30
0.0
 10
17.316312
 20
71.255817
 30
0.0
 10
17.406623
 20
71.080838
 30
0.0
 10
17.406623
 20
70.900216
 30
0.0
 10
17.316312
 20
70.725237
 30
0.0
 10
17.226001
 20
70.634926
 30
0.0
 10
16.960711
 20
70.544615
 30
0.0
 10
16.159198
 20
70.544615
 30
0.0
  0
LWPOLYLINE
  5
214
100
AcDbEntity
  8
Layer_1
 62
7
100
AcDbPolyline
 90
2
 70
0
 10
16.782910
 20
70.544615
 30
0.0
 10
17.406623
 20
69.568123
 30
0.0
  0
LWPOLYLINE
  5
215
100
AcDbEntity
  8
Layer_1
 62
7
100
AcDbPolyline
 90
20
 70
0
 10
56.736622
 20
116.331504
 30
0.0
 10
56.558821
 20
116.509305
 30
0.0
 10
56.290710
 20
116.599616
 30
0.0
 10
55.935109
 20
116.599616
 30
0.0
 10
55.669819
 20
116.509305
 30
0.0
 10
55.492018
 20
116.331504
 30
0.0
 10
55.492018
 20
116.153704
 30
0.0
 10
55.579508
 20
115.975903
 30
0.0
 10
55.669819
 20
115.888414
 30
0.0
 10
55.847619
 20
115.798103
 30
0.0
 10
56.381021
 20
115.620302
 30
0.0
 10
56.558821
 20
115.532813
 30
0.0
 10
56.646311
 20
115.442502
 30
0.0
 10
56.736622
 20
115.264701
 30
0.0
 10
56.736622
 20
114.998001
 30
0.0
 10
56.558821
 20
114.820200
 30
0.0
 10
56.290710
 20
114.731300
 30
0.0
 10
55.935109
 20
114.731300
 30
0.0
 10
55.669819
 20
114.820200
 30
0.0
 10
55.492018
 20
114.998001
 30
0.0
  0
LWPOLYLINE
  5
216
100
AcDbEntity
  8
Layer_1
 62
7
100
AcDbPolyline
 90
10
 70
0
 10
57.357508
 20
116.599616
 30
0.0
 10
57.357508
 20
115.264701
 30
0.0
 10
57.447819
 20
114.998001
 30
0.0
 10
57.625619
 20
114.820200
 30
0.0
 10
57.893731
 20
114.731300
 30
0.0
 10
58.068710
 20
114.731300
 30
0.0
 10
58.336821
 20
114.820200
 30
0.0
 10
58.514622
 20
114.998001
 30
0.0
 10
58.604933
 20
115.264701
 30
0.0
 10
58.604933
 20
116.599616
 30
0.0
  0
LWPOLYLINE
  5
217
100
AcDbEntity
  8
Layer_1
 62
7
100
AcDbPolyline
 90
20
 70
0
 10
60.470432
 20
116.331504
 30
0.0
 10
60.292631
 20
116.509305
 30
0.0
 10
60.024520
 20
116.599616
 30
0.0
 10
59.668919
 20
116.599616
 30
0.0
 10
59.403629
 20
116.509305
 30
0.0
 10
59.225828
 20
116.331504
 30
0.0
 10
59.225828
 20
116.153704
 30
0.0
 10
59.313318
 20
115.975903
 30
0.0
 10
59.403629
 20
115.888414
 30
0.0
 10
59.581429
 20
115.798103
 30
0.0
 10
60.114831
 20
115.620302
 30
0.0
 10
60.292631
 20
115.532813
 30
0.0
 10
60.380121
 20
115.442502
 30
0.0
 10
60.470432
 20
115.264701
 30
0.0
 10
60.470432
 20
114.998001
 30
0.0
 10
60.292631
 20
114.820200
 30
0.0
 10
60.024520
 20
114.731300
 30
0.0
 10
59.668919
 20
114.731300
 30
0.0
 10
59.403629
 20
114.820200
 30
0.0
 10
59.225828
 20
114.998001
 30
0.0
  0
LWPOLYLINE
  5
218
100
AcDbEntity
  8
Layer_1
 62
7
100
AcDbPolyline
 90
2
 70
0
 10
61.446929
 20
116.599616
 30
0.0
 10
61.446929
 20
114.731300
 30
0.0
  0
LWPOLYLINE
  5
219
100
AcDbEntity
  8
Layer_1
 62
7
100
AcDbPolyline
 90
2
 70
0
 10
60.826038
 20
116.599616
 30
0.0
 10
62.070641
 20
116.599616
 30
0.0
  0
LWPOLYLINE
  5
21a
100
AcDbEntity
  8
Layer_1
 62
7
100
AcDbPolyline
 90
2
 70
0
 10
62.959640
 20
116.599616
 30
0.0
 10
62.248438
 20
114.731300
 30
0.0
  0
LWPOLYLINE
  5
21b
100
AcDbEntity
  8
Layer_1
 62
7
100
AcDbPolyline
 90
2
 70
0
 10
62.959640
 20
116.599616
 30
0.0
 10
63.670842
 20
114.731300
 30
0.0
  0
LWPOLYLINE
  5
21c
100
AcDbEntity
  8
Layer_1
 62
7
100
AcDbPolyline
 90
2
 70
0
 10
62.513728
 20
115.352191
 30
0.0
 10
63.405552
 20
115.352191
 30
0.0
  0
LWPOLYLINE
  5
21d
100
AcDbEntity
  8
Layer_1
 62
7
100
AcDbPolyline
 90
2
 70
0
 10
64.113928
 20
116.599616
 30
0.0
 10
64.113928
 20
114.731300
 30
0.0
  0
LWPOLYLINE
  5
21e
100
AcDbEntity
  8
Layer_1
 62
7
100
AcDbPolyline
 90
2
 70
0
 10
64.825138
 20
116.599616
 30
0.0
 10
64.825138
 20
114.731300
 30
0.0
  0
LWPOLYLINE
  5
21f
100
AcDbEntity
  8
Layer_1
 62
7
100
AcDbPolyline
 90
2
 70
0
 10
64.825138
 20
116.599616
 30
0.0
 10
66.072563
 20
114.731300
 30
0.0
  0
LWPOLYLINE
  5
220
100
AcDbEntity
  8
Layer_1
 62
7
100
AcDbPolyline
 90
2
 70
0
 10
66.072563
 20
116.599616
 30
0.0
 10
66.072563
 20
114.731300
 30
0.0
  0
LWPOLYLINE
  5
221
100
AcDbEntity
  8
Layer_1
 62
7
100
AcDbPolyline
 90
2
 70
0
 10
75.713560
 20
116.557316
 30
0.0
 10
75.713560
 20
114.689000
 30
0.0
  0
LWPOLYLINE
  5
222
100
AcDbEntity
  8
Layer_1
 62
7
100
AcDbPolyline
 90
10
 70
0
 10
75.713560
 20
116.557316
 30
0.0
 10
76.515073
 20
116.557316
 30
0.0
 10
76.780363
 20
116.467005
 30
0.0
 10
76.870674
 20
116.376694
 30
0.0
 10
76.960985
 20
116.201715
 30
0.0
 10
76.960985
 20
116.021093
 30
0.0
 10
76.870674
 20
115.846114
 30
0.0
 10
76.780363
 20
115.755803
 30
0.0
 10
76.515073
 20
115.665492
 30
0.0
 10
75.713560
 20
115.665492
 30
0.0
  0
LWPOLYLINE
  5
223
100
AcDbEntity
  8
Layer_1
 62
7
100
AcDbPolyline
 90
2
 70
0
 10
76.337272
 20
115.665492
 30
0.0
 10
76.960985
 20
114.689000
 30
0.0
  0
LWPOLYLINE
  5
224
100
AcDbEntity
  8
Layer_1
 62
7
100
AcDbPolyline
 90
2
 70
0
 10
77.581880
 20
116.557316
 30
0.0
 10
77.581880
 20
114.689000
 30
0.0
  0
LWPOLYLINE
  5
225
100
AcDbEntity
  8
Layer_1
 62
7
100
AcDbPolyline
 90
2
 70
0
 10
77.581880
 20
116.557316
 30
0.0
 10
78.738994
 20
116.557316
 30
0.0
  0
LWPOLYLINE
  5
226
100
AcDbEntity
  8
Layer_1
 62
7
100
AcDbPolyline
 90
2
 70
0
 10
77.581880
 20
115.665492
 30
0.0
 10
78.293082
 20
115.665492
 30
0.0
  0
LWPOLYLINE
  5
227
100
AcDbEntity
  8
Layer_1
 62
7
100
AcDbPolyline
 90
2
 70
0
 10
77.581880
 20
114.689000
 30
0.0
 10
78.738994
 20
114.689000
 30
0.0
  0
LWPOLYLINE
  5
228
100
AcDbEntity
  8
Layer_1
 62
7
100
AcDbPolyline
 90
3
 70
0
 10
79.269570
 20
116.557316
 30
0.0
 10
79.269570
 20
114.689000
 30
0.0
 10
80.336373
 20
114.689000
 30
0.0
  0
LWPOLYLINE
  5
229
100
AcDbEntity
  8
Layer_1
 62
7
100
AcDbPolyline
 90
2
 70
0
 10
80.782290
 20
116.557316
 30
0.0
 10
80.782290
 20
114.689000
 30
0.0
  0
LWPOLYLINE
  5
22a
100
AcDbEntity
  8
Layer_1
 62
7
100
AcDbPolyline
 90
2
 70
0
 10
80.782290
 20
116.557316
 30
0.0
 10
81.939404
 20
116.557316
 30
0.0
  0
LWPOLYLINE
  5
22b
100
AcDbEntity
  8
Layer_1
 62
7
100
AcDbPolyline
 90
2
 70
0
 10
80.782290
 20
115.665492
 30
0.0
 10
81.493492
 20
115.665492
 30
0.0
  0
LWPOLYLINE
  5
22c
100
AcDbEntity
  8
Layer_1
 62
7
100
AcDbPolyline
 90
2
 70
0
 10
80.782290
 20
114.689000
 30
0.0
 10
81.939404
 20
114.689000
 30
0.0
  0
LWPOLYLINE
  5
22d
100
AcDbEntity
  8
Layer_1
 62
7
100
AcDbPolyline
 90
2
 70
0
 10
82.915892
 20
116.557316
 30
0.0
 10
82.204690
 20
114.689000
 30
0.0
  0
LWPOLYLINE
  5
22e
100
AcDbEntity
  8
Layer_1
 62
7
100
AcDbPolyline
 90
2
 70
0
 10
82.915892
 20
116.557316
 30
0.0
 10
83.627094
 20
114.689000
 30
0.0
  0
LWPOLYLINE
  5
22f
100
AcDbEntity
  8
Layer_1
 62
7
100
AcDbPolyline
 90
2
 70
0
 10
82.469980
 20
115.309891
 30
0.0
 10
83.361804
 20
115.309891
 30
0.0
  0
LWPOLYLINE
  5
230
100
AcDbEntity
  8
Layer_1
 62
7
100
AcDbPolyline
 90
20
 70
0
 10
85.227294
 20
116.289204
 30
0.0
 10
85.049493
 20
116.467005
 30
0.0
 10
84.781382
 20
116.557316
 30
0.0
 10
84.425781
 20
116.557316
 30
0.0
 10
84.160491
 20
116.467005
 30
0.0
 10
83.982690
 20
116.289204
 30
0.0
 10
83.982690
 20
116.111404
 30
0.0
 10
84.070180
 20
115.933603
 30
0.0
 10
84.160491
 20
115.846114
 30
0.0
 10
84.338291
 20
115.755803
 30
0.0
 10
84.871693
 20
115.578002
 30
0.0
 10
85.049493
 20
115.490513
 30
0.0
 10
85.136983
 20
115.400202
 30
0.0
 10
85.227294
 20
115.222401
 30
0.0
 10
85.227294
 20
114.955701
 30
0.0
 10
85.049493
 20
114.777900
 30
0.0
 10
84.781382
 20
114.689000
 30
0.0
 10
84.425781
 20
114.689000
 30
0.0
 10
84.160491
 20
114.777900
 30
0.0
 10
83.982690
 20
114.955701
 30
0.0
  0
LWPOLYLINE
  5
231
100
AcDbEntity
  8
Layer_1
 62
7
100
AcDbPolyline
 90
2
 70
0
 10
85.848160
 20
116.557316
 30
0.0
 10
85.848160
 20
114.689000
 30
0.0
  0
LWPOLYLINE
  5
232
100
AcDbEntity
  8
Layer_1
 62
7
100
AcDbPolyline
 90
2
 70
0
 10
85.848160
 20
116.557316
 30
0.0
 10
87.005274
 20
116.557316
 30
0.0
  0
LWPOLYLINE
  5
233
100
AcDbEntity
  8
Layer_1
 62
7
100
AcDbPolyline
 90
2
 70
0
 10
85.848160
 20
115.665492
 30
0.0
 10
86.559362
 20
115.665492
 30
0.0
  0
LWPOLYLINE
  5
234
100
AcDbEntity
  8
Layer_1
 62
7
100
AcDbPolyline
 90
2
 70
0
 10
85.848160
 20
114.689000
 30
0.0
 10
87.005274
 20
114.689000
 30
0.0
  0
LWPOLYLINE
  5
235
100
AcDbEntity
  8
Layer_1
 62
7
100
AcDbPolyline
 90
2
 70
0
 10
36.691470
 20
116.599616
 30
0.0
 10
36.691470
 20
114.731300
 30
0.0
  0
LWPOLYLINE
  5
236
100
AcDbEntity
  8
Layer_1
 62
7
100
AcDbPolyline
 90
12
 70
0
 10
36.691470
 20
116.599616
 30
0.0
 10
37.315182
 20
116.599616
 30
0.0
 10
37.583294
 20
116.509305
 30
0.0
 10
37.758273
 20
116.331504
 30
0.0
 10
37.848584
 20
116.153704
 30
0.0
 10
37.938895
 20
115.888414
 30
0.0
 10
37.938895
 20
115.442502
 30
0.0
 10
37.848584
 20
115.177212
 30
0.0
 10
37.758273
 20
114.998001
 30
0.0
 10
37.583294
 20
114.820200
 30
0.0
 10
37.315182
 20
114.731300
 30
0.0
 10
36.691470
 20
114.731300
 30
0.0
  0
LWPOLYLINE
  5
237
100
AcDbEntity
  8
Layer_1
 62
7
100
AcDbPolyline
 90
2
 70
0
 10
38.559790
 20
116.599616
 30
0.0
 10
38.559790
 20
114.731300
 30
0.0
  0
LWPOLYLINE
  5
238
100
AcDbEntity
  8
Layer_1
 62
7
100
AcDbPolyline
 90
2
 70
0
 10
38.559790
 20
116.599616
 30
0.0
 10
39.716904
 20
116.599616
 30
0.0
  0
LWPOLYLINE
  5
239
100
AcDbEntity
  8
Layer_1
 62
7
100
AcDbPolyline
 90
2
 70
0
 10
38.559790
 20
115.707792
 30
0.0
 10
39.270992
 20
115.707792
 30
0.0
  0
LWPOLYLINE
  5
23a
100
AcDbEntity
  8
Layer_1
 62
7
100
AcDbPolyline
 90
2
 70
0
 10
38.559790
 20
114.731300
 30
0.0
 10
39.716904
 20
114.731300
 30
0.0
  0
LWPOLYLINE
  5
23b
100
AcDbEntity
  8
Layer_1
 62
7
100
AcDbPolyline
 90
18
 70
0
 10
41.494905
 20
116.153704
 30
0.0
 10
41.404594
 20
116.331504
 30
0.0
 10
41.226793
 20
116.509305
 30
0.0
 10
41.048993
 20
116.599616
 30
0.0
 10
40.693392
 20
116.599616
 30
0.0
 10
40.515591
 20
116.509305
 30
0.0
 10
40.337791
 20
116.331504
 30
0.0
 10
40.247480
 20
116.153704
 30
0.0
 10
40.159990
 20
115.888414
 30
0.0
 10
40.159990
 20
115.442502
 30
0.0
 10
40.247480
 20
115.177212
 30
0.0
 10
40.337791
 20
114.998001
 30
0.0
 10
40.515591
 20
114.820200
 30
0.0
 10
40.693392
 20
114.731300
 30
0.0
 10
41.048993
 20
114.731300
 30
0.0
 10
41.226793
 20
114.820200
 30
0.0
 10
41.404594
 20
114.998001
 30
0.0
 10
41.494905
 20
115.177212
 30
0.0
  0
LWPOLYLINE
  5
23c
100
AcDbEntity
  8
Layer_1
 62
7
100
AcDbPolyline
 90
2
 70
0
 10
42.561712
 20
116.599616
 30
0.0
 10
41.850510
 20
114.731300
 30
0.0
  0
LWPOLYLINE
  5
23d
100
AcDbEntity
  8
Layer_1
 62
7
100
AcDbPolyline
 90
2
 70
0
 10
42.561712
 20
116.599616
 30
0.0
 10
43.272914
 20
114.731300
 30
0.0
  0
LWPOLYLINE
  5
23e
100
AcDbEntity
  8
Layer_1
 62
7
100
AcDbPolyline
 90
2
 70
0
 10
42.115800
 20
115.352191
 30
0.0
 10
43.007624
 20
115.352191
 30
0.0
  0
LWPOLYLINE
  5
23f
100
AcDbEntity
  8
Layer_1
 62
7
100
AcDbPolyline
 90
3
 70
0
 10
43.450710
 20
116.599616
 30
0.0
 10
44.161912
 20
115.707792
 30
0.0
 10
44.161912
 20
114.731300
 30
0.0
  0
LWPOLYLINE
  5
240
100
AcDbEntity
  8
Layer_1
 62
7
100
AcDbPolyline
 90
2
 70
0
 10
44.873114
 20
116.599616
 30
0.0
 10
44.161912
 20
115.707792
 30
0.0
  0
LWPOLYLINE
  5
241
100
AcDbEntity
  8
Layer_1
 62
7
100
AcDbPolyline
 90
2
 70
0
 10
16.780371
 20
116.599616
 30
0.0
 10
16.069169
 20
114.731300
 30
0.0
  0
LWPOLYLINE
  5
242
100
AcDbEntity
  8
Layer_1
 62
7
100
AcDbPolyline
 90
2
 70
0
 10
16.780371
 20
116.599616
 30
0.0
 10
17.491573
 20
114.731300
 30
0.0
  0
LWPOLYLINE
  5
243
100
AcDbEntity
  8
Layer_1
 62
7
100
AcDbPolyline
 90
2
 70
0
 10
16.334459
 20
115.352191
 30
0.0
 10
17.226283
 20
115.352191
 30
0.0
  0
LWPOLYLINE
  5
244
100
AcDbEntity
  8
Layer_1
 62
7
100
AcDbPolyline
 90
2
 70
0
 10
18.290260
 20
116.599616
 30
0.0
 10
18.290260
 20
114.731300
 30
0.0
  0
LWPOLYLINE
  5
245
100
AcDbEntity
  8
Layer_1
 62
7
100
AcDbPolyline
 90
2
 70
0
 10
17.669369
 20
116.599616
 30
0.0
 10
18.913972
 20
116.599616
 30
0.0
  0
LWPOLYLINE
  5
246
100
AcDbEntity
  8
Layer_1
 62
7
100
AcDbPolyline
 90
2
 70
0
 10
19.712670
 20
116.599616
 30
0.0
 10
19.712670
 20
114.731300
 30
0.0
  0
LWPOLYLINE
  5
247
100
AcDbEntity
  8
Layer_1
 62
7
100
AcDbPolyline
 90
2
 70
0
 10
19.091779
 20
116.599616
 30
0.0
 10
20.336382
 20
116.599616
 30
0.0
  0
LWPOLYLINE
  5
248
100
AcDbEntity
  8
Layer_1
 62
7
100
AcDbPolyline
 90
2
 70
0
 10
21.225381
 20
116.599616
 30
0.0
 10
20.514179
 20
114.731300
 30
0.0
  0
LWPOLYLINE
  5
249
100
AcDbEntity
  8
Layer_1
 62
7
100
AcDbPolyline
 90
2
 70
0
 10
21.225381
 20
116.599616
 30
0.0
 10
21.936583
 20
114.731300
 30
0.0
  0
LWPOLYLINE
  5
24a
100
AcDbEntity
  8
Layer_1
 62
7
100
AcDbPolyline
 90
2
 70
0
 10
20.779469
 20
115.352191
 30
0.0
 10
21.671293
 20
115.352191
 30
0.0
  0
LWPOLYLINE
  5
24b
100
AcDbEntity
  8
Layer_1
 62
7
100
AcDbPolyline
 90
18
 70
0
 10
23.627104
 20
116.153704
 30
0.0
 10
23.536793
 20
116.331504
 30
0.0
 10
23.358992
 20
116.509305
 30
0.0
 10
23.181192
 20
116.599616
 30
0.0
 10
22.825591
 20
116.599616
 30
0.0
 10
22.647790
 20
116.509305
 30
0.0
 10
22.469990
 20
116.331504
 30
0.0
 10
22.379679
 20
116.153704
 30
0.0
 10
22.292189
 20
115.888414
 30
0.0
 10
22.292189
 20
115.442502
 30
0.0
 10
22.379679
 20
115.177212
 30
0.0
 10
22.469990
 20
114.998001
 30
0.0
 10
22.647790
 20
114.820200
 30
0.0
 10
22.825591
 20
114.731300
 30
0.0
 10
23.181192
 20
114.731300
 30
0.0
 10
23.358992
 20
114.820200
 30
0.0
 10
23.536793
 20
114.998001
 30
0.0
 10
23.627104
 20
115.177212
 30
0.0
  0
LWPOLYLINE
  5
24c
100
AcDbEntity
  8
Layer_1
 62
7
100
AcDbPolyline
 90
2
 70
0
 10
24.247989
 20
116.599616
 30
0.0
 10
24.247989
 20
114.731300
 30
0.0
  0
LWPOLYLINE
  5
24d
100
AcDbEntity
  8
Layer_1
 62
7
100
AcDbPolyline
 90
2
 70
0
 10
25.495414
 20
116.599616
 30
0.0
 10
24.247989
 20
115.352191
 30
0.0
  0
LWPOLYLINE
  5
24e
100
AcDbEntity
  8
Layer_1
 62
7
100
AcDbPolyline
 90
2
 70
0
 10
24.693901
 20
115.798103
 30
0.0
 10
25.495414
 20
114.731300
 30
0.0
  0
LWPOLYLINE
  5
24f
100
AcDbEntity
  8
Layer_1
 62
7
100
AcDbPolyline
 90
2
 70
0
 10
42.028088
 20
125.718476
 30
0.0
 10
42.028088
 20
123.850160
 30
0.0
  0
LWPOLYLINE
  5
250
100
AcDbEntity
  8
Layer_1
 62
7
100
AcDbPolyline
 90
10
 70
0
 10
42.028088
 20
125.718476
 30
0.0
 10
42.829601
 20
125.718476
 30
0.0
 10
43.094891
 20
125.628165
 30
0.0
 10
43.185202
 20
125.537854
 30
0.0
 10
43.275513
 20
125.362875
 30
0.0
 10
43.275513
 20
125.182253
 30
0.0
 10
43.185202
 20
125.007274
 30
0.0
 10
43.094891
 20
124.916963
 30
0.0
 10
42.829601
 20
124.826652
 30
0.0
 10
42.028088
 20
124.826652
 30
0.0
  0
LWPOLYLINE
  5
251
100
AcDbEntity
  8
Layer_1
 62
7
100
AcDbPolyline
 90
2
 70
0
 10
42.651800
 20
124.826652
 30
0.0
 10
43.275513
 20
123.850160
 30
0.0
  0
LWPOLYLINE
  5
252
100
AcDbEntity
  8
Layer_1
 62
7
100
AcDbPolyline
 90
16
 70
1
 10
44.252009
 20
125.094763
 30
0.0
 10
44.077030
 20
125.007274
 30
0.0
 10
43.896408
 20
124.826652
 30
0.0
 10
43.808918
 20
124.561362
 30
0.0
 10
43.808918
 20
124.383561
 30
0.0
 10
43.896408
 20
124.116861
 30
0.0
 10
44.077030
 20
123.939060
 30
0.0
 10
44.252009
 20
123.850160
 30
0.0
 10
44.520120
 20
123.850160
 30
0.0
 10
44.697921
 20
123.939060
 30
0.0
 10
44.875721
 20
124.116861
 30
0.0
 10
44.963211
 20
124.383561
 30
0.0
 10
44.963211
 20
124.561362
 30
0.0
 10
44.875721
 20
124.826652
 30
0.0
 10
44.697921
 20
125.007274
 30
0.0
 10
44.520120
 20
125.094763
 30
0.0
  0
LWPOLYLINE
  5
253
100
AcDbEntity
  8
Layer_1
 62
7
100
AcDbPolyline
 90
2
 70
0
 10
45.584098
 20
125.718476
 30
0.0
 10
45.584098
 20
123.850160
 30
0.0
  0
LWPOLYLINE
  5
254
100
AcDbEntity
  8
Layer_1
 62
7
100
AcDbPolyline
 90
14
 70
0
 10
45.584098
 20
124.826652
 30
0.0
 10
45.764720
 20
125.007274
 30
0.0
 10
45.939699
 20
125.094763
 30
0.0
 10
46.207810
 20
125.094763
 30
0.0
 10
46.385611
 20
125.007274
 30
0.0
 10
46.563411
 20
124.826652
 30
0.0
 10
46.650901
 20
124.561362
 30
0.0
 10
46.650901
 20
124.383561
 30
0.0
 10
46.563411
 20
124.116861
 30
0.0
 10
46.385611
 20
123.939060
 30
0.0
 10
46.207810
 20
123.850160
 30
0.0
 10
45.939699
 20
123.850160
 30
0.0
 10
45.764720
 20
123.939060
 30
0.0
 10
45.584098
 20
124.116861
 30
0.0
  0
LWPOLYLINE
  5
255
100
AcDbEntity
  8
Layer_1
 62
7
100
AcDbPolyline
 90
16
 70
1
 10
47.627389
 20
125.094763
 30
0.0
 10
47.452410
 20
125.007274
 30
0.0
 10
47.271788
 20
124.826652
 30
0.0
 10
47.184298
 20
124.561362
 30
0.0
 10
47.184298
 20
124.383561
 30
0.0
 10
47.271788
 20
124.116861
 30
0.0
 10
47.452410
 20
123.939060
 30
0.0
 10
47.627389
 20
123.850160
 30
0.0
 10
47.895500
 20
123.850160
 30
0.0
 10
48.073301
 20
123.939060
 30
0.0
 10
48.251101
 20
124.116861
 30
0.0
 10
48.338591
 20
124.383561
 30
0.0
 10
48.338591
 20
124.561362
 30
0.0
 10
48.251101
 20
124.826652
 30
0.0
 10
48.073301
 20
125.007274
 30
0.0
 10
47.895500
 20
125.094763
 30
0.0
  0
LWPOLYLINE
  5
256
100
AcDbEntity
  8
Layer_1
 62
7
100
AcDbPolyline
 90
5
 70
0
 10
49.049799
 20
125.718476
 30
0.0
 10
49.049799
 20
124.205761
 30
0.0
 10
49.140110
 20
123.939060
 30
0.0
 10
49.315089
 20
123.850160
 30
0.0
 10
49.495711
 20
123.850160
 30
0.0
  0
LWPOLYLINE
  5
257
100
AcDbEntity
  8
Layer_1
 62
7
100
AcDbPolyline
 90
2
 70
0
 10
48.784509
 20
125.094763
 30
0.0
 10
49.405400
 20
125.094763
 30
0.0
  0
LWPOLYLINE
  5
258
100
AcDbEntity
  8
Layer_1
 62
7
100
AcDbPolyline
 90
2
 70
0
 10
50.026288
 20
125.718476
 30
0.0
 10
50.026288
 20
123.850160
 30
0.0
  0
LWPOLYLINE
  5
259
100
AcDbEntity
  8
Layer_1
 62
7
100
AcDbPolyline
 90
12
 70
0
 10
50.026288
 20
125.718476
 30
0.0
 10
50.650000
 20
125.718476
 30
0.0
 10
50.918112
 20
125.628165
 30
0.0
 10
51.093091
 20
125.450364
 30
0.0
 10
51.183402
 20
125.272564
 30
0.0
 10
51.273713
 20
125.007274
 30
0.0
 10
51.273713
 20
124.561362
 30
0.0
 10
51.183402
 20
124.296072
 30
0.0
 10
51.093091
 20
124.116861
 30
0.0
 10
50.918112
 20
123.939060
 30
0.0
 10
50.650000
 20
123.850160
 30
0.0
 10
50.026288
 20
123.850160
 30
0.0
  0
LWPOLYLINE
  5
25a
100
AcDbEntity
  8
Layer_1
 62
7
100
AcDbPolyline
 90
4
 70
1
 10
51.807118
 20
125.718476
 30
0.0
 10
51.894608
 20
125.628165
 30
0.0
 10
51.984919
 20
125.718476
 30
0.0
 10
51.894608
 20
125.805965
 30
0.0
  0
LWPOLYLINE
  5
25b
100
AcDbEntity
  8
Layer_1
 62
7
100
AcDbPolyline
 90
2
 70
0
 10
51.894608
 20
125.094763
 30
0.0
 10
51.894608
 20
123.850160
 30
0.0
  0
LWPOLYLINE
  5
25c
100
AcDbEntity
  8
Layer_1
 62
7
100
AcDbPolyline
 90
2
 70
0
 10
53.585101
 20
125.094763
 30
0.0
 10
53.585101
 20
123.850160
 30
0.0
  0
LWPOLYLINE
  5
25d
100
AcDbEntity
  8
Layer_1
 62
7
100
AcDbPolyline
 90
14
 70
0
 10
53.585101
 20
124.826652
 30
0.0
 10
53.407301
 20
125.007274
 30
0.0
 10
53.229500
 20
125.094763
 30
0.0
 10
52.961389
 20
125.094763
 30
0.0
 10
52.786410
 20
125.007274
 30
0.0
 10
52.605788
 20
124.826652
 30
0.0
 10
52.518298
 20
124.561362
 30
0.0
 10
52.518298
 20
124.383561
 30
0.0
 10
52.605788
 20
124.116861
 30
0.0
 10
52.786410
 20
123.939060
 30
0.0
 10
52.961389
 20
123.850160
 30
0.0
 10
53.229500
 20
123.850160
 30
0.0
 10
53.407301
 20
123.939060
 30
0.0
 10
53.585101
 20
124.116861
 30
0.0
  0
LWPOLYLINE
  5
25e
100
AcDbEntity
  8
Layer_1
 62
7
100
AcDbPolyline
 90
2
 70
0
 10
54.293488
 20
125.718476
 30
0.0
 10
54.293488
 20
123.850160
 30
0.0
  0
LWPOLYLINE
  5
25f
100
AcDbEntity
  8
Layer_1
 62
7
100
AcDbPolyline
 90
16
 70
1
 10
55.360289
 20
125.094763
 30
0.0
 10
55.185310
 20
125.007274
 30
0.0
 10
55.004688
 20
124.826652
 30
0.0
 10
54.917198
 20
124.561362
 30
0.0
 10
54.917198
 20
124.383561
 30
0.0
 10
55.004688
 20
124.116861
 30
0.0
 10
55.185310
 20
123.939060
 30
0.0
 10
55.360289
 20
123.850160
 30
0.0
 10
55.628400
 20
123.850160
 30
0.0
 10
55.806201
 20
123.939060
 30
0.0
 10
55.984001
 20
124.116861
 30
0.0
 10
56.071491
 20
124.383561
 30
0.0
 10
56.071491
 20
124.561362
 30
0.0
 10
55.984001
 20
124.826652
 30
0.0
 10
55.806201
 20
125.007274
 30
0.0
 10
55.628400
 20
125.094763
 30
0.0
  0
LWPOLYLINE
  5
260
100
AcDbEntity
  8
Layer_1
 62
7
100
AcDbPolyline
 90
7
 70
0
 10
57.671701
 20
125.094763
 30
0.0
 10
57.671701
 20
123.672360
 30
0.0
 10
57.584212
 20
123.404248
 30
0.0
 10
57.493901
 20
123.316759
 30
0.0
 10
57.316100
 20
123.229269
 30
0.0
 10
57.047989
 20
123.229269
 30
0.0
 10
56.873010
 20
123.316759
 30
0.0
  0
LWPOLYLINE
  5
261
100
AcDbEntity
  8
Layer_1
 62
7
100
AcDbPolyline
 90
14
 70
0
 10
57.671701
 20
124.826652
 30
0.0
 10
57.493901
 20
125.007274
 30
0.0
 10
57.316100
 20
125.094763
 30
0.0
 10
57.047989
 20
125.094763
 30
0.0
 10
56.873010
 20
125.007274
 30
0.0
 10
56.692388
 20
124.826652
 30
0.0
 10
56.604898
 20
124.561362
 30
0.0
 10
56.604898
 20
124.383561
 30
0.0
 10
56.692388
 20
124.116861
 30
0.0
 10
56.873010
 20
123.939060
 30
0.0
 10
57.047989
 20
123.850160
 30
0.0
 10
57.316100
 20
123.850160
 30
0.0
 10
57.493901
 20
123.939060
 30
0.0
 10
57.671701
 20
124.116861
 30
0.0
  0
LWPOLYLINE
  5
262
100
AcDbEntity
  8
Layer_1
 62
7
100
AcDbPolyline
 90
17
 70
0
 10
59.271912
 20
124.826652
 30
0.0
 10
59.181601
 20
125.007274
 30
0.0
 10
58.916311
 20
125.094763
 30
0.0
 10
58.648199
 20
125.094763
 30
0.0
 10
58.380088
 20
125.007274
 30
0.0
 10
58.292598
 20
124.826652
 30
0.0
 10
58.380088
 20
124.651673
 30
0.0
 10
58.560710
 20
124.561362
 30
0.0
 10
59.003800
 20
124.471051
 30
0.0
 10
59.181601
 20
124.383561
 30
0.0
 10
59.271912
 20
124.205761
 30
0.0
 10
59.271912
 20
124.116861
 30
0.0
 10
59.181601
 20
123.939060
 30
0.0
 10
58.916311
 20
123.850160
 30
0.0
 10
58.648199
 20
123.850160
 30
0.0
 10
58.380088
 20
123.939060
 30
0.0
 10
58.292598
 20
124.116861
 30
0.0
  0
LWPOLYLINE
  5
263
100
AcDbEntity
  8
Layer_1
 62
7
100
AcDbPolyline
 90
2
 70
0
 10
4.289692
 20
11.745896
 30
0.0
 10
4.289692
 20
9.877580
 30
0.0
  0
LWPOLYLINE
  5
264
100
AcDbEntity
  8
Layer_1
 62
7
100
AcDbPolyline
 90
2
 70
0
 10
3.668801
 20
11.745896
 30
0.0
 10
4.913404
 20
11.745896
 30
0.0
  0
LWPOLYLINE
  5
265
100
AcDbEntity
  8
Layer_1
 62
7
100
AcDbPolyline
 90
2
 70
0
 10
5.356491
 20
11.745896
 30
0.0
 10
5.356491
 20
9.877580
 30
0.0
  0
LWPOLYLINE
  5
266
100
AcDbEntity
  8
Layer_1
 62
7
100
AcDbPolyline
 90
10
 70
0
 10
5.356491
 20
11.745896
 30
0.0
 10
6.158004
 20
11.745896
 30
0.0
 10
6.423294
 20
11.655585
 30
0.0
 10
6.513605
 20
11.565274
 30
0.0
 10
6.603916
 20
11.390295
 30
0.0
 10
6.603916
 20
11.209673
 30
0.0
 10
6.513605
 20
11.034694
 30
0.0
 10
6.423294
 20
10.944383
 30
0.0
 10
6.158004
 20
10.854072
 30
0.0
 10
5.356491
 20
10.854072
 30
0.0
  0
LWPOLYLINE
  5
267
100
AcDbEntity
  8
Layer_1
 62
7
100
AcDbPolyline
 90
2
 70
0
 10
5.980203
 20
10.854072
 30
0.0
 10
6.603916
 20
9.877580
 30
0.0
  0
LWPOLYLINE
  5
268
100
AcDbEntity
  8
Layer_1
 62
7
100
AcDbPolyline
 90
2
 70
0
 10
7.224811
 20
11.745896
 30
0.0
 10
7.224811
 20
9.877580
 30
0.0
  0
LWPOLYLINE
  5
269
100
AcDbEntity
  8
Layer_1
 62
7
100
AcDbPolyline
 90
19
 70
0
 10
9.183436
 20
11.299984
 30
0.0
 10
9.093125
 20
11.477784
 30
0.0
 10
8.915324
 20
11.655585
 30
0.0
 10
8.737524
 20
11.745896
 30
0.0
 10
8.381923
 20
11.745896
 30
0.0
 10
8.204122
 20
11.655585
 30
0.0
 10
8.026322
 20
11.477784
 30
0.0
 10
7.936011
 20
11.299984
 30
0.0
 10
7.848521
 20
11.034694
 30
0.0
 10
7.848521
 20
10.588782
 30
0.0
 10
7.936011
 20
10.323492
 30
0.0
 10
8.026322
 20
10.144281
 30
0.0
 10
8.204122
 20
9.966480
 30
0.0
 10
8.381923
 20
9.877580
 30
0.0
 10
8.737524
 20
9.877580
 30
0.0
 10
8.915324
 20
9.966480
 30
0.0
 10
9.093125
 20
10.144281
 30
0.0
 10
9.183436
 20
10.323492
 30
0.0
 10
9.183436
 20
10.588782
 30
0.0
  0
LWPOLYLINE
  5
26a
100
AcDbEntity
  8
Layer_1
 62
7
100
AcDbPolyline
 90
2
 70
0
 10
8.737524
 20
10.588782
 30
0.0
 10
9.183436
 20
10.588782
 30
0.0
  0
LWPOLYLINE
  5
26b
100
AcDbEntity
  8
Layer_1
 62
7
100
AcDbPolyline
 90
2
 70
0
 10
11.317043
 20
11.745896
 30
0.0
 10
10.605841
 20
9.877580
 30
0.0
  0
LWPOLYLINE
  5
26c
100
AcDbEntity
  8
Layer_1
 62
7
100
AcDbPolyline
 90
2
 70
0
 10
11.317043
 20
11.745896
 30
0.0
 10
12.028245
 20
9.877580
 30
0.0
  0
LWPOLYLINE
  5
26d
100
AcDbEntity
  8
Layer_1
 62
7
100
AcDbPolyline
 90
2
 70
0
 10
10.871131
 20
10.498471
 30
0.0
 10
11.762955
 20
10.498471
 30
0.0
  0
LWPOLYLINE
  5
26e
100
AcDbEntity
  8
Layer_1
 62
7
100
AcDbPolyline
 90
2
 70
0
 10
12.826942
 20
11.745896
 30
0.0
 10
12.826942
 20
9.877580
 30
0.0
  0
LWPOLYLINE
  5
26f
100
AcDbEntity
  8
Layer_1
 62
7
100
AcDbPolyline
 90
2
 70
0
 10
12.206051
 20
11.745896
 30
0.0
 10
13.450654
 20
11.745896
 30
0.0
  0
LWPOLYLINE
  5
270
100
AcDbEntity
  8
Layer_1
 62
7
100
AcDbPolyline
 90
14
 70
0
 10
14.960591
 20
11.299984
 30
0.0
 10
14.960591
 20
11.390295
 30
0.0
 10
15.050902
 20
11.565274
 30
0.0
 10
15.141213
 20
11.655585
 30
0.0
 10
15.316192
 20
11.745896
 30
0.0
 10
15.671793
 20
11.745896
 30
0.0
 10
15.852415
 20
11.655585
 30
0.0
 10
15.939904
 20
11.565274
 30
0.0
 10
16.027394
 20
11.390295
 30
0.0
 10
16.027394
 20
11.209673
 30
0.0
 10
15.939904
 20
11.034694
 30
0.0
 10
15.762104
 20
10.766582
 30
0.0
 10
14.873101
 20
9.877580
 30
0.0
 10
16.117705
 20
9.877580
 30
0.0
  0
LWPOLYLINE
  5
271
100
AcDbEntity
  8
Layer_1
 62
7
100
AcDbPolyline
 90
2
 70
0
 10
16.473301
 20
11.745896
 30
0.0
 10
17.184503
 20
9.877580
 30
0.0
  0
LWPOLYLINE
  5
272
100
AcDbEntity
  8
Layer_1
 62
7
100
AcDbPolyline
 90
2
 70
0
 10
17.895705
 20
11.745896
 30
0.0
 10
17.184503
 20
9.877580
 30
0.0
  0
LWPOLYLINE
  5
273
100
AcDbEntity
  8
Layer_1
 62
7
100
AcDbPolyline
 90
16
 70
1
 10
46.738390
 20
110.316451
 30
0.0
 10
46.473100
 20
110.226139
 30
0.0
 10
46.292478
 20
109.960850
 30
0.0
 10
46.204988
 20
109.514938
 30
0.0
 10
46.204988
 20
109.249648
 30
0.0
 10
46.292478
 20
108.803736
 30
0.0
 10
46.473100
 20
108.537035
 30
0.0
 10
46.738390
 20
108.448135
 30
0.0
 10
46.916190
 20
108.448135
 30
0.0
 10
47.184302
 20
108.537035
 30
0.0
 10
47.359281
 20
108.803736
 30
0.0
 10
47.449592
 20
109.249648
 30
0.0
 10
47.449592
 20
109.514938
 30
0.0
 10
47.359281
 20
109.960850
 30
0.0
 10
47.184302
 20
110.226139
 30
0.0
 10
46.916190
 20
110.316451
 30
0.0
  0
LWPOLYLINE
  5
274
100
AcDbEntity
  8
Layer_1
 62
7
100
AcDbPolyline
 90
2
 70
0
 10
48.070478
 20
109.249648
 30
0.0
 10
49.673504
 20
109.249648
 30
0.0
  0
LWPOLYLINE
  5
275
100
AcDbEntity
  8
Layer_1
 62
7
100
AcDbPolyline
 90
4
 70
0
 10
50.562510
 20
109.960850
 30
0.0
 10
50.737489
 20
110.048339
 30
0.0
 10
51.005600
 20
110.316451
 30
0.0
 10
51.005600
 20
108.448135
 30
0.0
  0
LWPOLYLINE
  5
276
100
AcDbEntity
  8
Layer_1
 62
7
100
AcDbPolyline
 90
16
 70
1
 10
52.605810
 20
110.316451
 30
0.0
 10
52.340520
 20
110.226139
 30
0.0
 10
52.159898
 20
109.960850
 30
0.0
 10
52.072408
 20
109.514938
 30
0.0
 10
52.072408
 20
109.249648
 30
0.0
 10
52.159898
 20
108.803736
 30
0.0
 10
52.340520
 20
108.537035
 30
0.0
 10
52.605810
 20
108.448135
 30
0.0
 10
52.783610
 20
108.448135
 30
0.0
 10
53.051722
 20
108.537035
 30
0.0
 10
53.226701
 20
108.803736
 30
0.0
 10
53.317012
 20
109.249648
 30
0.0
 10
53.317012
 20
109.514938
 30
0.0
 10
53.226701
 20
109.960850
 30
0.0
 10
53.051722
 20
110.226139
 30
0.0
 10
52.783610
 20
110.316451
 30
0.0
  0
LWPOLYLINE
  5
277
100
AcDbEntity
  8
Layer_1
 62
7
100
AcDbPolyline
 90
2
 70
0
 10
53.672608
 20
110.316451
 30
0.0
 10
54.383810
 20
108.448135
 30
0.0
  0
LWPOLYLINE
  5
278
100
AcDbEntity
  8
Layer_1
 62
7
100
AcDbPolyline
 90
2
 70
0
 10
55.095012
 20
110.316451
 30
0.0
 10
54.383810
 20
108.448135
 30
0.0
  0
LWPOLYLINE
  5
279
100
AcDbEntity
  8
Layer_1
 62
7
100
AcDbPolyline
 90
19
 70
0
 10
46.678592
 20
10.348726
 30
0.0
 10
47.010050
 20
10.183002
 30
0.0
 10
47.120536
 20
10.017275
 30
0.0
 10
47.231022
 20
9.685824
 30
0.0
 10
47.231022
 20
9.188646
 30
0.0
 10
47.120536
 20
8.857195
 30
0.0
 10
47.010050
 20
8.691471
 30
0.0
 10
46.789078
 20
8.525744
 30
0.0
 10
45.905213
 20
8.525744
 30
0.0
 10
45.905213
 20
12.005984
 30
0.0
 10
46.678592
 20
12.005984
 30
0.0
 10
46.899564
 20
11.840257
 30
0.0
 10
47.010050
 20
11.674533
 30
0.0
 10
47.120536
 20
11.343082
 30
0.0
 10
47.120536
 20
11.011631
 30
0.0
 10
47.010050
 20
10.680177
 30
0.0
 10
46.899564
 20
10.514453
 30
0.0
 10
46.678592
 20
10.348726
 30
0.0
 10
45.905213
 20
10.348726
 30
0.0
  0
LWPOLYLINE
  5
27a
100
AcDbEntity
  8
Layer_1
 62
7
100
AcDbPolyline
 90
3
 70
0
 10
49.330210
 20
8.525744
 30
0.0
 10
48.225373
 20
8.525744
 30
0.0
 10
48.225373
 20
12.005984
 30
0.0
  0
LWPOLYLINE
  5
27b
100
AcDbEntity
  8
Layer_1
 62
7
100
AcDbPolyline
 90
2
 70
0
 10
50.103612
 20
10.348726
 30
0.0
 10
50.876991
 20
10.348726
 30
0.0
  0
LWPOLYLINE
  5
27c
100
AcDbEntity
  8
Layer_1
 62
7
100
AcDbPolyline
 90
4
 70
0
 10
51.208449
 20
8.525744
 30
0.0
 10
50.103612
 20
8.525744
 30
0.0
 10
50.103612
 20
12.005984
 30
0.0
 10
51.208449
 20
12.005984
 30
0.0
  0
LWPOLYLINE
  5
27d
100
AcDbEntity
  8
Layer_1
 62
7
100
AcDbPolyline
 90
2
 70
0
 10
52.202800
 20
10.348726
 30
0.0
 10
52.976179
 20
10.348726
 30
0.0
  0
LWPOLYLINE
  5
27e
100
AcDbEntity
  8
Layer_1
 62
7
100
AcDbPolyline
 90
4
 70
0
 10
53.307637
 20
8.525744
 30
0.0
 10
52.202800
 20
8.525744
 30
0.0
 10
52.202800
 20
12.005984
 30
0.0
 10
53.307637
 20
12.005984
 30
0.0
  0
LWPOLYLINE
  5
27f
100
AcDbEntity
  8
Layer_1
 62
7
100
AcDbPolyline
 90
11
 70
0
 10
54.301988
 20
8.525744
 30
0.0
 10
54.301988
 20
12.005984
 30
0.0
 10
55.185853
 20
12.005984
 30
0.0
 10
55.406825
 20
11.840257
 30
0.0
 10
55.517311
 20
11.674533
 30
0.0
 10
55.627797
 20
11.343082
 30
0.0
 10
55.627797
 20
10.845904
 30
0.0
 10
55.517311
 20
10.514453
 30
0.0
 10
55.406825
 20
10.348726
 30
0.0
 10
55.185853
 20
10.183002
 30
0.0
 10
54.301988
 20
10.183002
 30
0.0
  0
LWPOLYLINE
  5
280
100
AcDbEntity
  8
Layer_1
 62
7
100
AcDbPolyline
 90
19
 70
0
 10
46.347157
 20
5.940422
 30
0.0
 10
46.678592
 20
5.774698
 30
0.0
 10
46.789078
 20
5.608971
 30
0.0
 10
46.899564
 20
5.277520
 30
0.0
 10
46.899564
 20
4.780342
 30
0.0
 10
46.789078
 20
4.448891
 30
0.0
 10
46.678592
 20
4.283167
 30
0.0
 10
46.457643
 20
4.117440
 30
0.0
 10
45.573755
 20
4.117440
 30
0.0
 10
45.573755
 20
7.597680
 30
0.0
 10
46.347157
 20
7.597680
 30
0.0
 10
46.568129
 20
7.431953
 30
0.0
 10
46.678592
 20
7.266229
 30
0.0
 10
46.789078
 20
6.934778
 30
0.0
 10
46.789078
 20
6.603327
 30
0.0
 10
46.678592
 20
6.271873
 30
0.0
 10
46.568129
 20
6.106149
 30
0.0
 10
46.347157
 20
5.940422
 30
0.0
 10
45.573755
 20
5.940422
 30
0.0
  0
LWPOLYLINE
  5
281
100
AcDbEntity
  8
Layer_1
 62
7
100
AcDbPolyline
 90
3
 70
0
 10
48.998752
 20
4.117440
 30
0.0
 10
47.893915
 20
4.117440
 30
0.0
 10
47.893915
 20
7.597680
 30
0.0
  0
LWPOLYLINE
  5
282
100
AcDbEntity
  8
Layer_1
 62
7
100
AcDbPolyline
 90
16
 70
1
 10
50.214075
 20
7.597680
 30
0.0
 10
50.656019
 20
7.597680
 30
0.0
 10
50.876991
 20
7.431953
 30
0.0
 10
51.097963
 20
7.100502
 30
0.0
 10
51.208449
 20
6.437600
 30
0.0
 10
51.208449
 20
5.277520
 30
0.0
 10
51.097963
 20
4.614618
 30
0.0
 10
50.876991
 20
4.283167
 30
0.0
 10
50.656019
 20
4.117440
 30
0.0
 10
50.214075
 20
4.117440
 30
0.0
 10
49.993126
 20
4.283167
 30
0.0
 10
49.772154
 20
4.614618
 30
0.0
 10
49.661668
 20
5.277520
 30
0.0
 10
49.661668
 20
6.437600
 30
0.0
 10
49.772154
 20
7.100502
 30
0.0
 10
49.993126
 20
7.431953
 30
0.0
  0
LWPOLYLINE
  5
283
100
AcDbEntity
  8
Layer_1
 62
7
100
AcDbPolyline
 90
16
 70
1
 10
52.644721
 20
7.597680
 30
0.0
 10
53.086665
 20
7.597680
 30
0.0
 10
53.307637
 20
7.431953
 30
0.0
 10
53.528609
 20
7.100502
 30
0.0
 10
53.639072
 20
6.437600
 30
0.0
 10
53.639072
 20
5.277520
 30
0.0
 10
53.528609
 20
4.614618
 30
0.0
 10
53.307637
 20
4.283167
 30
0.0
 10
53.086665
 20
4.117440
 30
0.0
 10
52.644721
 20
4.117440
 30
0.0
 10
52.423772
 20
4.283167
 30
0.0
 10
52.202800
 20
4.614618
 30
0.0
 10
52.092314
 20
5.277520
 30
0.0
 10
52.092314
 20
6.437600
 30
0.0
 10
52.202800
 20
7.100502
 30
0.0
 10
52.423772
 20
7.431953
 30
0.0
  0
LWPOLYLINE
  5
284
100
AcDbEntity
  8
Layer_1
 62
7
100
AcDbPolyline
 90
11
 70
0
 10
54.633446
 20
4.117440
 30
0.0
 10
54.633446
 20
7.597680
 30
0.0
 10
55.517311
 20
7.597680
 30
0.0
 10
55.738283
 20
7.431953
 30
0.0
 10
55.848769
 20
7.266229
 30
0.0
 10
55.959232
 20
6.934778
 30
0.0
 10
55.959232
 20
6.437600
 30
0.0
 10
55.848769
 20
6.106149
 30
0.0
 10
55.738283
 20
5.940422
 30
0.0
 10
55.517311
 20
5.774698
 30
0.0
 10
54.633446
 20
5.774698
 30
0.0
  0
LWPOLYLINE
  5
285
100
AcDbEntity
  8
Layer_1
 62
7
100
AcDbPolyline
 90
2
 70
0
 10
43.962474
 20
12.344407
 30
0.0
 10
44.737500
 20
12.843179
 30
0.0
  0
LWPOLYLINE
  5
286
100
AcDbEntity
  8
Layer_1
 62
7
100
AcDbPolyline
 90
2
 70
0
 10
43.342063
 20
4.876791
 30
0.0
 10
43.287214
 20
5.653168
 30
0.0
  0
LWPOLYLINE
  5
287
100
AcDbEntity
  8
Layer_1
 62
7
100
AcDbPolyline
 90
2
 70
0
 10
43.281275
 20
3.197684
 30
0.0
 10
43.726003
 20
4.154105
 30
0.0
  0
LWPOLYLINE
  5
288
100
AcDbEntity
  8
Layer_1
 62
7
100
AcDbPolyline
 90
2
 70
0
 10
57.843736
 20
4.647947
 30
0.0
 10
57.344948
 20
3.872930
 30
0.0
  0
LWPOLYLINE
  5
289
100
AcDbEntity
  8
Layer_1
 62
7
100
AcDbPolyline
 90
2
 70
0
 10
43.287214
 20
10.564169
 30
0.0
 10
43.463709
 20
11.569390
 30
0.0
  0
LWPOLYLINE
  5
28a
100
AcDbEntity
  8
Layer_1
 62
7
100
AcDbPolyline
 90
2
 70
0
 10
57.344948
 20
12.344407
 30
0.0
 10
57.843736
 20
11.569390
 30
0.0
  0
LWPOLYLINE
  5
28b
100
AcDbEntity
  8
Layer_1
 62
7
100
AcDbPolyline
 90
2
 70
0
 10
56.569945
 20
12.843184
 30
0.0
 10
57.344948
 20
12.344407
 30
0.0
  0
LWPOLYLINE
  5
28c
100
AcDbEntity
  8
Layer_1
 62
7
100
AcDbPolyline
 90
2
 70
0
 10
58.020230
 20
10.564174
 30
0.0
 10
58.020207
 20
5.653168
 30
0.0
  0
LWPOLYLINE
  5
28d
100
AcDbEntity
  8
Layer_1
 62
7
100
AcDbPolyline
 90
2
 70
0
 10
43.463709
 20
11.569390
 30
0.0
 10
43.962474
 20
12.344407
 30
0.0
  0
LWPOLYLINE
  5
28e
100
AcDbEntity
  8
Layer_1
 62
7
100
AcDbPolyline
 90
3
 70
0
 10
44.975479
 20
3.249939
 30
0.0
 10
44.273421
 20
3.615858
 30
0.0
 10
43.281275
 20
3.197684
 30
0.0
  0
LWPOLYLINE
  5
28f
100
AcDbEntity
  8
Layer_1
 62
7
100
AcDbPolyline
 90
3
 70
0
 10
45.742709
 20
13.019669
 30
0.0
 10
55.564712
 20
13.019676
 30
0.0
 10
56.569945
 20
12.843184
 30
0.0
  0
LWPOLYLINE
  5
290
100
AcDbEntity
  8
Layer_1
 62
7
100
AcDbPolyline
 90
2
 70
0
 10
56.569945
 20
3.374156
 30
0.0
 10
55.564712
 20
3.197666
 30
0.0
  0
LWPOLYLINE
  5
291
100
AcDbEntity
  8
Layer_1
 62
7
100
AcDbPolyline
 90
2
 70
0
 10
58.020207
 20
5.653168
 30
0.0
 10
57.843736
 20
4.647947
 30
0.0
  0
LWPOLYLINE
  5
292
100
AcDbEntity
  8
Layer_1
 62
7
100
AcDbPolyline
 90
3
 70
0
 10
55.564712
 20
3.197666
 30
0.0
 10
45.742709
 20
3.197666
 30
0.0
 10
44.975479
 20
3.249939
 30
0.0
  0
LWPOLYLINE
  5
293
100
AcDbEntity
  8
Layer_1
 62
7
100
AcDbPolyline
 90
2
 70
0
 10
57.344948
 20
3.872930
 30
0.0
 10
56.569945
 20
3.374156
 30
0.0
  0
LWPOLYLINE
  5
294
100
AcDbEntity
  8
Layer_1
 62
7
100
AcDbPolyline
 90
2
 70
0
 10
43.726003
 20
4.154105
 30
0.0
 10
43.342063
 20
4.876791
 30
0.0
  0
LWPOLYLINE
  5
295
100
AcDbEntity
  8
Layer_1
 62
7
100
AcDbPolyline
 90
2
 70
0
 10
44.737500
 20
12.843179
 30
0.0
 10
45.742709
 20
13.019669
 30
0.0
  0
LWPOLYLINE
  5
296
100
AcDbEntity
  8
Layer_1
 62
7
100
AcDbPolyline
 90
2
 70
0
 10
57.843736
 20
11.569390
 30
0.0
 10
58.020230
 20
10.564174
 30
0.0
  0
LWPOLYLINE
  5
297
100
AcDbEntity
  8
Layer_1
 62
7
100
AcDbPolyline
 90
2
 70
0
 10
43.287214
 20
5.653168
 30
0.0
 10
43.287214
 20
10.564169
 30
0.0
  0
LWPOLYLINE
  5
298
100
AcDbEntity
  8
Layer_1
 62
7
100
AcDbPolyline
 90
2
 70
0
 10
37.841258
 20
77.886870
 30
0.0
 10
37.841258
 20
80.601460
 30
0.0
  0
LWPOLYLINE
  5
299
100
AcDbEntity
  8
Layer_1
 62
7
100
AcDbPolyline
 90
2
 70
0
 10
37.841258
 20
73.584760
 30
0.0
 10
37.841258
 20
76.299350
 30
0.0
  0
LWPOLYLINE
  5
29a
100
AcDbEntity
  8
Layer_1
 62
7
100
AcDbPolyline
 90
2
 70
0
 10
37.841258
 20
69.282660
 30
0.0
 10
37.841258
 20
71.997250
 30
0.0
  0
LWPOLYLINE
  5
29b
100
AcDbEntity
  8
Layer_1
 62
7
100
AcDbPolyline
 90
2
 70
0
 10
37.841258
 20
64.980560
 30
0.0
 10
37.841258
 20
67.695150
 30
0.0
  0
LWPOLYLINE
  5
29c
100
AcDbEntity
  8
Layer_1
 62
7
100
AcDbPolyline
 90
2
 70
0
 10
37.841258
 20
82.188970
 30
0.0
 10
37.841258
 20
84.903560
 30
0.0
  0
LWPOLYLINE
  5
29d
100
AcDbEntity
  8
Layer_1
 62
7
100
AcDbPolyline
 90
2
 70
0
 10
49.834979
 20
64.980560
 30
0.0
 10
49.834979
 20
67.695150
 30
0.0
  0
LWPOLYLINE
  5
29e
100
AcDbEntity
  8
Layer_1
 62
7
100
AcDbPolyline
 90
2
 70
0
 10
49.834979
 20
69.282660
 30
0.0
 10
49.834979
 20
71.997250
 30
0.0
  0
LWPOLYLINE
  5
29f
100
AcDbEntity
  8
Layer_1
 62
7
100
AcDbPolyline
 90
2
 70
0
 10
49.834979
 20
73.584760
 30
0.0
 10
49.834979
 20
75.180160
 30
0.0
  0
LWPOLYLINE
  5
2a0
100
AcDbEntity
  8
Layer_1
 62
7
100
AcDbPolyline
 90
2
 70
0
 10
61.862107
 20
64.980560
 30
0.0
 10
61.862107
 20
67.695150
 30
0.0
  0
LWPOLYLINE
  5
2a1
100
AcDbEntity
  8
Layer_1
 62
7
100
AcDbPolyline
 90
2
 70
0
 10
61.862107
 20
69.282660
 30
0.0
 10
61.862107
 20
71.997250
 30
0.0
  0
LWPOLYLINE
  5
2a2
100
AcDbEntity
  8
Layer_1
 62
7
100
AcDbPolyline
 90
3
 70
0
 10
54.898985
 20
74.184540
 30
0.0
 10
55.848545
 20
75.829240
 30
0.0
 10
56.798111
 20
74.184540
 30
0.0
  0
LWPOLYLINE
  5
2a3
100
AcDbEntity
  8
Layer_1
 62
7
100
AcDbPolyline
 90
3
 70
0
 10
27.492238
 20
60.963490
 30
0.0
 10
25.847538
 20
61.913050
 30
0.0
 10
27.492238
 20
62.862620
 30
0.0
  0
LWPOLYLINE
  5
2a4
100
AcDbEntity
  8
Layer_1
 62
7
100
AcDbPolyline
 90
3
 70
0
 10
39.502663
 20
60.963490
 30
0.0
 10
37.857963
 20
61.913050
 30
0.0
 10
39.502663
 20
62.862620
 30
0.0
  0
LWPOLYLINE
  5
2a5
100
AcDbEntity
  8
Layer_1
 62
7
100
AcDbPolyline
 90
3
 70
0
 10
63.506807
 20
60.963490
 30
0.0
 10
61.862107
 20
61.913050
 30
0.0
 10
63.506807
 20
62.862620
 30
0.0
  0
LWPOLYLINE
  5
2a6
100
AcDbEntity
  8
Layer_1
 62
7
100
AcDbPolyline
 90
3
 70
0
 10
72.211127
 20
62.862610
 30
0.0
 10
73.855827
 20
61.913050
 30
0.0
 10
72.211127
 20
60.963480
 30
0.0
  0
LWPOLYLINE
  5
2a7
100
AcDbEntity
  8
Layer_1
 62
7
100
AcDbPolyline
 90
3
 70
0
 10
48.190279
 20
62.862610
 30
0.0
 10
49.834979
 20
61.913050
 30
0.0
 10
48.190279
 20
60.963480
 30
0.0
  0
SPLINE
  5
2a8
100
AcDbEntity
  8
Layer_3
 62
7
100
AcDbSpline
 70
8
 71
3
 72
8
 73
4
 74
0
 40
0
 40
0
 40
0
 40
0
 40
1
 40
1
 40
1
 40
1
 10
25.847541
 20
64.349632
 30
0.0
 10
28.300829
 20
72.570585
 30
0.0
 10
30.683970
 20
77.996330
 30
0.0
 10
37.841262
 20
86.399372
 30
0.0
  0
SPLINE
  5
2a9
100
AcDbEntity
  8
Layer_3
 62
7
100
AcDbSpline
 70
8
 71
3
 72
8
 73
4
 74
0
 40
0
 40
0
 40
0
 40
0
 40
1
 40
1
 40
1
 40
1
 10
37.841262
 20
86.399372
 30
0.0
 10
40.618951
 20
81.346024
 30
0.0
 10
43.037250
 20
75.824381
 30
0.0
 10
49.834982
 20
76.009272
 30
0.0
  0
LWPOLYLINE
  5
2aa
100
AcDbEntity
  8
Layer_1
 62
7
100
AcDbPolyline
 90
3
 70
0
 10
36.146446
 20
62.862610
 30
0.0
 10
37.791146
 20
61.913050
 30
0.0
 10
36.146446
 20
60.963480
 30
0.0
  0
SPLINE
  5
2ab
100
AcDbEntity
  8
Layer_3
 62
7
100
AcDbSpline
 70
8
 71
3
 72
8
 73
4
 74
0
 40
0
 40
0
 40
0
 40
0
 40
1
 40
1
 40
1
 40
1
 10
61.862112
 20
76.009272
 30
0.0
 10
63.391236
 20
65.381816
 30
0.0
 10
68.992398
 20
65.928109
 30
0.0
 10
73.855830
 20
64.349632
 30
0.0
  0
LWPOLYLINE
  5
2ac
100
AcDbEntity
  8
Layer_3
 62
7
100
AcDbPolyline
 90
2
 70
0
 10
49.834982
 20
76.009272
 30
0.0
 10
61.862112
 20
76.009272
 30
0.0
  0
LWPOLYLINE
  5
2ad
100
AcDbEntity
  8
Layer_3
 62
7
100
AcDbPolyline
 90
2
 70
0
 10
25.847541
 20
63.619132
 30
0.0
 10
25.847541
 20
60.206962
 30
0.0
  0
LWPOLYLINE
  5
2ae
100
AcDbEntity
  8
Layer_3
 62
7
100
AcDbPolyline
 90
3
 70
0
 10
25.847541
 20
61.913052
 30
0.0
 10
31.819345
 20
61.913052
 30
0.0
 10
37.791149
 20
61.913052
 30
0.0
  0
LWPOLYLINE
  5
2af
100
AcDbEntity
  8
Layer_3
 62
7
100
AcDbPolyline
 90
2
 70
0
 10
37.841262
 20
63.619132
 30
0.0
 10
37.841262
 20
60.206962
 30
0.0
  0
LWPOLYLINE
  5
2b0
100
AcDbEntity
  8
Layer_3
 62
7
100
AcDbPolyline
 90
2
 70
0
 10
61.862112
 20
61.913052
 30
0.0
 10
73.855830
 20
61.913052
 30
0.0
  0
LWPOLYLINE
  5
2b1
100
AcDbEntity
  8
Layer_3
 62
7
100
AcDbPolyline
 90
2
 70
0
 10
73.855830
 20
60.206962
 30
0.0
 10
73.855830
 20
63.619132
 30
0.0
  0
LWPOLYLINE
  5
2b2
100
AcDbEntity
  8
Layer_3
 62
7
100
AcDbPolyline
 90
2
 70
0
 10
61.862112
 20
63.619132
 30
0.0
 10
61.862112
 20
60.206962
 30
0.0
  0
LWPOLYLINE
  5
2b3
100
AcDbEntity
  8
Layer_3
 62
7
100
AcDbPolyline
 90
2
 70
0
 10
49.834983
 20
63.619132
 30
0.0
 10
49.834983
 20
60.206962
 30
0.0
  0
LWPOLYLINE
  5
2b4
100
AcDbEntity
  8
Layer_3
 62
7
100
AcDbPolyline
 90
2
 70
0
 10
53.844028
 20
64.349632
 30
0.0
 10
57.853071
 20
64.349632
 30
0.0
  0
SPLINE
  5
2b5
100
AcDbEntity
  8
Layer_3
 62
7
100
AcDbSpline
 70
8
 71
3
 72
8
 73
4
 74
0
 40
0
 40
0
 40
0
 40
0
 40
1
 40
1
 40
1
 40
1
 10
19.385127
 20
51.277996
 30
0.0
 10
19.867506
 20
53.107085
 30
0.0
 10
20.801751
 20
54.793970
 30
0.0
 10
22.062970
 20
56.201049
 30
0.0
  0
SPLINE
  5
2b6
100
AcDbEntity
  8
Layer_3
 62
7
100
AcDbSpline
 70
8
 71
3
 72
8
 73
4
 74
0
 40
0
 40
0
 40
0
 40
0
 40
1
 40
1
 40
1
 40
1
 10
22.062970
 20
56.201049
 30
0.0
 10
22.592228
 20
55.173226
 30
0.0
 10
23.274046
 20
53.871447
 30
0.0
 10
24.601358
 20
53.881068
 30
0.0
  0
SPLINE
  5
2b7
100
AcDbEntity
  8
Layer_3
 62
7
100
AcDbSpline
 70
8
 71
3
 72
8
 73
4
 74
0
 40
0
 40
0
 40
0
 40
0
 40
1
 40
1
 40
1
 40
1
 10
24.601358
 20
53.881068
 30
0.0
 10
25.542943
 20
53.881478
 30
0.0
 10
26.484529
 20
53.881134
 30
0.0
 10
27.426115
 20
53.881247
 30
0.0
  0
SPLINE
  5
2b8
100
AcDbEntity
  8
Layer_3
 62
7
100
AcDbSpline
 70
8
 71
3
 72
8
 73
4
 74
0
 40
0
 40
0
 40
0
 40
0
 40
1
 40
1
 40
1
 40
1
 10
27.426115
 20
53.881247
 30
0.0
 10
27.527579
 20
52.789764
 30
0.0
 10
27.993153
 20
51.383078
 30
0.0
 10
29.309184
 20
51.340323
 30
0.0
  0
SPLINE
  5
2b9
100
AcDbEntity
  8
Layer_3
 62
7
100
AcDbSpline
 70
8
 71
3
 72
8
 73
4
 74
0
 40
0
 40
0
 40
0
 40
0
 40
1
 40
1
 40
1
 40
1
 10
29.309184
 20
51.340323
 30
0.0
 10
30.837879
 20
51.215226
 30
0.0
 10
32.380180
 20
51.305623
 30
0.0
 10
33.913613
 20
51.278503
 30
0.0
  0
SPLINE
  5
2ba
100
AcDbEntity
  8
Layer_3
 62
7
100
AcDbSpline
 70
8
 71
3
 72
8
 73
4
 74
0
 40
0
 40
0
 40
0
 40
0
 40
1
 40
1
 40
1
 40
1
 10
33.913613
 20
51.278503
 30
0.0
 10
34.395992
 20
53.107589
 30
0.0
 10
35.330238
 20
54.794472
 30
0.0
 10
36.591456
 20
56.201551
 30
0.0
  0
SPLINE
  5
2bb
100
AcDbEntity
  8
Layer_3
 62
7
100
AcDbSpline
 70
8
 71
3
 72
8
 73
4
 74
0
 40
0
 40
0
 40
0
 40
0
 40
1
 40
1
 40
1
 40
1
 10
36.591456
 20
56.201551
 30
0.0
 10
37.120714
 20
55.173728
 30
0.0
 10
37.802532
 20
53.871949
 30
0.0
 10
39.129844
 20
53.881570
 30
0.0
  0
SPLINE
  5
2bc
100
AcDbEntity
  8
Layer_3
 62
7
100
AcDbSpline
 70
8
 71
3
 72
8
 73
4
 74
0
 40
0
 40
0
 40
0
 40
0
 40
1
 40
1
 40
1
 40
1
 10
39.129844
 20
53.881570
 30
0.0
 10
40.071429
 20
53.881980
 30
0.0
 10
41.013015
 20
53.881636
 30
0.0
 10
41.954601
 20
53.881749
 30
0.0
  0
SPLINE
  5
2bd
100
AcDbEntity
  8
Layer_3
 62
7
100
AcDbSpline
 70
8
 71
3
 72
8
 73
4
 74
0
 40
0
 40
0
 40
0
 40
0
 40
1
 40
1
 40
1
 40
1
 10
41.954601
 20
53.881749
 30
0.0
 10
42.056064
 20
52.790266
 30
0.0
 10
42.521638
 20
51.383579
 30
0.0
 10
43.837670
 20
51.340826
 30
0.0
  0
SPLINE
  5
2be
100
AcDbEntity
  8
Layer_3
 62
7
100
AcDbSpline
 70
8
 71
3
 72
8
 73
4
 74
0
 40
0
 40
0
 40
0
 40
0
 40
1
 40
1
 40
1
 40
1
 10
43.837670
 20
51.340826
 30
0.0
 10
45.366365
 20
51.215731
 30
0.0
 10
46.908666
 20
51.306126
 30
0.0
 10
48.442099
 20
51.278996
 30
0.0
  0
SPLINE
  5
2bf
100
AcDbEntity
  8
Layer_3
 62
7
100
AcDbSpline
 70
8
 71
3
 72
8
 73
4
 74
0
 40
0
 40
0
 40
0
 40
0
 40
1
 40
1
 40
1
 40
1
 10
48.442099
 20
51.278996
 30
0.0
 10
48.989845
 20
53.114491
 30
0.0
 10
49.521930
 20
54.325900
 30
0.0
 10
51.119942
 20
56.202050
 30
0.0
  0
SPLINE
  5
2c0
100
AcDbEntity
  8
Layer_3
 62
7
100
AcDbSpline
 70
8
 71
3
 72
8
 73
4
 74
0
 40
0
 40
0
 40
0
 40
0
 40
1
 40
1
 40
1
 40
1
 10
51.119942
 20
56.202050
 30
0.0
 10
51.740117
 20
55.073787
 30
0.0
 10
52.280052
 20
53.840968
 30
0.0
 10
53.797785
 20
53.882248
 30
0.0
  0
LWPOLYLINE
  5
2c1
100
AcDbEntity
  8
Layer_3
 62
7
100
AcDbPolyline
 90
2
 70
0
 10
55.848548
 20
75.829243
 30
0.0
 10
55.848548
 20
64.349632
 30
0.0
  0
SPLINE
  5
2c2
100
AcDbEntity
  8
Layer_3
 62
7
100
AcDbSpline
 70
8
 71
3
 72
8
 73
4
 74
0
 40
0
 40
0
 40
0
 40
0
 40
1
 40
1
 40
1
 40
1
 10
56.483087
 20
53.882248
 30
0.0
 10
56.824495
 20
51.509452
 30
0.0
 10
57.607347
 20
51.347448
 30
0.0
 10
59.160929
 20
51.278997
 30
0.0
  0
LWPOLYLINE
  5
2c3
100
AcDbEntity
  8
Layer_3
 62
7
100
AcDbPolyline
 90
2
 70
0
 10
53.797785
 20
53.882248
 30
0.0
 10
56.483087
 20
53.882248
 30
0.0
  0
SPLINE
  5
2c4
100
AcDbEntity
  8
Layer_3
 62
7
100
AcDbSpline
 70
8
 71
3
 72
8
 73
4
 74
0
 40
0
 40
0
 40
0
 40
0
 40
1
 40
1
 40
1
 40
1
 10
62.970585
 20
51.279498
 30
0.0
 10
63.518331
 20
53.114992
 30
0.0
 10
64.050416
 20
54.326401
 30
0.0
 10
65.648428
 20
56.202551
 30
0.0
  0
SPLINE
  5
2c5
100
AcDbEntity
  8
Layer_3
 62
7
100
AcDbSpline
 70
8
 71
3
 72
8
 73
4
 74
0
 40
0
 40
0
 40
0
 40
0
 40
1
 40
1
 40
1
 40
1
 10
65.648428
 20
56.202551
 30
0.0
 10
66.268603
 20
55.074288
 30
0.0
 10
66.808538
 20
53.841469
 30
0.0
 10
68.326271
 20
53.882749
 30
0.0
  0
LWPOLYLINE
  5
2c6
100
AcDbEntity
  8
Layer_3
 62
7
100
AcDbPolyline
 90
2
 70
0
 10
59.160929
 20
51.278997
 30
0.0
 10
62.970585
 20
51.279498
 30
0.0
  0
SPLINE
  5
2c7
100
AcDbEntity
  8
Layer_3
 62
7
100
AcDbSpline
 70
8
 71
3
 72
8
 73
4
 74
0
 40
0
 40
0
 40
0
 40
0
 40
1
 40
1
 40
1
 40
1
 10
71.011573
 20
53.882749
 30
0.0
 10
71.352981
 20
51.509953
 30
0.0
 10
72.135833
 20
51.347949
 30
0.0
 10
73.689415
 20
51.279498
 30
0.0
  0
LWPOLYLINE
  5
2c8
100
AcDbEntity
  8
Layer_3
 62
7
100
AcDbPolyline
 90
2
 70
0
 10
68.326271
 20
53.882749
 30
0.0
 10
71.011573
 20
53.882749
 30
0.0
  0
SPLINE
  5
2c9
100
AcDbEntity
  8
Layer_3
 62
7
100
AcDbSpline
 70
8
 71
3
 72
8
 73
4
 74
0
 40
0
 40
0
 40
0
 40
0
 40
1
 40
1
 40
1
 40
1
 10
19.385127
 20
29.277995
 30
0.0
 10
19.867507
 20
31.107085
 30
0.0
 10
20.801757
 20
32.793960
 30
0.0
 10
22.062977
 20
34.201040
 30
0.0
  0
SPLINE
  5
2ca
100
AcDbEntity
  8
Layer_3
 62
7
100
AcDbSpline
 70
8
 71
3
 72
8
 73
4
 74
0
 40
0
 40
0
 40
0
 40
0
 40
1
 40
1
 40
1
 40
1
 10
22.062977
 20
34.201040
 30
0.0
 10
22.592227
 20
33.173220
 30
0.0
 10
23.274047
 20
31.871445
 30
0.0
 10
24.601357
 20
31.881065
 30
0.0
  0
SPLINE
  5
2cb
100
AcDbEntity
  8
Layer_3
 62
7
100
AcDbSpline
 70
8
 71
3
 72
8
 73
4
 74
0
 40
0
 40
0
 40
0
 40
0
 40
1
 40
1
 40
1
 40
1
 10
24.601357
 20
31.881065
 30
0.0
 10
25.542947
 20
31.881475
 30
0.0
 10
31.091122
 20
31.881125
 30
0.0
 10
32.032702
 20
31.881245
 30
0.0
  0
SPLINE
  5
2cc
100
AcDbEntity
  8
Layer_3
 62
7
100
AcDbSpline
 70
8
 71
3
 72
8
 73
4
 74
0
 40
0
 40
0
 40
0
 40
0
 40
1
 40
1
 40
1
 40
1
 10
32.032702
 20
31.881245
 30
0.0
 10
32.134172
 20
30.789755
 30
0.0
 10
32.599742
 20
29.383075
 30
0.0
 10
33.915772
 20
29.340315
 30
0.0
  0
SPLINE
  5
2cd
100
AcDbEntity
  8
Layer_3
 62
7
100
AcDbSpline
 70
8
 71
3
 72
8
 73
4
 74
0
 40
0
 40
0
 40
0
 40
0
 40
1
 40
1
 40
1
 40
1
 10
33.915772
 20
29.340315
 30
0.0
 10
35.444472
 20
29.215225
 30
0.0
 10
36.986772
 20
29.305615
 30
0.0
 10
38.520201
 20
29.278515
 30
0.0
  0
SPLINE
  5
2ce
100
AcDbEntity
  8
Layer_3
 62
7
100
AcDbSpline
 70
8
 71
3
 72
8
 73
4
 74
0
 40
0
 40
0
 40
0
 40
0
 40
1
 40
1
 40
1
 40
1
 10
38.520201
 20
29.278515
 30
0.0
 10
39.002580
 20
31.107605
 30
0.0
 10
39.936826
 20
32.794480
 30
0.0
 10
41.198044
 20
34.201560
 30
0.0
  0
SPLINE
  5
2cf
100
AcDbEntity
  8
Layer_3
 62
7
100
AcDbSpline
 70
8
 71
3
 72
8
 73
4
 74
0
 40
0
 40
0
 40
0
 40
0
 40
1
 40
1
 40
1
 40
1
 10
41.198044
 20
34.201560
 30
0.0
 10
41.727302
 20
33.173740
 30
0.0
 10
42.409120
 20
31.871965
 30
0.0
 10
43.736432
 20
31.881585
 30
0.0
  0
SPLINE
  5
2d0
100
AcDbEntity
  8
Layer_3
 62
7
100
AcDbSpline
 70
8
 71
3
 72
8
 73
4
 74
0
 40
0
 40
0
 40
0
 40
0
 40
1
 40
1
 40
1
 40
1
 10
43.736432
 20
31.881585
 30
0.0
 10
44.678017
 20
31.881995
 30
0.0
 10
51.856210
 20
31.881655
 30
0.0
 10
52.797796
 20
31.881765
 30
0.0
  0
SPLINE
  5
2d1
100
AcDbEntity
  8
Layer_3
 62
7
100
AcDbSpline
 70
8
 71
3
 72
8
 73
4
 74
0
 40
0
 40
0
 40
0
 40
0
 40
1
 40
1
 40
1
 40
1
 10
52.797796
 20
31.881765
 30
0.0
 10
52.899259
 20
30.790285
 30
0.0
 10
53.364833
 20
29.383595
 30
0.0
 10
54.680865
 20
29.340845
 30
0.0
  0
SPLINE
  5
2d2
100
AcDbEntity
  8
Layer_3
 62
7
100
AcDbSpline
 70
8
 71
3
 72
8
 73
4
 74
0
 40
0
 40
0
 40
0
 40
0
 40
1
 40
1
 40
1
 40
1
 10
54.680865
 20
29.340845
 30
0.0
 10
56.209560
 20
29.215745
 30
0.0
 10
57.751862
 20
29.306145
 30
0.0
 10
59.285295
 20
29.279045
 30
0.0
  0
SPLINE
  5
2d3
100
AcDbEntity
  8
Layer_3
 62
7
100
AcDbSpline
 70
8
 71
3
 72
8
 73
4
 74
0
 40
0
 40
0
 40
0
 40
0
 40
1
 40
1
 40
1
 40
1
 10
59.285295
 20
29.279045
 30
0.0
 10
59.833040
 20
31.114535
 30
0.0
 10
60.365125
 20
32.325940
 30
0.0
 10
61.963137
 20
34.202090
 30
0.0
  0
SPLINE
  5
2d4
100
AcDbEntity
  8
Layer_3
 62
7
100
AcDbSpline
 70
8
 71
3
 72
8
 73
4
 74
0
 40
0
 40
0
 40
0
 40
0
 40
1
 40
1
 40
1
 40
1
 10
61.963137
 20
34.202090
 30
0.0
 10
62.583313
 20
33.073830
 30
0.0
 10
63.123248
 20
31.841015
 30
0.0
 10
64.640980
 20
31.882295
 30
0.0
  0
LWPOLYLINE
  5
2d5
100
AcDbEntity
  8
Layer_3
 62
7
100
AcDbPolyline
 90
2
 70
0
 10
73.689415
 20
51.279498
 30
0.0
 10
77.499071
 20
51.280001
 30
0.0
  0
SPLINE
  5
2d6
100
AcDbEntity
  8
Layer_3
 62
7
100
AcDbSpline
 70
8
 71
3
 72
8
 73
4
 74
0
 40
0
 40
0
 40
0
 40
0
 40
1
 40
1
 40
1
 40
1
 10
73.950056
 20
31.915705
 30
0.0
 10
74.291463
 20
29.542905
 30
0.0
 10
75.074315
 20
29.380905
 30
0.0
 10
76.627896
 20
29.312455
 30
0.0
  0
LWPOLYLINE
  5
2d7
100
AcDbEntity
  8
Layer_3
 62
7
100
AcDbPolyline
 90
2
 70
0
 10
64.640980
 20
31.882295
 30
0.0
 10
73.950056
 20
31.915705
 30
0.0
  0
SPLINE
  5
2d8
100
AcDbEntity
  8
Layer_3
 62
7
100
AcDbSpline
 70
8
 71
3
 72
8
 73
4
 74
0
 40
0
 40
0
 40
0
 40
0
 40
1
 40
1
 40
1
 40
1
 10
19.385127
 20
18.278000
 30
0.0
 10
19.867497
 20
20.107090
 30
0.0
 10
20.801747
 20
21.793970
 30
0.0
 10
22.062967
 20
23.201050
 30
0.0
  0
SPLINE
  5
2d9
100
AcDbEntity
  8
Layer_3
 62
7
100
AcDbSpline
 70
8
 71
3
 72
8
 73
4
 74
0
 40
0
 40
0
 40
0
 40
0
 40
1
 40
1
 40
1
 40
1
 10
22.062967
 20
23.201050
 30
0.0
 10
22.592227
 20
22.173230
 30
0.0
 10
23.274037
 20
20.871450
 30
0.0
 10
24.601357
 20
20.881070
 30
0.0
  0
SPLINE
  5
2da
100
AcDbEntity
  8
Layer_3
 62
7
100
AcDbSpline
 70
8
 71
3
 72
8
 73
4
 74
0
 40
0
 40
0
 40
0
 40
0
 40
1
 40
1
 40
1
 40
1
 10
24.601357
 20
20.881070
 30
0.0
 10
25.542937
 20
20.881480
 30
0.0
 10
23.956811
 20
20.881130
 30
0.0
 10
24.898391
 20
20.881250
 30
0.0
  0
SPLINE
  5
2db
100
AcDbEntity
  8
Layer_3
 62
7
100
AcDbSpline
 70
8
 71
3
 72
8
 73
4
 74
0
 40
0
 40
0
 40
0
 40
0
 40
1
 40
1
 40
1
 40
1
 10
24.898391
 20
20.881250
 30
0.0
 10
24.999861
 20
19.789760
 30
0.0
 10
25.465431
 20
18.383080
 30
0.0
 10
26.781461
 20
18.340320
 30
0.0
  0
SPLINE
  5
2dc
100
AcDbEntity
  8
Layer_3
 62
7
100
AcDbSpline
 70
8
 71
3
 72
8
 73
4
 74
0
 40
0
 40
0
 40
0
 40
0
 40
1
 40
1
 40
1
 40
1
 10
26.781461
 20
18.340320
 30
0.0
 10
28.310161
 20
18.215230
 30
0.0
 10
32.380177
 20
18.305620
 30
0.0
 10
33.913607
 20
18.278520
 30
0.0
  0
SPLINE
  5
2dd
100
AcDbEntity
  8
Layer_3
 62
7
100
AcDbSpline
 70
8
 71
3
 72
8
 73
4
 74
0
 40
0
 40
0
 40
0
 40
0
 40
1
 40
1
 40
1
 40
1
 10
33.913607
 20
18.278520
 30
0.0
 10
34.395987
 20
20.107610
 30
0.0
 10
35.330237
 20
21.794490
 30
0.0
 10
36.591447
 20
23.201570
 30
0.0
  0
SPLINE
  5
2de
100
AcDbEntity
  8
Layer_3
 62
7
100
AcDbSpline
 70
8
 71
3
 72
8
 73
4
 74
0
 40
0
 40
0
 40
0
 40
0
 40
1
 40
1
 40
1
 40
1
 10
36.591447
 20
23.201570
 30
0.0
 10
37.120707
 20
22.173750
 30
0.0
 10
37.802527
 20
20.871970
 30
0.0
 10
39.129839
 20
20.881590
 30
0.0
  0
SPLINE
  5
2df
100
AcDbEntity
  8
Layer_3
 62
7
100
AcDbSpline
 70
8
 71
3
 72
8
 73
4
 74
0
 40
0
 40
0
 40
0
 40
0
 40
1
 40
1
 40
1
 40
1
 10
39.129839
 20
20.881590
 30
0.0
 10
40.071424
 20
20.882000
 30
0.0
 10
41.013010
 20
20.881660
 30
0.0
 10
41.954596
 20
20.881770
 30
0.0
  0
SPLINE
  5
2e0
100
AcDbEntity
  8
Layer_3
 62
7
100
AcDbSpline
 70
8
 71
3
 72
8
 73
4
 74
0
 40
0
 40
0
 40
0
 40
0
 40
1
 40
1
 40
1
 40
1
 10
41.954596
 20
20.881770
 30
0.0
 10
42.056059
 20
19.790290
 30
0.0
 10
42.521633
 20
18.383600
 30
0.0
 10
43.837665
 20
18.340850
 30
0.0
  0
SPLINE
  5
2e1
100
AcDbEntity
  8
Layer_3
 62
7
100
AcDbSpline
 70
8
 71
3
 72
8
 73
4
 74
0
 40
0
 40
0
 40
0
 40
0
 40
1
 40
1
 40
1
 40
1
 10
43.837665
 20
18.340850
 30
0.0
 10
45.366360
 20
18.215750
 30
0.0
 10
46.908662
 20
18.306150
 30
0.0
 10
48.442095
 20
18.279050
 30
0.0
  0
SPLINE
  5
2e2
100
AcDbEntity
  8
Layer_3
 62
7
100
AcDbSpline
 70
8
 71
3
 72
8
 73
4
 74
0
 40
0
 40
0
 40
0
 40
0
 40
1
 40
1
 40
1
 40
1
 10
48.442095
 20
18.279050
 30
0.0
 10
48.989840
 20
20.114540
 30
0.0
 10
49.521925
 20
21.325950
 30
0.0
 10
51.119937
 20
23.202100
 30
0.0
  0
SPLINE
  5
2e3
100
AcDbEntity
  8
Layer_3
 62
7
100
AcDbSpline
 70
8
 71
3
 72
8
 73
4
 74
0
 40
0
 40
0
 40
0
 40
0
 40
1
 40
1
 40
1
 40
1
 10
51.119937
 20
23.202100
 30
0.0
 10
51.740113
 20
22.073840
 30
0.0
 10
52.280048
 20
20.841020
 30
0.0
 10
53.797780
 20
20.882300
 30
0.0
  0
LWPOLYLINE
  5
2e4
100
AcDbEntity
  8
Layer_3
 62
7
100
AcDbPolyline
 90
2
 70
0
 10
76.627896
 20
29.312455
 30
0.0
 10
77.499072
 20
29.277945
 30
0.0
  0
SPLINE
  5
2e5
100
AcDbEntity
  8
Layer_3
 62
7
100
AcDbSpline
 70
8
 71
3
 72
8
 73
4
 74
0
 40
0
 40
0
 40
0
 40
0
 40
1
 40
1
 40
1
 40
1
 10
59.723727
 20
20.882300
 30
0.0
 10
60.065134
 20
18.509500
 30
0.0
 10
60.847986
 20
18.347500
 30
0.0
 10
62.401567
 20
18.279050
 30
0.0
  0
LWPOLYLINE
  5
2e6
100
AcDbEntity
  8
Layer_3
 62
7
100
AcDbPolyline
 90
2
 70
0
 10
53.797780
 20
20.882300
 30
0.0
 10
59.723727
 20
20.882300
 30
0.0
  0
SPLINE
  5
2e7
100
AcDbEntity
  8
Layer_3
 62
7
100
AcDbSpline
 70
8
 71
3
 72
8
 73
4
 74
0
 40
0
 40
0
 40
0
 40
0
 40
1
 40
1
 40
1
 40
1
 10
62.970580
 20
18.279550
 30
0.0
 10
63.518325
 20
20.115040
 30
0.0
 10
64.050410
 20
21.326450
 30
0.0
 10
65.648422
 20
23.202600
 30
0.0
  0
SPLINE
  5
2e8
100
AcDbEntity
  8
Layer_3
 62
7
100
AcDbSpline
 70
8
 71
3
 72
8
 73
4
 74
0
 40
0
 40
0
 40
0
 40
0
 40
1
 40
1
 40
1
 40
1
 10
65.648422
 20
23.202600
 30
0.0
 10
66.268598
 20
22.074340
 30
0.0
 10
66.375158
 20
20.955830
 30
0.0
 10
67.269796
 20
20.882800
 30
0.0
  0
LWPOLYLINE
  5
2e9
100
AcDbEntity
  8
Layer_3
 62
7
100
AcDbPolyline
 90
2
 70
0
 10
62.401567
 20
18.279050
 30
0.0
 10
62.970580
 20
18.279550
 30
0.0
  0
SPLINE
  5
2ea
100
AcDbEntity
  8
Layer_3
 62
7
100
AcDbSpline
 70
8
 71
3
 72
8
 73
4
 74
0
 40
0
 40
0
 40
0
 40
0
 40
1
 40
1
 40
1
 40
1
 10
67.269796
 20
20.882800
 30
0.0
 10
67.611204
 20
18.510000
 30
0.0
 10
68.394055
 20
18.348000
 30
0.0
 10
69.947638
 20
18.279550
 30
0.0
  0
LWPOLYLINE
  5
2eb
100
AcDbEntity
  8
Layer_3
 62
7
100
AcDbPolyline
 90
1
 70
1
 10
67.269796
 20
20.882800
 30
0.0
  0
SPLINE
  5
2ec
100
AcDbEntity
  8
Layer_3
 62
7
100
AcDbSpline
 70
8
 71
3
 72
8
 73
4
 74
0
 40
0
 40
0
 40
0
 40
0
 40
1
 40
1
 40
1
 40
1
 10
19.385127
 20
40.277997
 30
0.0
 10
19.867507
 20
42.107087
 30
0.0
 10
20.801757
 20
43.793962
 30
0.0
 10
22.062977
 20
45.201042
 30
0.0
  0
SPLINE
  5
2ed
100
AcDbEntity
  8
Layer_3
 62
7
100
AcDbSpline
 70
8
 71
3
 72
8
 73
4
 74
0
 40
0
 40
0
 40
0
 40
0
 40
1
 40
1
 40
1
 40
1
 10
22.062977
 20
45.201042
 30
0.0
 10
22.592227
 20
44.173222
 30
0.0
 10
23.274047
 20
42.871447
 30
0.0
 10
24.601357
 20
42.881067
 30
0.0
  0
SPLINE
  5
2ee
100
AcDbEntity
  8
Layer_3
 62
7
100
AcDbSpline
 70
8
 71
3
 72
8
 73
4
 74
0
 40
0
 40
0
 40
0
 40
0
 40
1
 40
1
 40
1
 40
1
 10
24.601357
 20
42.881067
 30
0.0
 10
25.542947
 20
42.881477
 30
0.0
 10
26.484537
 20
42.881127
 30
0.0
 10
27.426117
 20
42.881247
 30
0.0
  0
SPLINE
  5
2ef
100
AcDbEntity
  8
Layer_3
 62
7
100
AcDbSpline
 70
8
 71
3
 72
8
 73
4
 74
0
 40
0
 40
0
 40
0
 40
0
 40
1
 40
1
 40
1
 40
1
 10
27.426117
 20
42.881247
 30
0.0
 10
27.527587
 20
41.789757
 30
0.0
 10
27.993157
 20
40.383077
 30
0.0
 10
29.309191
 20
40.340317
 30
0.0
  0
SPLINE
  5
2f0
100
AcDbEntity
  8
Layer_3
 62
7
100
AcDbSpline
 70
8
 71
3
 72
8
 73
4
 74
0
 40
0
 40
0
 40
0
 40
0
 40
1
 40
1
 40
1
 40
1
 10
29.309191
 20
40.340317
 30
0.0
 10
30.837891
 20
40.215227
 30
0.0
 10
32.380191
 20
40.305617
 30
0.0
 10
33.913620
 20
40.278517
 30
0.0
  0
LWPOLYLINE
  5
2f1
100
AcDbEntity
  8
Layer_3
 62
7
100
AcDbPolyline
 90
2
 70
0
 10
69.947638
 20
18.279550
 30
0.0
 10
77.499068
 20
18.280060
 30
0.0
  0
SPLINE
  5
2f2
100
AcDbEntity
  8
Layer_3
 62
7
100
AcDbSpline
 70
8
 71
3
 72
8
 73
4
 74
0
 40
0
 40
0
 40
0
 40
0
 40
1
 40
1
 40
1
 40
1
 10
48.442106
 20
40.279047
 30
0.0
 10
48.989852
 20
42.114537
 30
0.0
 10
49.521937
 20
43.325942
 30
0.0
 10
51.119949
 20
45.202092
 30
0.0
  0
SPLINE
  5
2f3
100
AcDbEntity
  8
Layer_3
 62
7
100
AcDbSpline
 70
8
 71
3
 72
8
 73
4
 74
0
 40
0
 40
0
 40
0
 40
0
 40
1
 40
1
 40
1
 40
1
 10
51.119949
 20
45.202092
 30
0.0
 10
51.740124
 20
44.073832
 30
0.0
 10
52.280059
 20
42.841017
 30
0.0
 10
53.797791
 20
42.882297
 30
0.0
  0
LWPOLYLINE
  5
2f4
100
AcDbEntity
  8
Layer_3
 62
7
100
AcDbPolyline
 90
2
 70
0
 10
33.913620
 20
40.278517
 30
0.0
 10
48.442106
 20
40.279047
 30
0.0
  0
SPLINE
  5
2f5
100
AcDbEntity
  8
Layer_3
 62
7
100
AcDbSpline
 70
8
 71
3
 72
8
 73
4
 74
0
 40
0
 40
0
 40
0
 40
0
 40
1
 40
1
 40
1
 40
1
 10
56.483095
 20
42.882297
 30
0.0
 10
56.824503
 20
40.509497
 30
0.0
 10
57.607355
 20
40.347497
 30
0.0
 10
59.160935
 20
40.279047
 30
0.0
  0
LWPOLYLINE
  5
2f6
100
AcDbEntity
  8
Layer_3
 62
7
100
AcDbPolyline
 90
2
 70
0
 10
53.797791
 20
42.882297
 30
0.0
 10
56.483095
 20
42.882297
 30
0.0
  0
LWPOLYLINE
  5
2f7
100
AcDbEntity
  8
Layer_3
 62
7
100
AcDbPolyline
 90
2
 70
0
 10
59.160935
 20
40.279047
 30
0.0
 10
77.499082
 20
40.280047
 30
0.0
  0
LWPOLYLINE
  5
2f8
100
AcDbEntity
  8
Layer_3
 62
7
100
AcDbPolyline
 90
2
 70
0
 10
43.566971
 20
64.586916
 30
0.0
 10
43.566971
 20
62.718600
 30
0.0
  0
LWPOLYLINE
  5
2f9
100
AcDbEntity
  8
Layer_3
 62
7
100
AcDbPolyline
 90
12
 70
0
 10
43.566971
 20
64.586916
 30
0.0
 10
44.190683
 20
64.586916
 30
0.0
 10
44.458795
 20
64.496605
 30
0.0
 10
44.633774
 20
64.318804
 30
0.0
 10
44.724085
 20
64.141004
 30
0.0
 10
44.814396
 20
63.875714
 30
0.0
 10
44.814396
 20
63.429802
 30
0.0
 10
44.724085
 20
63.164512
 30
0.0
 10
44.633774
 20
62.985301
 30
0.0
 10
44.458795
 20
62.807500
 30
0.0
 10
44.190683
 20
62.718600
 30
0.0
 10
43.566971
 20
62.718600
 30
0.0
  0
LWPOLYLINE
  5
2fa
100
AcDbEntity
  8
Layer_3
 62
7
100
AcDbPolyline
 90
2
 70
0
 10
32.287983
 20
64.586916
 30
0.0
 10
31.576781
 20
62.718600
 30
0.0
  0
LWPOLYLINE
  5
2fb
100
AcDbEntity
  8
Layer_3
 62
7
100
AcDbPolyline
 90
2
 70
0
 10
32.287983
 20
64.586916
 30
0.0
 10
32.999185
 20
62.718600
 30
0.0
  0
LWPOLYLINE
  5
2fc
100
AcDbEntity
  8
Layer_3
 62
7
100
AcDbPolyline
 90
2
 70
0
 10
31.842071
 20
63.339491
 30
0.0
 10
32.733895
 20
63.339491
 30
0.0
  0
LWPOLYLINE
  5
2fd
100
AcDbEntity
  8
Layer_3
 62
7
100
AcDbPolyline
 90
20
 70
0
 10
54.745385
 20
70.511804
 30
0.0
 10
54.567584
 20
70.689605
 30
0.0
 10
54.299473
 20
70.779916
 30
0.0
 10
53.943872
 20
70.779916
 30
0.0
 10
53.678582
 20
70.689605
 30
0.0
 10
53.500781
 20
70.511804
 30
0.0
 10
53.500781
 20
70.334004
 30
0.0
 10
53.588271
 20
70.156203
 30
0.0
 10
53.678582
 20
70.068714
 30
0.0
 10
53.856382
 20
69.978403
 30
0.0
 10
54.389784
 20
69.800602
 30
0.0
 10
54.567584
 20
69.713113
 30
0.0
 10
54.655074
 20
69.622802
 30
0.0
 10
54.745385
 20
69.445001
 30
0.0
 10
54.745385
 20
69.178301
 30
0.0
 10
54.567584
 20
69.000500
 30
0.0
 10
54.299473
 20
68.911600
 30
0.0
 10
53.943872
 20
68.911600
 30
0.0
 10
53.678582
 20
69.000500
 30
0.0
 10
53.500781
 20
69.178301
 30
0.0
  0
LWPOLYLINE
  5
2fe
100
AcDbEntity
  8
Layer_3
 62
7
100
AcDbPolyline
 90
2
 70
0
 10
67.851971
 20
64.586916
 30
0.0
 10
67.851971
 20
62.718600
 30
0.0
  0
LWPOLYLINE
  5
2ff
100
AcDbEntity
  8
Layer_3
 62
7
100
AcDbPolyline
 90
10
 70
0
 10
67.851971
 20
64.586916
 30
0.0
 10
68.653484
 20
64.586916
 30
0.0
 10
68.918774
 20
64.496605
 30
0.0
 10
69.009085
 20
64.406294
 30
0.0
 10
69.099396
 20
64.231315
 30
0.0
 10
69.099396
 20
64.050693
 30
0.0
 10
69.009085
 20
63.875714
 30
0.0
 10
68.918774
 20
63.785403
 30
0.0
 10
68.653484
 20
63.695092
 30
0.0
 10
67.851971
 20
63.695092
 30
0.0
  0
LWPOLYLINE
  5
300
100
AcDbEntity
  8
Layer_3
 62
7
100
AcDbPolyline
 90
2
 70
0
 10
68.475683
 20
63.695092
 30
0.0
 10
69.099396
 20
62.718600
 30
0.0
  0
LWPOLYLINE
  5
301
100
AcDbEntity
  8
Layer_3
 62
7
100
AcDbPolyline
 90
3
 70
0
 10
37.857966
 20
61.913047
 30
0.0
 10
43.846475
 20
61.913047
 30
0.0
 10
49.834983
 20
61.913047
 30
0.0
  0
ENDSEC
  0
SECTION
  2
OBJECTS
  0
DICTIONARY
  5
C
330
0
100
AcDbDictionary
  3
ACAD_GROUP
350
D
  3
ACAD_MLINESTYLE
350
17
  0
DICTIONARY
  5
D
330
C
100
AcDbDictionary
  0
DICTIONARY
  5
1A
330
C
100
AcDbDictionary
  0
DICTIONARY
  5
17
330
C
100
AcDbDictionary
  3
STANDARD
350
18
  0
DICTIONARY
  5
19
330
C
100
AcDbDictionary
  0
ENDSEC
  0
EOF
